<svg width="254" height="46" viewBox="0 0 254 46" fill="none" xmlns="http://www.w3.org/2000/svg">
<path d="M0.88 45.28L17.68 0.159998H23.92L7.12 45.28H0.88Z" fill="#6FFF9D"/>
<path d="M28.4613 40L37.2933 4.96H45.0213L53.9012 40H47.7573L45.8373 31.504H36.5253L34.6053 40H28.4613ZM37.6293 26.608H44.7333L42.6213 17.2C42.2693 15.632 41.9653 14.224 41.7093 12.976C41.4533 11.696 41.2773 10.768 41.1813 10.192C41.0853 10.768 40.9093 11.696 40.6533 12.976C40.4293 14.224 40.1253 15.616 39.7413 17.152L37.6293 26.608ZM72.2185 40.48C70.0425 40.48 68.3145 39.872 67.0345 38.656C65.7545 37.408 65.1145 35.712 65.1145 33.568L66.4585 34.96H65.1145V40H59.2585V4.96H65.2585V12.352L65.0665 18.64H66.4585L65.1145 20.032C65.1145 17.888 65.7545 16.208 67.0345 14.992C68.3145 13.744 70.0425 13.12 72.2185 13.12C74.8745 13.12 77.0025 14.032 78.6025 15.856C80.2025 17.68 81.0025 20.144 81.0025 23.248V30.4C81.0025 33.472 80.2025 35.92 78.6025 37.744C77.0025 39.568 74.8745 40.48 72.2185 40.48ZM70.1065 35.296C71.6425 35.296 72.8425 34.848 73.7065 33.952C74.5705 33.056 75.0025 31.776 75.0025 30.112V23.488C75.0025 21.824 74.5705 20.544 73.7065 19.648C72.8425 18.752 71.6425 18.304 70.1065 18.304C68.6025 18.304 67.4185 18.768 66.5545 19.696C65.6905 20.592 65.2585 21.856 65.2585 23.488V30.112C65.2585 31.744 65.6905 33.024 66.5545 33.952C67.4185 34.848 68.6025 35.296 70.1065 35.296ZM98.7438 40.432C96.5038 40.432 94.5518 40.016 92.8878 39.184C91.2558 38.32 89.9758 37.12 89.0478 35.584C88.1518 34.016 87.7038 32.176 87.7038 30.064V23.536C87.7038 21.424 88.1518 19.6 89.0478 18.064C89.9758 16.496 91.2558 15.296 92.8878 14.464C94.5518 13.6 96.5038 13.168 98.7438 13.168C101.016 13.168 102.968 13.6 104.6 14.464C106.232 15.296 107.496 16.496 108.392 18.064C109.32 19.6 109.784 21.408 109.784 23.488V30.064C109.784 32.176 109.32 34.016 108.392 35.584C107.496 37.12 106.232 38.32 104.6 39.184C102.968 40.016 101.016 40.432 98.7438 40.432ZM98.7438 35.2C100.344 35.2 101.576 34.768 102.44 33.904C103.336 33.008 103.784 31.728 103.784 30.064V23.536C103.784 21.84 103.336 20.56 102.44 19.696C101.576 18.832 100.344 18.4 98.7438 18.4C97.1758 18.4 95.9438 18.832 95.0478 19.696C94.1518 20.56 93.7038 21.84 93.7038 23.536V30.064C93.7038 31.728 94.1518 33.008 95.0478 33.904C95.9438 34.768 97.1758 35.2 98.7438 35.2ZM127.525 40.48C124.165 40.48 121.525 39.552 119.605 37.696C117.685 35.808 116.725 33.248 116.725 30.016V13.6H122.725V29.968C122.725 31.664 123.141 32.976 123.973 33.904C124.805 34.8 125.989 35.248 127.525 35.248C129.029 35.248 130.197 34.8 131.029 33.904C131.893 32.976 132.325 31.664 132.325 29.968V13.6H138.325V30.016C138.325 33.248 137.349 35.808 135.397 37.696C133.445 39.552 130.821 40.48 127.525 40.48ZM159.186 40C156.658 40 154.674 39.296 153.234 37.888C151.826 36.48 151.122 34.544 151.122 32.08V19.024H143.97V13.6H151.122V6.16H157.17V13.6H167.298V19.024H157.17V32.08C157.17 33.744 157.986 34.576 159.618 34.576H166.818V40H159.186ZM202.157 40V4.96H209.261L212.669 16.096C213.021 17.216 213.309 18.24 213.533 19.168C213.757 20.096 213.901 20.768 213.965 21.184C214.029 20.768 214.173 20.096 214.397 19.168C214.621 18.24 214.893 17.216 215.213 16.096L218.477 4.96H225.581V40H219.965V29.104C219.965 27.504 220.013 25.76 220.109 23.872C220.205 21.984 220.317 20.096 220.445 18.208C220.573 16.32 220.717 14.528 220.877 12.832C221.069 11.136 221.229 9.648 221.357 8.368L216.653 24.928H211.181L206.333 8.368C206.493 9.584 206.653 11.024 206.813 12.688C206.973 14.32 207.117 16.08 207.245 17.968C207.405 19.824 207.533 21.712 207.629 23.632C207.725 25.552 207.773 27.376 207.773 29.104V40H202.157ZM242.698 40.48C240.458 40.48 238.506 40.048 236.842 39.184C235.178 38.32 233.882 37.12 232.954 35.584C232.058 34.016 231.61 32.192 231.61 30.112V23.488C231.61 21.408 232.058 19.6 232.954 18.064C233.882 16.496 235.178 15.28 236.842 14.416C238.506 13.552 240.458 13.12 242.698 13.12C244.906 13.12 246.826 13.552 248.458 14.416C250.122 15.28 251.402 16.496 252.298 18.064C253.226 19.6 253.69 21.408 253.69 23.488V28.24H237.418V30.112C237.418 31.968 237.866 33.376 238.762 34.336C239.658 35.264 240.986 35.728 242.746 35.728C244.09 35.728 245.178 35.504 246.01 35.056C246.842 34.576 247.37 33.888 247.594 32.992H253.498C253.05 35.264 251.834 37.088 249.85 38.464C247.898 39.808 245.514 40.48 242.698 40.48ZM247.882 24.88V23.44C247.882 21.616 247.45 20.224 246.586 19.264C245.722 18.272 244.426 17.776 242.698 17.776C240.97 17.776 239.658 18.272 238.762 19.264C237.866 20.256 237.418 21.664 237.418 23.488V24.496L248.314 24.4L247.882 24.88Z" fill="white"/>
</svg>
