<svg width="1139" height="453" viewBox="0 0 1139 453" fill="none" xmlns="http://www.w3.org/2000/svg">
<rect width="1139" height="358" fill="#6FFF9D"/>
<rect x="207" y="358" width="931.765" height="58" fill="#6FFF9D"/>
<rect x="1089.73" y="416" width="48.2493" height="37" fill="#6FFF9D"/>
<rect x="564" y="65" width="407" height="132" fill="black" fill-opacity="0.7"/>
<path d="M113.392 168V97.92H125.392V126.048H144.208V97.92H156.208V168H144.208V137.184H125.392V168H113.392ZM170.859 168V157.056H189.291V126.048H173.259V115.2H200.811V157.056H217.131V168H170.859ZM194.091 106.368C191.659 106.368 189.739 105.76 188.331 104.544C186.923 103.264 186.219 101.568 186.219 99.456C186.219 97.344 186.923 95.68 188.331 94.464C189.739 93.184 191.659 92.544 194.091 92.544C196.523 92.544 198.443 93.184 199.851 94.464C201.259 95.68 201.963 97.344 201.963 99.456C201.963 101.568 201.259 103.264 199.851 104.544C198.443 105.76 196.523 106.368 194.091 106.368ZM235.525 183.36L243.205 153.504H258.565L246.085 183.36H235.525ZM344.89 168V157.44H359.002V108.48H344.89V97.92H385.21V108.48H371.098V157.44H385.21V168H344.89ZM407.733 123.36L415.413 93.504H430.773L418.293 123.36H407.733ZM456.367 168V115.2H466.159V122.304H468.175L466.543 124.032C466.543 121.088 467.375 118.72 469.039 116.928C470.703 115.136 472.847 114.24 475.471 114.24C478.287 114.24 480.463 115.392 481.999 117.696C483.599 120 484.399 123.104 484.399 127.008L482.287 122.304H485.551L484.303 124.032C484.303 121.088 485.135 118.72 486.799 116.928C488.463 115.136 490.671 114.24 493.423 114.24C496.687 114.24 499.279 115.456 501.199 117.888C503.119 120.32 504.079 123.616 504.079 127.776V168H493.519V128.256C493.519 126.528 493.135 125.184 492.367 124.224C491.599 123.2 490.479 122.688 489.007 122.688C487.599 122.688 486.479 123.168 485.647 124.128C484.879 125.088 484.495 126.464 484.495 128.256V168H475.855V128.256C475.855 126.464 475.471 125.088 474.703 124.128C473.935 123.168 472.815 122.688 471.343 122.688C469.871 122.688 468.751 123.168 467.983 124.128C467.279 125.088 466.927 126.464 466.927 128.256V168H456.367ZM993.822 145.632L991.71 111.168V97.92H1004.77V111.168L1002.65 145.632H993.822ZM996.798 168.48C994.814 168.48 993.214 167.904 991.998 166.752C990.782 165.536 990.174 164 990.174 162.144C990.174 160.288 990.782 158.784 991.998 157.632C993.214 156.416 994.814 155.808 996.798 155.808H999.678C1001.73 155.808 1003.33 156.384 1004.48 157.536C1005.69 158.688 1006.3 160.224 1006.3 162.144C1006.3 164 1005.69 165.536 1004.48 166.752C1003.26 167.904 1001.63 168.48 999.582 168.48H996.798Z" fill="black" fill-opacity="0.7"/>
<path d="M571.876 168V97.92H586.084L592.9 120.192C593.604 122.432 594.18 124.48 594.628 126.336C595.076 128.192 595.364 129.536 595.492 130.368C595.62 129.536 595.908 128.192 596.356 126.336C596.804 124.48 597.348 122.432 597.988 120.192L604.516 97.92H618.724V168H607.492V146.208C607.492 143.008 607.588 139.52 607.78 135.744C607.972 131.968 608.196 128.192 608.452 124.416C608.708 120.64 608.996 117.056 609.316 113.664C609.7 110.272 610.02 107.296 610.276 104.736L600.868 137.856H589.924L580.228 104.736C580.548 107.168 580.868 110.048 581.188 113.376C581.508 116.64 581.796 120.16 582.052 123.936C582.372 127.648 582.628 131.424 582.82 135.264C583.012 139.104 583.108 142.752 583.108 146.208V168H571.876ZM631.359 168V157.056H649.791V126.048H633.759V115.2H661.311V157.056H677.631V168H631.359ZM654.591 106.368C652.159 106.368 650.239 105.76 648.831 104.544C647.423 103.264 646.719 101.568 646.719 99.456C646.719 97.344 647.423 95.68 648.831 94.464C650.239 93.184 652.159 92.544 654.591 92.544C657.023 92.544 658.943 93.184 660.351 94.464C661.759 95.68 662.463 97.344 662.463 99.456C662.463 101.568 661.759 103.264 660.351 104.544C658.943 105.76 657.023 106.368 654.591 106.368ZM710.713 168.96C706.233 168.96 702.297 168.128 698.905 166.464C695.577 164.736 692.985 162.336 691.129 159.264C689.273 156.128 688.345 152.448 688.345 148.224V134.976C688.345 130.688 689.273 127.008 691.129 123.936C692.985 120.864 695.577 118.496 698.905 116.832C702.297 115.104 706.233 114.24 710.713 114.24C717.369 114.24 722.681 115.968 726.649 119.424C730.617 122.816 732.697 127.456 732.889 133.344H720.889C720.697 130.592 719.705 128.48 717.913 127.008C716.185 125.472 713.785 124.704 710.713 124.704C707.513 124.704 704.985 125.6 703.129 127.392C701.273 129.12 700.345 131.616 700.345 134.88V148.224C700.345 151.488 701.273 154.016 703.129 155.808C704.985 157.6 707.513 158.496 710.713 158.496C713.785 158.496 716.185 157.76 717.913 156.288C719.705 154.752 720.697 152.608 720.889 149.856H732.889C732.697 155.744 730.617 160.416 726.649 163.872C722.681 167.264 717.369 168.96 710.713 168.96ZM746.58 168V97.92H758.58V115.2L758.292 125.28H761.556L758.292 128.064C758.292 123.712 759.54 120.32 762.036 117.888C764.596 115.456 768.084 114.24 772.5 114.24C777.684 114.24 781.812 115.968 784.884 119.424C788.02 122.88 789.588 127.52 789.588 133.344V168H777.588V134.592C777.588 131.392 776.756 128.928 775.092 127.2C773.428 125.472 771.092 124.608 768.084 124.608C765.14 124.608 762.804 125.504 761.076 127.296C759.412 129.088 758.58 131.648 758.58 134.976V168H746.58ZM819.694 168.96C814.254 168.96 809.966 167.52 806.83 164.64C803.694 161.76 802.126 157.888 802.126 153.024C802.126 147.84 803.854 143.84 807.31 141.024C810.766 138.208 815.662 136.8 821.998 136.8H835.15V132.288C835.15 129.728 834.318 127.744 832.654 126.336C830.99 124.864 828.718 124.128 825.838 124.128C823.214 124.128 821.038 124.704 819.31 125.856C817.582 127.008 816.558 128.576 816.238 130.56H804.526C805.102 125.568 807.342 121.6 811.246 118.656C815.15 115.712 820.142 114.24 826.222 114.24C832.686 114.24 837.774 115.872 841.486 119.136C845.262 122.336 847.15 126.688 847.15 132.192V168H835.534V158.784H833.614L835.534 156.192C835.534 160.096 834.094 163.2 831.214 165.504C828.334 167.808 824.494 168.96 819.694 168.96ZM823.63 159.936C827.022 159.936 829.774 159.072 831.886 157.344C834.062 155.616 835.15 153.376 835.15 150.624V144.192H822.19C819.758 144.192 817.806 144.896 816.334 146.304C814.862 147.712 814.126 149.568 814.126 151.872C814.126 154.368 814.958 156.352 816.622 157.824C818.35 159.232 820.686 159.936 823.63 159.936ZM883.209 168.96C878.729 168.96 874.825 168.096 871.497 166.368C868.169 164.64 865.577 162.24 863.721 159.168C861.929 156.032 861.033 152.384 861.033 148.224V134.976C861.033 130.816 861.929 127.2 863.721 124.128C865.577 120.992 868.169 118.56 871.497 116.832C874.825 115.104 878.729 114.24 883.209 114.24C887.625 114.24 891.465 115.104 894.729 116.832C898.057 118.56 900.617 120.992 902.409 124.128C904.265 127.2 905.193 130.816 905.193 134.976V144.48H872.649V148.224C872.649 151.936 873.545 154.752 875.337 156.672C877.129 158.528 879.785 159.456 883.305 159.456C885.993 159.456 888.169 159.008 889.833 158.112C891.497 157.152 892.553 155.776 893.001 153.984H904.809C903.913 158.528 901.481 162.176 897.513 164.928C893.609 167.616 888.841 168.96 883.209 168.96ZM893.577 137.76V134.88C893.577 131.232 892.713 128.448 890.985 126.528C889.257 124.544 886.665 123.552 883.209 123.552C879.753 123.552 877.129 124.544 875.337 126.528C873.545 128.512 872.649 131.328 872.649 134.976V136.992L894.441 136.8L893.577 137.76ZM948.739 168C945.283 168 942.243 167.296 939.619 165.888C937.059 164.48 935.043 162.496 933.571 159.936C932.099 157.312 931.363 154.304 931.363 150.912V108.768H914.467V97.92H943.363V150.912C943.363 152.832 943.907 154.368 944.995 155.52C946.147 156.608 947.683 157.152 949.603 157.152H965.539V168H948.739Z" fill="white"/>
<path d="M116.872 269.36C115.072 269.36 113.512 269.06 112.192 268.46C110.872 267.86 109.852 267.008 109.132 265.904C108.436 264.776 108.076 263.456 108.052 261.944H112.552C112.552 263.024 112.936 263.876 113.704 264.5C114.496 265.1 115.564 265.4 116.908 265.4C118.204 265.4 119.212 265.1 119.932 264.5C120.676 263.9 121.048 263.072 121.048 262.016C121.048 261.128 120.784 260.36 120.256 259.712C119.752 259.04 119.02 258.584 118.06 258.344L115.036 257.516C112.972 256.988 111.376 256.04 110.248 254.672C109.144 253.304 108.592 251.648 108.592 249.704C108.592 248.216 108.928 246.92 109.6 245.816C110.272 244.712 111.22 243.86 112.444 243.26C113.692 242.66 115.156 242.36 116.836 242.36C119.38 242.36 121.396 243.02 122.884 244.34C124.372 245.636 125.128 247.388 125.152 249.596H120.652C120.652 248.564 120.316 247.76 119.644 247.184C118.972 246.584 118.024 246.284 116.8 246.284C115.624 246.284 114.712 246.56 114.064 247.112C113.416 247.664 113.092 248.444 113.092 249.452C113.092 250.364 113.332 251.144 113.812 251.792C114.316 252.416 115.036 252.86 115.972 253.124L119.104 253.988C121.192 254.516 122.788 255.464 123.892 256.832C124.996 258.176 125.548 259.844 125.548 261.836C125.548 263.324 125.188 264.644 124.468 265.796C123.748 266.924 122.74 267.8 121.444 268.424C120.148 269.048 118.624 269.36 116.872 269.36ZM138.386 269.324C136.706 269.324 135.242 269.012 133.994 268.388C132.77 267.74 131.81 266.84 131.114 265.688C130.442 264.512 130.106 263.132 130.106 261.548V256.652C130.106 255.068 130.442 253.7 131.114 252.548C131.81 251.372 132.77 250.472 133.994 249.848C135.242 249.2 136.706 248.876 138.386 248.876C140.09 248.876 141.554 249.2 142.778 249.848C144.002 250.472 144.95 251.372 145.622 252.548C146.318 253.7 146.666 255.056 146.666 256.616V261.548C146.666 263.132 146.318 264.512 145.622 265.688C144.95 266.84 144.002 267.74 142.778 268.388C141.554 269.012 140.09 269.324 138.386 269.324ZM138.386 265.4C139.586 265.4 140.51 265.076 141.158 264.428C141.83 263.756 142.166 262.796 142.166 261.548V256.652C142.166 255.38 141.83 254.42 141.158 253.772C140.51 253.124 139.586 252.8 138.386 252.8C137.21 252.8 136.286 253.124 135.614 253.772C134.942 254.42 134.606 255.38 134.606 256.652V261.548C134.606 262.796 134.942 263.756 135.614 264.428C136.286 265.076 137.21 265.4 138.386 265.4ZM156.552 269V255.464H151.116V251.396H156.552V248.408C156.552 246.68 157.128 245.3 158.28 244.268C159.432 243.236 160.956 242.72 162.852 242.72H168.648V246.68H162.96C162.384 246.68 161.916 246.848 161.556 247.184C161.22 247.496 161.052 247.928 161.052 248.48V251.396H168.648V255.464H161.052V269H156.552ZM183.718 269C181.822 269 180.334 268.472 179.254 267.416C178.198 266.36 177.67 264.908 177.67 263.06V253.268H172.306V249.2H177.67V243.62H182.206V249.2H189.802V253.268H182.206V263.06C182.206 264.308 182.818 264.932 184.042 264.932H189.442V269H183.718ZM196.088 269L193.064 249.2H196.808L198.464 261.332C198.56 262.028 198.644 262.796 198.716 263.636C198.812 264.476 198.884 265.172 198.932 265.724C199.004 265.172 199.1 264.476 199.22 263.636C199.34 262.796 199.448 262.028 199.544 261.332L201.416 249.2H204.908L206.744 261.332C206.84 262.028 206.948 262.808 207.068 263.672C207.188 264.512 207.284 265.208 207.356 265.76C207.404 265.184 207.476 264.476 207.572 263.636C207.692 262.772 207.788 262.004 207.86 261.332L209.624 249.2H213.224L210.128 269H205.484L203.756 256.796C203.66 256.124 203.552 255.38 203.432 254.564C203.312 253.724 203.216 253.04 203.144 252.512C203.072 253.04 202.976 253.724 202.856 254.564C202.76 255.38 202.652 256.124 202.532 256.796L200.732 269H196.088ZM222.534 269.36C220.494 269.36 218.886 268.82 217.71 267.74C216.534 266.66 215.946 265.208 215.946 263.384C215.946 261.44 216.594 259.94 217.89 258.884C219.186 257.828 221.022 257.3 223.398 257.3H228.33V255.608C228.33 254.648 228.018 253.904 227.394 253.376C226.77 252.824 225.918 252.548 224.838 252.548C223.854 252.548 223.038 252.764 222.39 253.196C221.742 253.628 221.358 254.216 221.238 254.96H216.846C217.062 253.088 217.902 251.6 219.366 250.496C220.83 249.392 222.702 248.84 224.982 248.84C227.406 248.84 229.314 249.452 230.706 250.676C232.122 251.876 232.83 253.508 232.83 255.572V269H228.474V265.544H227.754L228.474 264.572C228.474 266.036 227.934 267.2 226.854 268.064C225.774 268.928 224.334 269.36 222.534 269.36ZM224.01 265.976C225.282 265.976 226.314 265.652 227.106 265.004C227.922 264.356 228.33 263.516 228.33 262.484V260.072H223.47C222.558 260.072 221.826 260.336 221.274 260.864C220.722 261.392 220.446 262.088 220.446 262.952C220.446 263.888 220.758 264.632 221.382 265.184C222.03 265.712 222.906 265.976 224.01 265.976ZM238.9 269V249.2H243.148V252.98H244.264L242.932 255.284C242.932 253.148 243.412 251.54 244.372 250.46C245.332 249.38 246.748 248.84 248.62 248.84C250.756 248.84 252.436 249.5 253.66 250.82C254.884 252.14 255.496 253.964 255.496 256.292V257.732H250.78V256.616C250.78 255.344 250.444 254.36 249.772 253.664C249.124 252.968 248.224 252.62 247.072 252.62C245.896 252.62 244.984 252.968 244.336 253.664C243.712 254.36 243.4 255.344 243.4 256.616V269H238.9ZM267.938 269.36C266.258 269.36 264.794 269.036 263.546 268.388C262.298 267.74 261.326 266.84 260.63 265.688C259.958 264.512 259.622 263.144 259.622 261.584V256.616C259.622 255.056 259.958 253.7 260.63 252.548C261.326 251.372 262.298 250.46 263.546 249.812C264.794 249.164 266.258 248.84 267.938 248.84C269.594 248.84 271.034 249.164 272.258 249.812C273.506 250.46 274.466 251.372 275.138 252.548C275.834 253.7 276.182 255.056 276.182 256.616V260.18H263.978V261.584C263.978 262.976 264.314 264.032 264.986 264.752C265.658 265.448 266.654 265.796 267.974 265.796C268.982 265.796 269.798 265.628 270.422 265.292C271.046 264.932 271.442 264.416 271.61 263.744H276.038C275.702 265.448 274.79 266.816 273.302 267.848C271.838 268.856 270.05 269.36 267.938 269.36ZM271.826 257.66V256.58C271.826 255.212 271.502 254.168 270.854 253.448C270.206 252.704 269.234 252.332 267.938 252.332C266.642 252.332 265.658 252.704 264.986 253.448C264.314 254.192 263.978 255.248 263.978 256.616V257.372L272.15 257.3L271.826 257.66ZM303.441 269V242.72H319.209V246.644H307.869V253.484H317.949V257.372H307.869V265.076H319.209V269H303.441ZM324.631 269V249.2H329.023V252.98H330.247L329.023 254.024C329.023 252.392 329.491 251.12 330.427 250.208C331.387 249.296 332.695 248.84 334.351 248.84C336.295 248.84 337.843 249.488 338.995 250.784C340.171 252.08 340.759 253.82 340.759 256.004V269H336.259V256.472C336.259 255.272 335.947 254.348 335.323 253.7C334.699 253.052 333.823 252.728 332.695 252.728C331.591 252.728 330.715 253.064 330.067 253.736C329.443 254.408 329.131 255.368 329.131 256.616V269H324.631ZM348.917 275.48V271.736H354.785C355.793 271.736 356.549 271.484 357.053 270.98C357.557 270.5 357.809 269.804 357.809 268.892V267.416L357.881 263.708H356.909L357.881 262.736C357.881 264.344 357.401 265.604 356.441 266.516C355.505 267.404 354.233 267.848 352.625 267.848C350.609 267.848 349.001 267.164 347.801 265.796C346.625 264.428 346.037 262.58 346.037 260.252V256.4C346.037 254.096 346.625 252.26 347.801 250.892C349.001 249.524 350.609 248.84 352.625 248.84C354.233 248.84 355.505 249.296 356.441 250.208C357.401 251.096 357.881 252.344 357.881 253.952L356.909 252.98H357.881L357.773 249.2H362.273V269C362.273 270.992 361.613 272.564 360.293 273.716C358.973 274.892 357.161 275.48 354.857 275.48H348.917ZM354.137 263.96C355.289 263.96 356.177 263.624 356.801 262.952C357.449 262.256 357.773 261.296 357.773 260.072V256.616C357.773 255.392 357.449 254.444 356.801 253.772C356.177 253.076 355.289 252.728 354.137 252.728C352.985 252.728 352.097 253.064 351.473 253.736C350.849 254.408 350.537 255.368 350.537 256.616V260.072C350.537 261.32 350.849 262.28 351.473 262.952C352.097 263.624 352.985 263.96 354.137 263.96ZM367.767 269V264.896H374.679V253.268H368.667V249.2H378.999V264.896H385.119V269H367.767ZM376.479 245.888C375.567 245.888 374.847 245.66 374.319 245.204C373.791 244.724 373.527 244.088 373.527 243.296C373.527 242.504 373.791 241.88 374.319 241.424C374.847 240.944 375.567 240.704 376.479 240.704C377.391 240.704 378.111 240.944 378.639 241.424C379.167 241.88 379.431 242.504 379.431 243.296C379.431 244.088 379.167 244.724 378.639 245.204C378.111 245.66 377.391 245.888 376.479 245.888ZM389.389 269V249.2H393.781V252.98H395.005L393.781 254.024C393.781 252.392 394.249 251.12 395.185 250.208C396.145 249.296 397.453 248.84 399.109 248.84C401.053 248.84 402.601 249.488 403.753 250.784C404.929 252.08 405.517 253.82 405.517 256.004V269H401.017V256.472C401.017 255.272 400.705 254.348 400.081 253.7C399.457 253.052 398.581 252.728 397.453 252.728C396.349 252.728 395.473 253.064 394.825 253.736C394.201 254.408 393.889 255.368 393.889 256.616V269H389.389ZM419.039 269.36C417.359 269.36 415.895 269.036 414.647 268.388C413.399 267.74 412.427 266.84 411.731 265.688C411.059 264.512 410.723 263.144 410.723 261.584V256.616C410.723 255.056 411.059 253.7 411.731 252.548C412.427 251.372 413.399 250.46 414.647 249.812C415.895 249.164 417.359 248.84 419.039 248.84C420.695 248.84 422.135 249.164 423.359 249.812C424.607 250.46 425.567 251.372 426.239 252.548C426.935 253.7 427.283 255.056 427.283 256.616V260.18H415.079V261.584C415.079 262.976 415.415 264.032 416.087 264.752C416.759 265.448 417.755 265.796 419.075 265.796C420.083 265.796 420.899 265.628 421.523 265.292C422.147 264.932 422.543 264.416 422.711 263.744H427.139C426.803 265.448 425.891 266.816 424.403 267.848C422.939 268.856 421.151 269.36 419.039 269.36ZM422.927 257.66V256.58C422.927 255.212 422.603 254.168 421.955 253.448C421.307 252.704 420.335 252.332 419.039 252.332C417.743 252.332 416.759 252.704 416.087 253.448C415.415 254.192 415.079 255.248 415.079 256.616V257.372L423.251 257.3L422.927 257.66ZM440.625 269.36C438.945 269.36 437.481 269.036 436.233 268.388C434.985 267.74 434.013 266.84 433.317 265.688C432.645 264.512 432.309 263.144 432.309 261.584V256.616C432.309 255.056 432.645 253.7 433.317 252.548C434.013 251.372 434.985 250.46 436.233 249.812C437.481 249.164 438.945 248.84 440.625 248.84C442.281 248.84 443.721 249.164 444.945 249.812C446.193 250.46 447.153 251.372 447.825 252.548C448.521 253.7 448.869 255.056 448.869 256.616V260.18H436.665V261.584C436.665 262.976 437.001 264.032 437.673 264.752C438.345 265.448 439.341 265.796 440.661 265.796C441.669 265.796 442.485 265.628 443.109 265.292C443.733 264.932 444.129 264.416 444.297 263.744H448.725C448.389 265.448 447.477 266.816 445.989 267.848C444.525 268.856 442.737 269.36 440.625 269.36ZM444.513 257.66V256.58C444.513 255.212 444.189 254.168 443.541 253.448C442.893 252.704 441.921 252.332 440.625 252.332C439.329 252.332 438.345 252.704 437.673 253.448C437.001 254.192 436.665 255.248 436.665 256.616V257.372L444.837 257.3L444.513 257.66ZM454.759 269V249.2H459.007V252.98H460.123L458.791 255.284C458.791 253.148 459.271 251.54 460.231 250.46C461.191 249.38 462.607 248.84 464.479 248.84C466.615 248.84 468.295 249.5 469.519 250.82C470.743 252.14 471.355 253.964 471.355 256.292V257.732H466.639V256.616C466.639 255.344 466.303 254.36 465.631 253.664C464.983 252.968 464.083 252.62 462.931 252.62C461.755 252.62 460.843 252.968 460.195 253.664C459.571 254.36 459.259 255.344 459.259 256.616V269H454.759ZM507.039 269.36C505.407 269.36 504.111 268.904 503.151 267.992C502.191 267.056 501.711 265.784 501.711 264.176L502.719 265.22H501.711V269H497.319V242.72H501.819V248.264L501.675 252.98H502.719L501.711 254.024C501.711 252.416 502.191 251.156 503.151 250.244C504.111 249.308 505.407 248.84 507.039 248.84C509.031 248.84 510.627 249.524 511.827 250.892C513.027 252.26 513.627 254.108 513.627 256.436V261.8C513.627 264.104 513.027 265.94 511.827 267.308C510.627 268.676 509.031 269.36 507.039 269.36ZM505.455 265.472C506.607 265.472 507.507 265.136 508.155 264.464C508.803 263.792 509.127 262.832 509.127 261.584V256.616C509.127 255.368 508.803 254.408 508.155 253.736C507.507 253.064 506.607 252.728 505.455 252.728C504.327 252.728 503.439 253.076 502.791 253.772C502.143 254.444 501.819 255.392 501.819 256.616V261.584C501.819 262.808 502.143 263.768 502.791 264.464C503.439 265.136 504.327 265.472 505.455 265.472ZM524.737 269.36C522.697 269.36 521.089 268.82 519.913 267.74C518.737 266.66 518.149 265.208 518.149 263.384C518.149 261.44 518.797 259.94 520.093 258.884C521.389 257.828 523.225 257.3 525.601 257.3H530.533V255.608C530.533 254.648 530.221 253.904 529.597 253.376C528.973 252.824 528.121 252.548 527.041 252.548C526.057 252.548 525.241 252.764 524.593 253.196C523.945 253.628 523.561 254.216 523.441 254.96H519.049C519.265 253.088 520.105 251.6 521.569 250.496C523.033 249.392 524.905 248.84 527.185 248.84C529.609 248.84 531.517 249.452 532.909 250.676C534.325 251.876 535.033 253.508 535.033 255.572V269H530.677V265.544H529.957L530.677 264.572C530.677 266.036 530.137 267.2 529.057 268.064C527.977 268.928 526.537 269.36 524.737 269.36ZM526.213 265.976C527.485 265.976 528.517 265.652 529.309 265.004C530.125 264.356 530.533 263.516 530.533 262.484V260.072H525.673C524.761 260.072 524.029 260.336 523.477 260.864C522.925 261.392 522.649 262.088 522.649 262.952C522.649 263.888 522.961 264.632 523.585 265.184C524.233 265.712 525.109 265.976 526.213 265.976ZM547.763 269.324C546.251 269.324 544.931 269.084 543.803 268.604C542.675 268.124 541.787 267.464 541.139 266.624C540.515 265.76 540.179 264.752 540.131 263.6H544.631C544.679 264.224 544.979 264.728 545.531 265.112C546.107 265.496 546.851 265.688 547.763 265.688H549.347C550.451 265.688 551.279 265.472 551.831 265.04C552.383 264.608 552.659 264.02 552.659 263.276C552.659 262.58 552.407 262.04 551.903 261.656C551.423 261.248 550.667 260.984 549.635 260.864L547.187 260.504C544.931 260.192 543.275 259.592 542.219 258.704C541.163 257.816 540.635 256.484 540.635 254.708C540.635 252.86 541.259 251.432 542.507 250.424C543.755 249.392 545.591 248.876 548.015 248.876H549.383C551.591 248.876 553.355 249.368 554.675 250.352C555.995 251.336 556.703 252.656 556.799 254.312H552.299C552.227 253.784 551.927 253.352 551.399 253.016C550.895 252.68 550.223 252.512 549.383 252.512H548.015C546.983 252.512 546.227 252.704 545.747 253.088C545.291 253.448 545.063 253.988 545.063 254.708C545.063 255.38 545.267 255.884 545.675 256.22C546.083 256.532 546.743 256.76 547.655 256.904L550.211 257.264C552.563 257.6 554.291 258.236 555.395 259.172C556.523 260.084 557.087 261.44 557.087 263.24C557.087 265.16 556.427 266.66 555.107 267.74C553.811 268.796 551.891 269.324 549.347 269.324H547.763ZM570.141 269.36C568.461 269.36 566.997 269.036 565.749 268.388C564.501 267.74 563.529 266.84 562.833 265.688C562.161 264.512 561.825 263.144 561.825 261.584V256.616C561.825 255.056 562.161 253.7 562.833 252.548C563.529 251.372 564.501 250.46 565.749 249.812C566.997 249.164 568.461 248.84 570.141 248.84C571.797 248.84 573.237 249.164 574.461 249.812C575.709 250.46 576.669 251.372 577.341 252.548C578.037 253.7 578.385 255.056 578.385 256.616V260.18H566.181V261.584C566.181 262.976 566.517 264.032 567.189 264.752C567.861 265.448 568.857 265.796 570.177 265.796C571.185 265.796 572.001 265.628 572.625 265.292C573.249 264.932 573.645 264.416 573.813 263.744H578.241C577.905 265.448 576.993 266.816 575.505 267.848C574.041 268.856 572.253 269.36 570.141 269.36ZM574.029 257.66V256.58C574.029 255.212 573.705 254.168 573.057 253.448C572.409 252.704 571.437 252.332 570.141 252.332C568.845 252.332 567.861 252.704 567.189 253.448C566.517 254.192 566.181 255.248 566.181 256.616V257.372L574.353 257.3L574.029 257.66ZM589.999 269.36C588.031 269.36 586.435 268.676 585.211 267.308C584.011 265.94 583.411 264.104 583.411 261.8V256.436C583.411 254.108 584.011 252.26 585.211 250.892C586.411 249.524 588.007 248.84 589.999 248.84C591.631 248.84 592.927 249.308 593.887 250.244C594.847 251.156 595.327 252.416 595.327 254.024L594.319 252.98H595.363L595.219 248.264V242.72H599.719V269H595.327V265.22H594.319L595.327 264.176C595.327 265.784 594.847 267.056 593.887 267.992C592.927 268.904 591.631 269.36 589.999 269.36ZM591.583 265.472C592.735 265.472 593.623 265.136 594.247 264.464C594.895 263.768 595.219 262.808 595.219 261.584V256.616C595.219 255.392 594.895 254.444 594.247 253.772C593.623 253.076 592.735 252.728 591.583 252.728C590.431 252.728 589.531 253.064 588.883 253.736C588.235 254.408 587.911 255.368 587.911 256.616V261.584C587.911 262.832 588.235 263.792 588.883 264.464C589.531 265.136 590.431 265.472 591.583 265.472ZM626.799 269V264.896H633.711V253.268H627.699V249.2H638.031V264.896H644.151V269H626.799ZM635.511 245.888C634.599 245.888 633.879 245.66 633.351 245.204C632.823 244.724 632.559 244.088 632.559 243.296C632.559 242.504 632.823 241.88 633.351 241.424C633.879 240.944 634.599 240.704 635.511 240.704C636.423 240.704 637.143 240.944 637.671 241.424C638.199 241.88 638.463 242.504 638.463 243.296C638.463 244.088 638.199 244.724 637.671 245.204C637.143 245.66 636.423 245.888 635.511 245.888ZM648.42 269V249.2H652.812V252.98H654.036L652.812 254.024C652.812 252.392 653.28 251.12 654.216 250.208C655.176 249.296 656.484 248.84 658.14 248.84C660.084 248.84 661.632 249.488 662.784 250.784C663.96 252.08 664.548 253.82 664.548 256.004V269H660.048V256.472C660.048 255.272 659.736 254.348 659.112 253.7C658.488 253.052 657.612 252.728 656.484 252.728C655.38 252.728 654.504 253.064 653.856 253.736C653.232 254.408 652.92 255.368 652.92 256.616V269H648.42ZM699.692 269.36C697.892 269.36 696.332 269.06 695.012 268.46C693.692 267.86 692.672 267.008 691.952 265.904C691.256 264.776 690.896 263.456 690.872 261.944H695.372C695.372 263.024 695.756 263.876 696.524 264.5C697.316 265.1 698.384 265.4 699.728 265.4C701.024 265.4 702.032 265.1 702.752 264.5C703.496 263.9 703.868 263.072 703.868 262.016C703.868 261.128 703.604 260.36 703.076 259.712C702.572 259.04 701.84 258.584 700.88 258.344L697.856 257.516C695.792 256.988 694.196 256.04 693.068 254.672C691.964 253.304 691.412 251.648 691.412 249.704C691.412 248.216 691.748 246.92 692.42 245.816C693.092 244.712 694.04 243.86 695.264 243.26C696.512 242.66 697.976 242.36 699.656 242.36C702.2 242.36 704.216 243.02 705.704 244.34C707.192 245.636 707.948 247.388 707.972 249.596H703.472C703.472 248.564 703.136 247.76 702.464 247.184C701.792 246.584 700.844 246.284 699.62 246.284C698.444 246.284 697.532 246.56 696.884 247.112C696.236 247.664 695.912 248.444 695.912 249.452C695.912 250.364 696.152 251.144 696.632 251.792C697.136 252.416 697.856 252.86 698.792 253.124L701.924 253.988C704.012 254.516 705.608 255.464 706.712 256.832C707.816 258.176 708.368 259.844 708.368 261.836C708.368 263.324 708.008 264.644 707.288 265.796C706.568 266.924 705.56 267.8 704.264 268.424C702.968 269.048 701.444 269.36 699.692 269.36ZM721.242 269.36C719.562 269.36 718.098 269.036 716.85 268.388C715.602 267.74 714.63 266.84 713.934 265.688C713.262 264.512 712.926 263.144 712.926 261.584V256.616C712.926 255.056 713.262 253.7 713.934 252.548C714.63 251.372 715.602 250.46 716.85 249.812C718.098 249.164 719.562 248.84 721.242 248.84C722.898 248.84 724.338 249.164 725.562 249.812C726.81 250.46 727.77 251.372 728.442 252.548C729.138 253.7 729.486 255.056 729.486 256.616V260.18H717.282V261.584C717.282 262.976 717.618 264.032 718.29 264.752C718.962 265.448 719.958 265.796 721.278 265.796C722.286 265.796 723.102 265.628 723.726 265.292C724.35 264.932 724.746 264.416 724.914 263.744H729.342C729.006 265.448 728.094 266.816 726.606 267.848C725.142 268.856 723.354 269.36 721.242 269.36ZM725.13 257.66V256.58C725.13 255.212 724.806 254.168 724.158 253.448C723.51 252.704 722.538 252.332 721.242 252.332C719.946 252.332 718.962 252.704 718.29 253.448C717.618 254.192 717.282 255.248 717.282 256.616V257.372L725.454 257.3L725.13 257.66ZM735.376 269V249.2H739.624V252.98H740.74L739.408 255.284C739.408 253.148 739.888 251.54 740.848 250.46C741.808 249.38 743.224 248.84 745.096 248.84C747.232 248.84 748.912 249.5 750.136 250.82C751.36 252.14 751.972 253.964 751.972 256.292V257.732H747.256V256.616C747.256 255.344 746.92 254.36 746.248 253.664C745.6 252.968 744.7 252.62 743.548 252.62C742.372 252.62 741.46 252.968 740.812 253.664C740.188 254.36 739.876 255.344 739.876 256.616V269H735.376ZM766.07 269.36C764.438 269.36 763.142 268.904 762.182 267.992C761.222 267.056 760.742 265.784 760.742 264.176L761.75 265.22H760.742V269H756.35V242.72H760.85V248.264L760.706 252.98H761.75L760.742 254.024C760.742 252.416 761.222 251.156 762.182 250.244C763.142 249.308 764.438 248.84 766.07 248.84C768.062 248.84 769.658 249.524 770.858 250.892C772.058 252.26 772.658 254.108 772.658 256.436V261.8C772.658 264.104 772.058 265.94 770.858 267.308C769.658 268.676 768.062 269.36 766.07 269.36ZM764.486 265.472C765.638 265.472 766.538 265.136 767.186 264.464C767.834 263.792 768.158 262.832 768.158 261.584V256.616C768.158 255.368 767.834 254.408 767.186 253.736C766.538 253.064 765.638 252.728 764.486 252.728C763.358 252.728 762.47 253.076 761.822 253.772C761.174 254.444 760.85 255.392 760.85 256.616V261.584C760.85 262.808 761.174 263.768 761.822 264.464C762.47 265.136 763.358 265.472 764.486 265.472ZM777.9 269V264.896H784.812V253.268H778.8V249.2H789.132V264.896H795.252V269H777.9ZM786.612 245.888C785.7 245.888 784.98 245.66 784.452 245.204C783.924 244.724 783.66 244.088 783.66 243.296C783.66 242.504 783.924 241.88 784.452 241.424C784.98 240.944 785.7 240.704 786.612 240.704C787.524 240.704 788.244 240.944 788.772 241.424C789.3 241.88 789.564 242.504 789.564 243.296C789.564 244.088 789.3 244.724 788.772 245.204C788.244 245.66 787.524 245.888 786.612 245.888ZM805.354 269.36C803.314 269.36 801.706 268.82 800.53 267.74C799.354 266.66 798.766 265.208 798.766 263.384C798.766 261.44 799.414 259.94 800.71 258.884C802.006 257.828 803.842 257.3 806.218 257.3H811.15V255.608C811.15 254.648 810.838 253.904 810.214 253.376C809.59 252.824 808.738 252.548 807.658 252.548C806.674 252.548 805.858 252.764 805.21 253.196C804.562 253.628 804.178 254.216 804.058 254.96H799.666C799.882 253.088 800.722 251.6 802.186 250.496C803.65 249.392 805.522 248.84 807.802 248.84C810.226 248.84 812.134 249.452 813.526 250.676C814.942 251.876 815.65 253.508 815.65 255.572V269H811.294V265.544H810.574L811.294 264.572C811.294 266.036 810.754 267.2 809.674 268.064C808.594 268.928 807.154 269.36 805.354 269.36ZM806.83 265.976C808.102 265.976 809.134 265.652 809.926 265.004C810.742 264.356 811.15 263.516 811.15 262.484V260.072H806.29C805.378 260.072 804.646 260.336 804.094 260.864C803.542 261.392 803.266 262.088 803.266 262.952C803.266 263.888 803.578 264.632 804.202 265.184C804.85 265.712 805.726 265.976 806.83 265.976ZM820.496 273.968V269.9H837.776V273.968H820.496Z" fill="black" fill-opacity="0.7"/>
</svg>
