<svg width="1200" height="243" viewBox="0 0 1200 243" fill="none" xmlns="http://www.w3.org/2000/svg">
<rect width="1200" height="243" rx="6" fill="url(#paint0_linear_97_18)"/>
<path d="M126.912 157.695V84.695H141.913V112.695H158.713V84.695H173.713V157.695H158.713V126.695H141.913V157.695H126.912ZM187.273 157.695V144.095H206.273V116.195H189.773V102.695H220.273V144.095H236.273V157.695H187.273ZM212.273 93.995C209.54 93.995 207.34 93.295 205.673 91.895C204.073 90.495 203.273 88.595 203.273 86.195C203.273 83.795 204.073 81.895 205.673 80.495C207.34 79.095 209.54 78.395 212.273 78.395C215.007 78.395 217.173 79.095 218.773 80.495C220.44 81.895 221.273 83.795 221.273 86.195C221.273 88.595 220.44 90.495 218.773 91.895C217.173 93.295 215.007 93.995 212.273 93.995ZM254.234 173.695L262.234 142.595H280.234L267.234 173.695H254.234ZM368.156 157.695V144.695H382.656V97.695H368.156V84.695H412.156V97.695H397.656V144.695H412.156V157.695H368.156ZM433.617 111.195L441.617 80.095H459.617L446.617 111.195H433.617ZM484.278 157.695V102.695H496.078V110.695H498.478L496.578 112.095C496.578 108.962 497.478 106.462 499.278 104.595C501.078 102.662 503.311 101.695 505.978 101.695C508.845 101.695 511.078 102.928 512.678 105.395C514.278 107.862 515.078 111.128 515.078 115.195L513.278 110.695H516.078L515.178 112.095C515.178 108.962 516.045 106.462 517.778 104.595C519.511 102.662 521.845 101.695 524.778 101.695C528.111 101.695 530.811 102.962 532.878 105.495C534.945 107.962 535.978 111.362 535.978 115.695V157.695H523.078V116.695C523.078 115.162 522.745 113.995 522.078 113.195C521.411 112.328 520.445 111.895 519.178 111.895C517.911 111.895 516.945 112.328 516.278 113.195C515.611 113.995 515.278 115.162 515.278 116.695V157.695H504.978V116.695C504.978 115.162 504.645 113.995 503.978 113.195C503.311 112.328 502.345 111.895 501.078 111.895C499.811 111.895 498.845 112.328 498.178 113.195C497.511 113.995 497.178 115.162 497.178 116.695V157.695H484.278ZM604.2 157.695V84.695H621.1L627.8 107.695C628.533 110.095 629.067 112.195 629.4 113.995C629.8 115.795 630.033 117.062 630.1 117.795C630.167 117.062 630.367 115.795 630.7 113.995C631.1 112.195 631.633 110.095 632.3 107.695L638.9 84.695H655.8V157.695H642.1V137.695C642.1 134.028 642.167 130.195 642.3 126.195C642.5 122.128 642.733 118.095 643 114.095C643.267 110.095 643.567 106.362 643.9 102.895C644.233 99.3617 644.533 96.295 644.8 93.695L636.4 126.695H623.7L614.9 93.695C615.233 96.1617 615.567 99.1283 615.9 102.595C616.233 105.995 616.533 109.695 616.8 113.695C617.133 117.628 617.4 121.662 617.6 125.795C617.8 129.928 617.9 133.895 617.9 137.695V157.695H604.2ZM666.961 157.695V144.095H685.961V116.195H669.461V102.695H699.961V144.095H715.961V157.695H666.961ZM691.961 93.995C689.228 93.995 687.028 93.295 685.361 91.895C683.761 90.495 682.961 88.595 682.961 86.195C682.961 83.795 683.761 81.895 685.361 80.495C687.028 79.095 689.228 78.395 691.961 78.395C694.694 78.395 696.861 79.095 698.461 80.495C700.128 81.895 700.961 83.795 700.961 86.195C700.961 88.595 700.128 90.495 698.461 91.895C696.861 93.295 694.694 93.995 691.961 93.995ZM750.222 158.695C745.355 158.695 741.089 157.795 737.422 155.995C733.755 154.128 730.922 151.562 728.922 148.295C726.922 144.962 725.922 141.095 725.922 136.695V123.695C725.922 119.228 726.922 115.362 728.922 112.095C730.922 108.828 733.755 106.295 737.422 104.495C741.089 102.628 745.355 101.695 750.222 101.695C757.489 101.695 763.289 103.528 767.622 107.195C771.955 110.862 774.255 115.862 774.522 122.195H759.522C759.322 119.862 758.389 118.028 756.722 116.695C755.122 115.362 752.955 114.695 750.222 114.695C747.222 114.695 744.922 115.462 743.322 116.995C741.722 118.528 740.922 120.762 740.922 123.695V136.695C740.922 139.562 741.722 141.795 743.322 143.395C744.922 144.928 747.222 145.695 750.222 145.695C752.955 145.695 755.122 145.062 756.722 143.795C758.389 142.462 759.322 140.595 759.522 138.195H774.522C774.255 144.528 771.955 149.528 767.622 153.195C763.289 156.862 757.489 158.695 750.222 158.695ZM786.483 157.695V84.695H801.483V102.695L800.983 113.195H805.383L800.983 116.695C800.983 112.028 802.316 108.362 804.983 105.695C807.649 103.028 811.249 101.695 815.783 101.695C821.116 101.695 825.383 103.562 828.583 107.295C831.849 111.028 833.483 115.995 833.483 122.195V157.695H818.483V123.695C818.483 120.828 817.716 118.628 816.183 117.095C814.716 115.495 812.616 114.695 809.883 114.695C807.216 114.695 805.149 115.495 803.683 117.095C802.216 118.628 801.483 120.828 801.483 123.695V157.695H786.483ZM862.744 158.695C857.21 158.695 852.81 157.195 849.544 154.195C846.344 151.195 844.744 147.128 844.744 141.995C844.744 136.462 846.644 132.228 850.444 129.295C854.31 126.295 859.844 124.795 867.044 124.795H878.444V120.695C878.444 118.562 877.677 116.862 876.144 115.595C874.677 114.328 872.677 113.695 870.144 113.695C867.81 113.695 865.877 114.228 864.344 115.295C862.81 116.362 861.877 117.828 861.544 119.695H847.044C847.644 114.162 850.044 109.795 854.244 106.595C858.51 103.328 863.977 101.695 870.644 101.695C877.644 101.695 883.177 103.428 887.244 106.895C891.377 110.295 893.444 114.895 893.444 120.695V157.695H878.944V148.695H876.544L879.044 145.195C879.044 149.328 877.544 152.628 874.544 155.095C871.61 157.495 867.677 158.695 862.744 158.695ZM868.344 147.695C871.277 147.695 873.677 146.928 875.544 145.395C877.477 143.795 878.444 141.728 878.444 139.195V133.295H867.344C865.077 133.295 863.244 133.962 861.844 135.295C860.444 136.562 859.744 138.262 859.744 140.395C859.744 142.662 860.51 144.462 862.044 145.795C863.577 147.062 865.677 147.695 868.344 147.695ZM929.905 158.695C925.038 158.695 920.771 157.795 917.105 155.995C913.505 154.128 910.705 151.562 908.705 148.295C906.771 144.962 905.805 141.095 905.805 136.695V123.695C905.805 119.295 906.771 115.462 908.705 112.195C910.705 108.862 913.505 106.295 917.105 104.495C920.771 102.628 925.038 101.695 929.905 101.695C934.771 101.695 938.971 102.628 942.505 104.495C946.105 106.295 948.871 108.862 950.805 112.195C952.805 115.462 953.805 119.295 953.805 123.695V133.695H920.105V136.695C920.105 140.162 920.938 142.795 922.605 144.595C924.271 146.328 926.771 147.195 930.105 147.195C932.438 147.195 934.305 146.795 935.705 145.995C937.171 145.195 938.138 144.095 938.605 142.695H953.305C952.105 147.495 949.371 151.362 945.105 154.295C940.905 157.228 935.838 158.695 929.905 158.695ZM939.505 125.995V123.495C939.505 120.095 938.705 117.495 937.105 115.695C935.571 113.895 933.171 112.995 929.905 112.995C926.638 112.995 924.171 113.928 922.505 115.795C920.905 117.662 920.105 120.295 920.105 123.695V125.195L940.505 124.995L939.505 125.995ZM998.766 157.695C994.899 157.695 991.499 156.895 988.566 155.295C985.632 153.628 983.332 151.328 981.666 148.395C980.066 145.462 979.266 142.062 979.266 138.195V98.195H962.266V84.695H994.266V138.195C994.266 139.995 994.799 141.462 995.866 142.595C996.999 143.662 998.466 144.195 1000.27 144.195H1016.27V157.695H998.766ZM1044.13 133.195L1041.83 99.695V84.695H1057.63V99.695L1055.33 133.195H1044.13ZM1048.23 158.195C1045.96 158.195 1044.13 157.562 1042.73 156.295C1041.39 154.962 1040.73 153.262 1040.73 151.195C1040.73 149.062 1041.39 147.362 1042.73 146.095C1044.13 144.828 1045.96 144.195 1048.23 144.195H1051.23C1053.49 144.195 1055.29 144.828 1056.63 146.095C1058.03 147.362 1058.73 149.062 1058.73 151.195C1058.73 153.328 1058.03 155.028 1056.63 156.295C1055.29 157.562 1053.46 158.195 1051.13 158.195H1048.23Z" fill="#1E1E1E"/>
<defs>
<linearGradient id="paint0_linear_97_18" x1="600" y1="0" x2="600" y2="243" gradientUnits="userSpaceOnUse">
<stop stop-color="#EDDD53"/>
<stop offset="0.5" stop-color="#57C785"/>
<stop offset="1" stop-color="#2A7B9B"/>
</linearGradient>
</defs>
</svg>
