<svg width="369" height="46" viewBox="0 0 369 46" fill="none" xmlns="http://www.w3.org/2000/svg">
<path d="M0.88 45.28L17.68 0.159998H23.92L7.12 45.28H0.88Z" fill="#6FFF9D"/>
<path d="M41.3733 40.48C39.1333 40.48 37.1653 40.064 35.4693 39.232C33.8053 38.368 32.5093 37.168 31.5813 35.632C30.6853 34.064 30.2373 32.224 30.2373 30.112V14.848C30.2373 12.704 30.6853 10.864 31.5813 9.328C32.5093 7.792 33.8053 6.608 35.4693 5.776C37.1653 4.912 39.1333 4.48 41.3733 4.48C43.6453 4.48 45.5973 4.912 47.2293 5.776C48.8933 6.608 50.1893 7.792 51.1173 9.328C52.0453 10.864 52.5093 12.704 52.5093 14.848H46.4613C46.4613 13.184 46.0133 11.92 45.1173 11.056C44.2533 10.192 43.0053 9.76 41.3733 9.76C39.7413 9.76 38.4773 10.192 37.5813 11.056C36.6853 11.92 36.2373 13.168 36.2373 14.8V30.112C36.2373 31.744 36.6853 33.008 37.5813 33.904C38.4773 34.8 39.7413 35.248 41.3733 35.248C43.0053 35.248 44.2533 34.8 45.1173 33.904C46.0133 33.008 46.4613 31.744 46.4613 30.112V26.56H40.5093V21.376H52.5093V30.112C52.5093 32.224 52.0453 34.064 51.1173 35.632C50.1893 37.168 48.8933 38.368 47.2293 39.232C45.5973 40.064 43.6453 40.48 41.3733 40.48ZM70.0105 40.48C67.7705 40.48 65.8185 40.048 64.1545 39.184C62.4905 38.32 61.1945 37.12 60.2665 35.584C59.3705 34.016 58.9225 32.192 58.9225 30.112V23.488C58.9225 21.408 59.3705 19.6 60.2665 18.064C61.1945 16.496 62.4905 15.28 64.1545 14.416C65.8185 13.552 67.7705 13.12 70.0105 13.12C72.2185 13.12 74.1385 13.552 75.7705 14.416C77.4345 15.28 78.7145 16.496 79.6105 18.064C80.5385 19.6 81.0025 21.408 81.0025 23.488V28.24H64.7305V30.112C64.7305 31.968 65.1785 33.376 66.0745 34.336C66.9705 35.264 68.2985 35.728 70.0585 35.728C71.4025 35.728 72.4905 35.504 73.3225 35.056C74.1545 34.576 74.6825 33.888 74.9065 32.992H80.8105C80.3625 35.264 79.1465 37.088 77.1625 38.464C75.2105 39.808 72.8265 40.48 70.0105 40.48ZM75.1945 24.88V23.44C75.1945 21.616 74.7625 20.224 73.8985 19.264C73.0345 18.272 71.7385 17.776 70.0105 17.776C68.2825 17.776 66.9705 18.272 66.0745 19.264C65.1785 20.256 64.7305 21.664 64.7305 23.488V24.496L75.6265 24.4L75.1945 24.88ZM101.624 40C99.0958 40 97.1118 39.296 95.6718 37.888C94.2638 36.48 93.5598 34.544 93.5598 32.08V19.024H86.4078V13.6H93.5598V6.16H99.6078V13.6H109.736V19.024H99.6078V32.08C99.6078 33.744 100.424 34.576 102.056 34.576H109.256V40H101.624ZM146.226 40V34.72H153.282V10.24H146.226V4.96H166.386V10.24H159.33V34.72H166.386V40H146.226ZM174.384 40V13.6H180.24V18.64H181.872L180.24 20.032C180.24 17.856 180.864 16.16 182.112 14.944C183.392 13.728 185.136 13.12 187.344 13.12C189.936 13.12 192 13.984 193.536 15.712C195.104 17.44 195.888 19.76 195.888 22.672V40H189.888V23.296C189.888 21.696 189.472 20.464 188.64 19.6C187.808 18.736 186.64 18.304 185.136 18.304C183.664 18.304 182.496 18.752 181.632 19.648C180.8 20.544 180.384 21.824 180.384 23.488V40H174.384ZM239.626 40V10.528H230.458V4.96H254.842V10.528H245.674V40H239.626ZM271.431 40.432C269.191 40.432 267.239 40.016 265.575 39.184C263.943 38.32 262.663 37.12 261.735 35.584C260.839 34.016 260.391 32.176 260.391 30.064V23.536C260.391 21.424 260.839 19.6 261.735 18.064C262.663 16.496 263.943 15.296 265.575 14.464C267.239 13.6 269.191 13.168 271.431 13.168C273.703 13.168 275.655 13.6 277.287 14.464C278.919 15.296 280.183 16.496 281.079 18.064C282.007 19.6 282.471 21.408 282.471 23.488V30.064C282.471 32.176 282.007 34.016 281.079 35.584C280.183 37.12 278.919 38.32 277.287 39.184C275.655 40.016 273.703 40.432 271.431 40.432ZM271.431 35.2C273.031 35.2 274.263 34.768 275.127 33.904C276.023 33.008 276.471 31.728 276.471 30.064V23.536C276.471 21.84 276.023 20.56 275.127 19.696C274.263 18.832 273.031 18.4 271.431 18.4C269.863 18.4 268.631 18.832 267.735 19.696C266.839 20.56 266.391 21.84 266.391 23.536V30.064C266.391 31.728 266.839 33.008 267.735 33.904C268.631 34.768 269.863 35.2 271.431 35.2ZM300.213 40.48C296.853 40.48 294.213 39.552 292.293 37.696C290.373 35.808 289.413 33.248 289.413 30.016V13.6H295.413V29.968C295.413 31.664 295.829 32.976 296.661 33.904C297.493 34.8 298.677 35.248 300.213 35.248C301.717 35.248 302.885 34.8 303.717 33.904C304.581 32.976 305.013 31.664 305.013 29.968V13.6H311.013V30.016C311.013 33.248 310.037 35.808 308.085 37.696C306.133 39.552 303.509 40.48 300.213 40.48ZM329.138 40.48C326.898 40.48 324.93 40.064 323.234 39.232C321.57 38.368 320.274 37.168 319.346 35.632C318.418 34.064 317.954 32.224 317.954 30.112V23.488C317.954 21.344 318.418 19.504 319.346 17.968C320.274 16.432 321.57 15.248 323.234 14.416C324.93 13.552 326.898 13.12 329.138 13.12C332.466 13.12 335.122 13.984 337.106 15.712C339.09 17.408 340.13 19.728 340.226 22.672H334.226C334.13 21.296 333.634 20.24 332.738 19.504C331.874 18.736 330.674 18.352 329.138 18.352C327.538 18.352 326.274 18.8 325.346 19.696C324.418 20.56 323.954 21.808 323.954 23.44V30.112C323.954 31.744 324.418 33.008 325.346 33.904C326.274 34.8 327.538 35.248 329.138 35.248C330.674 35.248 331.874 34.88 332.738 34.144C333.634 33.376 334.13 32.304 334.226 30.928H340.226C340.13 33.872 339.09 36.208 337.106 37.936C335.122 39.632 332.466 40.48 329.138 40.48ZM347.071 40V4.96H353.071V13.6L352.927 18.64H354.559L352.927 20.032C352.927 17.856 353.551 16.16 354.799 14.944C356.079 13.728 357.823 13.12 360.031 13.12C362.623 13.12 364.687 13.984 366.223 15.712C367.791 17.44 368.575 19.76 368.575 22.672V40H362.575V23.296C362.575 21.696 362.159 20.464 361.327 19.6C360.495 18.736 359.327 18.304 357.823 18.304C356.351 18.304 355.183 18.752 354.319 19.648C353.487 20.544 353.071 21.824 353.071 23.488V40H347.071Z" fill="white"/>
</svg>
