<svg width="9016" height="2394" viewBox="0 0 9016 2394" fill="none" xmlns="http://www.w3.org/2000/svg">
<rect width="9016" height="2394" rx="128" fill="#001C0C"/>
<path d="M4383 896.33V1446.59H4274.06V896.33H4383Z" fill="#2CEB7C"/>
<path d="M4065.18 1455.45C4025.79 1455.45 3991.45 1446.83 3962.15 1429.6C3933.1 1412.12 3910.45 1387.99 3894.2 1357.22C3878.19 1326.44 3870.19 1291.36 3870.19 1251.97C3870.19 1212.08 3878.32 1176.88 3894.57 1146.35C3911.06 1115.57 3933.71 1091.44 3962.52 1073.96C3991.32 1056.48 4024.31 1047.74 4061.49 1047.74C4090.29 1047.74 4116.39 1052.67 4139.78 1062.52C4163.17 1072.12 4183.36 1086.03 4200.35 1104.25C4217.33 1122.22 4230.38 1143.52 4239.49 1168.14C4248.85 1192.76 4253.53 1219.96 4253.53 1249.75V1278.93H3908.97V1209.5H4201.09L4151.97 1226.12C4151.97 1206.42 4148.4 1189.43 4141.26 1175.15C4134.12 1160.87 4123.9 1149.92 4110.61 1142.28C4097.56 1134.41 4081.92 1130.47 4063.71 1130.47C4045.73 1130.47 4030.22 1134.41 4017.17 1142.28C4004.12 1149.92 3994.03 1160.87 3986.89 1175.15C3979.75 1189.43 3976.18 1206.42 3976.18 1226.12V1273.39C3976.18 1293.57 3979.75 1311.3 3986.89 1326.57C3994.28 1341.58 4004.86 1353.28 4018.65 1361.65C4032.44 1369.77 4049.06 1373.84 4068.51 1373.84C4082.79 1373.84 4095.34 1371.87 4106.17 1367.93C4117.25 1363.74 4126.49 1357.96 4133.87 1350.57C4141.5 1342.94 4146.92 1334.07 4150.12 1323.98H4249.46C4244.79 1349.83 4233.83 1372.6 4216.6 1392.3C4199.36 1412 4177.7 1427.51 4151.6 1438.83C4125.5 1449.91 4096.7 1455.45 4065.18 1455.45Z" fill="#2CEB7C"/>
<path d="M3626.23 1453.24C3600.38 1453.24 3577.36 1448.93 3557.17 1440.31C3536.98 1431.69 3521.1 1418.77 3509.53 1401.53C3497.96 1384.05 3492.18 1362.39 3492.18 1336.54C3492.18 1314.63 3496.24 1296.41 3504.36 1281.88C3512.49 1267.11 3523.57 1255.29 3537.6 1246.43C3551.88 1237.32 3568.13 1230.42 3586.35 1225.75C3604.81 1221.07 3624.14 1217.87 3644.33 1216.15C3668.21 1213.68 3687.17 1211.34 3701.2 1209.13C3715.23 1206.91 3725.33 1203.71 3731.48 1199.53C3737.64 1195.34 3740.72 1189.06 3740.72 1180.69V1178.11C3740.72 1168.51 3738.13 1160.13 3732.96 1152.99C3727.79 1145.61 3720.4 1139.82 3710.8 1135.64C3701.45 1131.45 3690.12 1129.36 3676.83 1129.36C3663.53 1129.36 3651.71 1131.45 3641.37 1135.64C3631.28 1139.82 3623.28 1145.73 3617.37 1153.36C3611.46 1161 3608.01 1169.86 3607.03 1179.95H3504.73C3506.46 1153.12 3514.33 1129.85 3528.37 1110.16C3542.65 1090.46 3562.59 1075.32 3588.19 1064.73C3613.8 1053.9 3644.45 1048.48 3680.15 1048.48C3706.74 1048.48 3730.5 1051.56 3751.43 1057.71C3772.35 1063.62 3789.96 1072.36 3804.24 1083.94C3818.76 1095.51 3829.72 1109.54 3837.1 1126.04C3844.49 1142.53 3848.18 1161.24 3848.18 1182.17V1446.59H3741.82V1391.56H3740.35C3733.45 1404.37 3724.96 1415.32 3714.86 1424.43C3704.77 1433.54 3692.46 1440.68 3677.93 1445.85C3663.41 1450.77 3646.17 1453.24 3626.23 1453.24ZM3656.51 1377.53C3673.99 1377.53 3689.01 1374.33 3701.57 1367.93C3714.37 1361.53 3724.22 1352.79 3731.11 1341.71C3738.01 1330.63 3741.45 1318.07 3741.45 1304.04V1264.89C3738.25 1266.62 3734.07 1268.34 3728.9 1270.06C3723.73 1271.54 3717.7 1273.02 3710.8 1274.49C3703.91 1275.73 3696.4 1277.08 3688.27 1278.56C3680.15 1280.03 3671.78 1281.39 3663.16 1282.62C3650.61 1284.59 3639.28 1287.67 3629.19 1291.85C3619.09 1295.79 3611.09 1301.21 3605.18 1308.1C3599.27 1314.75 3596.32 1323.24 3596.32 1333.58C3596.32 1342.69 3598.78 1350.57 3603.7 1357.22C3608.63 1363.87 3615.65 1368.91 3624.75 1372.36C3633.86 1375.81 3644.45 1377.53 3656.51 1377.53Z" fill="#2CEB7C"/>
<path d="M3210.55 1229.81V1446.59H3101.6V896.33H3210.55V1158.16H3190.23C3202.54 1123.7 3220.15 1096.86 3243.04 1077.66C3265.94 1058.21 3295.12 1048.48 3330.57 1048.48C3358.39 1048.48 3382.52 1054.51 3402.95 1066.58C3423.39 1078.4 3439.14 1095.75 3450.22 1118.65C3461.55 1141.55 3467.21 1169.49 3467.21 1202.48V1446.59H3358.64V1222.42C3358.64 1196.33 3352.36 1176.51 3339.8 1162.97C3327.49 1149.18 3309.89 1142.28 3286.99 1142.28C3271.97 1142.28 3258.68 1145.36 3247.11 1151.52C3235.53 1157.67 3226.55 1167.27 3220.15 1180.32C3213.75 1193.12 3210.55 1209.62 3210.55 1229.81Z" fill="#2CEB7C"/>
<path d="M2897.9 1455.45C2859 1455.45 2824.78 1446.96 2795.23 1429.97C2765.93 1412.74 2743.04 1388.85 2726.54 1358.33C2710.29 1327.55 2702.17 1292.1 2702.17 1251.97C2702.17 1211.59 2710.29 1176.14 2726.54 1145.61C2743.04 1114.83 2765.93 1090.83 2795.23 1073.59C2824.78 1056.36 2859 1047.74 2897.9 1047.74C2923.5 1047.74 2947.14 1051.56 2968.8 1059.19C2990.47 1066.58 3009.3 1077.16 3025.31 1090.95C3041.56 1104.74 3054.48 1121.11 3064.08 1140.07C3073.68 1158.78 3079.35 1179.58 3081.07 1202.48H2975.82C2974.34 1192.39 2971.51 1183.28 2967.33 1175.15C2963.39 1167.03 2958.22 1160.01 2951.82 1154.1C2945.41 1148.19 2937.78 1143.64 2928.92 1140.44C2920.3 1137.24 2910.45 1135.64 2899.37 1135.64C2881.16 1135.64 2865.52 1140.44 2852.47 1150.04C2839.42 1159.4 2829.33 1172.81 2822.19 1190.29C2815.3 1207.53 2811.85 1228.09 2811.85 1251.97C2811.85 1275.6 2815.3 1296.04 2822.19 1313.27C2829.33 1330.5 2839.42 1343.92 2852.47 1353.52C2865.52 1362.88 2881.16 1367.56 2899.37 1367.56C2910.45 1367.56 2920.3 1365.96 2928.92 1362.76C2937.54 1359.56 2944.92 1355 2951.08 1349.09C2957.48 1343.18 2962.65 1336.17 2966.59 1328.04C2970.53 1319.67 2973.36 1310.32 2975.08 1299.98H3081.07C3079.84 1322.63 3074.42 1343.43 3064.82 1362.39C3055.47 1381.1 3042.66 1397.47 3026.41 1411.5C3010.16 1425.54 2991.08 1436.37 2969.17 1444C2947.51 1451.64 2923.75 1455.45 2897.9 1455.45Z" fill="#2CEB7C"/>
<path d="M2570.84 1446.59V1056.61H2679.79V1446.59H2570.84ZM2625.13 1007.49C2607.16 1007.49 2592.26 1002.07 2580.45 991.241C2568.63 980.162 2562.72 966.251 2562.72 949.51C2562.72 932.768 2568.63 918.981 2580.45 908.148C2592.26 897.069 2607.03 891.529 2624.76 891.529C2642.73 891.529 2657.63 897.069 2669.45 908.148C2681.26 918.981 2687.17 932.768 2687.17 949.51C2687.17 966.251 2681.26 980.162 2669.45 991.241C2657.63 1002.07 2642.86 1007.49 2625.13 1007.49Z" fill="#2CEB7C"/>
<path d="M2453.46 1385.87L2487.12 1403.33C2477.43 1422.04 2454.41 1429.34 2435.71 1419.64C2417.01 1409.95 2409.71 1386.92 2419.41 1368.21C2419.41 1368.21 2419.41 1368.2 2419.42 1368.19C2419.43 1368.16 2419.46 1368.1 2419.5 1368.03C2419.58 1367.87 2419.71 1367.63 2419.88 1367.29C2420.22 1366.62 2420.74 1365.6 2421.43 1364.24C2422.8 1361.51 2424.82 1357.45 2427.36 1352.23C2432.44 1341.76 2439.6 1326.65 2447.78 1308.24C2464.2 1271.3 2484.54 1221.59 2500.67 1169.74C2516.97 1117.34 2528.14 1065.35 2528.01 1023.05C2527.87 980.424 2516.65 957.962 2500.27 947.494L2499.49 947.005C2470.31 929.208 2438.74 926.865 2403.55 937.378C2367.21 948.237 2327.97 972.716 2288.32 1007.25C2286.57 1008.77 2284.83 1010.31 2283.09 1011.86C2283.43 1036.03 2281.13 1060.95 2277.27 1085.53C2262.67 1178.63 2223.27 1281.17 2193.91 1352.03L2191.1 1358.79C2174.68 1398.16 2143.63 1451.25 2110.2 1491.37C2093.68 1511.2 2074.54 1530.35 2054.32 1542.48C2034.91 1554.12 2003.54 1565.12 1973.92 1545.46V1545.46C1946.08 1526.98 1942.51 1493.27 1942.74 1471.97C1943 1447.38 1948.57 1418.9 1956.41 1390.67C1972.21 1333.76 1999.72 1269.16 2026.21 1220.85L2027.31 1218.85C2067.76 1145.51 2131.02 1054.13 2204.08 981.55C2203.2 976.585 2202.12 971.871 2200.83 967.421C2193.71 942.991 2180.72 927.407 2158.5 919.135L2157.44 918.747C2122.36 906.218 2082.42 919.203 2035.12 964.737C1988.49 1009.63 1943.65 1078.32 1904.15 1152.54C1864.97 1226.18 1832.41 1302.59 1809.59 1360.84C1798.21 1389.9 1789.3 1414.3 1783.26 1431.39C1780.23 1439.93 1777.93 1446.63 1776.39 1451.17C1775.62 1453.44 1775.04 1455.17 1774.66 1456.32C1774.47 1456.89 1774.33 1457.31 1774.24 1457.59C1774.2 1457.73 1774.17 1457.82 1774.15 1457.89C1774.14 1457.92 1774.13 1457.94 1774.13 1457.95C1774.12 1457.95 1774.12 1457.96 1774.12 1457.96L1774.12 1457.96C1768.01 1476.72 1748.6 1487.72 1729.36 1483.32C1710.13 1478.92 1697.42 1460.58 1700.07 1441.02L1700.42 1438.43C1715.56 1328.8 1754.66 1198.21 1789.39 1096.14C1806.99 1044.39 1823.69 999.375 1835.98 967.283C1842.13 951.231 1847.19 938.393 1850.72 929.541C1852.49 925.114 1853.87 921.683 1854.82 919.344C1855.3 918.174 1855.66 917.277 1855.91 916.665C1856.04 916.359 1856.14 916.124 1856.2 915.962C1856.24 915.881 1856.26 915.818 1856.28 915.774C1856.29 915.752 1856.3 915.734 1856.3 915.721C1856.31 915.714 1856.31 915.708 1856.31 915.704C1856.32 915.703 1856.85 915.917 1887.74 928.657L1856.31 915.695C1864.34 896.215 1886.64 886.935 1906.11 894.967C1925.59 902.999 1934.86 925.302 1926.83 944.782C1926.83 944.783 1926.83 944.783 1926.83 944.784C1926.83 944.79 1926.83 944.8 1926.82 944.815C1926.81 944.844 1926.79 944.891 1926.76 944.956C1926.71 945.087 1926.62 945.291 1926.51 945.565C1926.29 946.113 1925.95 946.945 1925.5 948.048C1924.61 950.254 1923.28 953.545 1921.57 957.825C1918.15 966.385 1913.22 978.897 1907.21 994.594C1905.76 998.385 1904.24 1002.36 1902.67 1006.51C1927.4 970.222 1954.04 936.893 1982.23 909.755C2036.9 857.133 2106.73 819.608 2183.09 846.887L2184.25 847.305C2225.51 862.398 2252.02 891.099 2266.98 926.174C2303.08 898.537 2341.78 876.2 2381.72 864.265C2433.65 848.752 2488.3 850.804 2539.2 881.858L2540.39 882.591C2590.32 913.802 2604.12 970.397 2604.29 1022.81C2604.46 1076.62 2590.65 1137.31 2573.5 1192.41C2556.19 1248.07 2534.61 1300.72 2517.48 1339.24C2508.89 1358.57 2501.36 1374.47 2495.96 1385.59C2493.25 1391.15 2491.08 1395.53 2489.56 1398.54C2488.81 1400.05 2488.21 1401.21 2487.8 1402.02C2487.59 1402.42 2487.43 1402.73 2487.32 1402.95C2487.26 1403.07 2487.22 1403.15 2487.19 1403.22C2487.17 1403.25 2487.16 1403.27 2487.15 1403.29C2487.14 1403.3 2487.14 1403.31 2487.13 1403.32C2487.13 1403.33 2487.12 1403.33 2453.46 1385.87ZM2196.22 1104.36C2155.37 1154.89 2119.9 1208.95 2094.12 1255.68L2093.09 1257.55C2069.05 1301.38 2043.94 1360.54 2029.91 1411.09C2022.83 1436.59 2019.17 1457.77 2019.01 1472.78C2019.01 1473.37 2019.01 1473.93 2019.01 1474.48C2027.92 1468.21 2039.12 1457.5 2051.6 1442.51C2079.99 1408.44 2107.13 1361.96 2120.7 1329.41L2123.5 1322.68C2149.14 1260.77 2180.2 1179.73 2196.22 1104.36ZM2453.26 1385.77C2452.94 1385.6 2452.62 1385.44 2452.3 1385.27L2453.46 1385.87C2453.4 1385.84 2453.33 1385.81 2453.26 1385.77Z" fill="#2CEB7C"/>
<path d="M7132.83 1455.45C7093.93 1455.45 7059.71 1446.96 7030.16 1429.97C7000.86 1412.74 6977.97 1388.85 6961.47 1358.33C6945.22 1327.55 6937.1 1292.1 6937.1 1251.97C6937.1 1211.59 6945.22 1176.14 6961.47 1145.61C6977.97 1114.83 7000.86 1090.83 7030.16 1073.59C7059.71 1056.36 7093.93 1047.74 7132.83 1047.74C7158.43 1047.74 7182.07 1051.56 7203.73 1059.19C7225.4 1066.58 7244.23 1077.16 7260.24 1090.95C7276.49 1104.74 7289.41 1121.11 7299.01 1140.07C7308.61 1158.78 7314.28 1179.58 7316 1202.48H7210.75C7209.27 1192.39 7206.44 1183.28 7202.26 1175.15C7198.32 1167.03 7193.15 1160.01 7186.75 1154.1C7180.34 1148.19 7172.71 1143.64 7163.85 1140.44C7155.23 1137.24 7145.38 1135.64 7134.3 1135.64C7116.09 1135.64 7100.45 1140.44 7087.4 1150.04C7074.35 1159.4 7064.26 1172.81 7057.12 1190.29C7050.23 1207.53 7046.78 1228.09 7046.78 1251.97C7046.78 1275.6 7050.23 1296.04 7057.12 1313.27C7064.26 1330.5 7074.35 1343.92 7087.4 1353.52C7100.45 1362.88 7116.09 1367.56 7134.3 1367.56C7145.38 1367.56 7155.23 1365.96 7163.85 1362.76C7172.47 1359.56 7179.85 1355 7186.01 1349.09C7192.41 1343.18 7197.58 1336.17 7201.52 1328.04C7205.46 1319.67 7208.29 1310.32 7210.01 1299.98H7316C7314.77 1322.63 7309.35 1343.43 7299.75 1362.39C7290.4 1381.1 7277.59 1397.47 7261.34 1411.5C7245.09 1425.54 7226.01 1436.37 7204.1 1444C7182.44 1451.64 7158.68 1455.45 7132.83 1455.45Z" fill="#2CEB7C"/>
<path d="M6805.77 1446.59V1056.61H6914.72V1446.59H6805.77ZM6860.06 1007.49C6842.09 1007.49 6827.19 1002.07 6815.37 991.241C6803.56 980.162 6797.65 966.251 6797.65 949.51C6797.65 932.768 6803.56 918.981 6815.37 908.148C6827.19 897.069 6841.96 891.529 6859.69 891.529C6877.66 891.529 6892.56 897.069 6904.38 908.148C6916.19 918.981 6922.1 932.768 6922.1 949.51C6922.1 966.251 6916.19 980.162 6904.38 991.241C6892.56 1002.07 6877.79 1007.49 6860.06 1007.49Z" fill="#2CEB7C"/>
<path d="M6543.35 1454.71C6509.37 1454.71 6479.71 1446.22 6454.35 1429.23C6428.99 1412.24 6409.29 1388.49 6395.26 1357.96C6381.47 1327.43 6374.58 1291.85 6374.58 1251.23C6374.58 1211.1 6381.59 1175.89 6395.63 1145.61C6409.91 1115.08 6429.6 1091.32 6454.72 1074.33C6480.08 1057.1 6509.37 1048.48 6542.61 1048.48C6559.6 1048.48 6575.23 1050.82 6589.51 1055.5C6603.79 1059.93 6616.59 1066.7 6627.92 1075.81C6639.24 1084.92 6649.09 1096.49 6657.46 1110.52H6657.83V896.33H6766.41V1446.59H6659.31V1386.76H6658.94C6651.31 1401.78 6641.71 1414.46 6630.13 1424.8C6618.81 1434.89 6605.76 1442.4 6590.99 1447.33C6576.22 1452.25 6560.34 1454.71 6543.35 1454.71ZM6571.42 1366.08C6589.88 1366.08 6605.88 1361.4 6619.42 1352.05C6633.21 1342.45 6643.92 1329.03 6651.55 1311.79C6659.19 1294.56 6663 1274.37 6663 1251.23C6663 1227.84 6659.19 1207.65 6651.55 1190.66C6643.92 1173.43 6633.21 1160.13 6619.42 1150.78C6605.88 1141.18 6589.88 1136.38 6571.42 1136.38C6553.94 1136.38 6538.67 1140.93 6525.62 1150.04C6512.57 1159.15 6502.36 1172.2 6494.97 1189.19C6487.83 1206.17 6484.26 1226.85 6484.26 1251.23C6484.26 1275.6 6487.83 1296.41 6494.97 1313.64C6502.36 1330.63 6512.57 1343.68 6525.62 1352.79C6538.67 1361.65 6553.94 1366.08 6571.42 1366.08Z" fill="#2CEB7C"/>
<path d="M6095.17 1229.81V1446.59H5986.22V1056.61H6093.32V1158.16H6074.85C6087.16 1123.7 6104.77 1096.86 6127.66 1077.66C6150.56 1058.21 6179.74 1048.48 6215.19 1048.48C6243.01 1048.48 6267.14 1054.51 6287.57 1066.58C6308.01 1078.4 6323.76 1095.75 6334.84 1118.65C6346.17 1141.55 6351.83 1169.49 6351.83 1202.48V1446.59H6243.26V1222.42C6243.26 1196.33 6236.98 1176.51 6224.42 1162.97C6212.11 1149.18 6194.51 1142.28 6171.61 1142.28C6156.59 1142.28 6143.3 1145.36 6131.73 1151.52C6120.16 1157.67 6111.17 1167.27 6104.77 1180.32C6098.37 1193.13 6095.17 1209.62 6095.17 1229.81Z" fill="#2CEB7C"/>
<path d="M5725.27 1453.24C5699.42 1453.24 5676.4 1448.93 5656.22 1440.31C5636.03 1431.69 5620.15 1418.77 5608.58 1401.53C5597 1384.05 5591.22 1362.39 5591.22 1336.54C5591.22 1314.63 5595.28 1296.41 5603.41 1281.88C5611.53 1267.11 5622.61 1255.29 5636.64 1246.43C5650.92 1237.32 5667.17 1230.42 5685.39 1225.75C5703.86 1221.07 5723.18 1217.87 5743.37 1216.15C5767.25 1213.68 5786.21 1211.34 5800.24 1209.13C5814.28 1206.91 5824.37 1203.71 5830.53 1199.53C5836.68 1195.34 5839.76 1189.06 5839.76 1180.69V1178.11C5839.76 1168.51 5837.17 1160.13 5832 1152.99C5826.83 1145.61 5819.45 1139.82 5809.84 1135.64C5800.49 1131.45 5789.16 1129.36 5775.87 1129.36C5762.57 1129.36 5750.76 1131.45 5740.42 1135.64C5730.32 1139.82 5722.32 1145.73 5716.41 1153.36C5710.5 1161 5707.06 1169.86 5706.07 1179.95H5603.77C5605.5 1153.12 5613.38 1129.85 5627.41 1110.16C5641.69 1090.46 5661.63 1075.32 5687.24 1064.73C5712.84 1053.9 5743.49 1048.48 5779.19 1048.48C5805.78 1048.48 5829.54 1051.56 5850.47 1057.71C5871.4 1063.62 5889 1072.36 5903.28 1083.94C5917.8 1095.51 5928.76 1109.54 5936.15 1126.04C5943.53 1142.53 5947.22 1161.24 5947.22 1182.17V1446.59H5840.87V1391.56H5839.39C5832.5 1404.37 5824 1415.32 5813.91 1424.43C5803.81 1433.54 5791.5 1440.68 5776.98 1445.85C5762.45 1450.77 5745.22 1453.24 5725.27 1453.24ZM5755.56 1377.53C5773.04 1377.53 5788.06 1374.33 5800.61 1367.93C5813.41 1361.53 5823.26 1352.79 5830.16 1341.71C5837.05 1330.63 5840.5 1318.07 5840.5 1304.04V1264.89C5837.3 1266.62 5833.11 1268.34 5827.94 1270.06C5822.77 1271.54 5816.74 1273.02 5809.84 1274.49C5802.95 1275.73 5795.44 1277.08 5787.32 1278.56C5779.19 1280.03 5770.82 1281.39 5762.21 1282.62C5749.65 1284.59 5738.32 1287.67 5728.23 1291.85C5718.14 1295.79 5710.13 1301.21 5704.22 1308.1C5698.32 1314.75 5695.36 1323.24 5695.36 1333.58C5695.36 1342.69 5697.82 1350.57 5702.75 1357.22C5707.67 1363.87 5714.69 1368.91 5723.8 1372.36C5732.91 1375.81 5743.49 1377.53 5755.56 1377.53Z" fill="#2CEB7C"/>
<path d="M5530.83 1385.87L5564.52 1403.33C5554.82 1422.04 5531.78 1429.34 5513.07 1419.64C5494.35 1409.95 5487.05 1386.92 5496.75 1368.21C5496.75 1368.21 5496.76 1368.2 5496.76 1368.19C5496.78 1368.16 5496.81 1368.1 5496.84 1368.03C5496.92 1367.87 5497.05 1367.63 5497.22 1367.29C5497.56 1366.62 5498.09 1365.6 5498.77 1364.24C5500.14 1361.51 5502.17 1357.45 5504.71 1352.23C5509.8 1341.76 5516.96 1326.65 5525.15 1308.24C5541.58 1271.3 5561.93 1221.59 5578.08 1169.74C5594.39 1117.34 5605.58 1065.35 5605.44 1023.05C5605.31 980.424 5594.07 957.962 5577.68 947.494L5576.9 947.005C5547.7 929.208 5516.1 926.865 5480.88 937.378C5444.51 948.237 5405.24 972.716 5365.55 1007.25C5363.81 1008.77 5362.06 1010.31 5360.32 1011.86C5360.66 1036.03 5358.36 1060.95 5354.5 1085.53C5339.88 1178.63 5300.45 1281.17 5271.06 1352.03L5268.25 1358.79C5251.82 1398.16 5220.74 1451.25 5187.29 1491.37C5170.75 1511.2 5151.6 1530.35 5131.36 1542.48C5111.94 1554.12 5080.53 1565.12 5050.89 1545.46V1545.46C5023.03 1526.98 5019.46 1493.27 5019.68 1471.97C5019.95 1447.38 5025.52 1418.9 5033.37 1390.67C5049.18 1333.76 5076.71 1269.16 5103.23 1220.85L5104.32 1218.85C5144.81 1145.51 5208.12 1054.13 5281.24 981.55C5280.37 976.585 5279.28 971.871 5277.99 967.421C5270.87 942.991 5257.86 927.407 5235.63 919.135L5234.56 918.747C5199.46 906.218 5159.49 919.203 5112.14 964.737C5065.47 1009.63 5020.6 1078.32 4981.06 1152.54C4941.85 1226.18 4909.27 1302.59 4886.43 1360.84C4875.03 1389.9 4866.12 1414.3 4860.07 1431.39C4857.04 1439.93 4854.74 1446.63 4853.2 1451.17C4852.43 1453.44 4851.85 1455.17 4851.47 1456.32C4851.28 1456.89 4851.14 1457.31 4851.05 1457.59C4851 1457.73 4850.97 1457.82 4850.95 1457.89C4850.94 1457.92 4850.93 1457.94 4850.93 1457.95C4850.93 1457.95 4850.93 1457.96 4850.93 1457.96L4850.93 1457.96C4844.8 1476.72 4825.38 1487.72 4806.13 1483.32C4786.88 1478.92 4774.16 1460.58 4776.81 1441.02L4777.16 1438.43C4792.32 1328.8 4831.45 1198.21 4866.2 1096.14C4883.82 1044.39 4900.53 999.375 4912.84 967.283C4919 951.231 4924.06 938.393 4927.59 929.541C4929.36 925.114 4930.75 921.683 4931.7 919.344C4932.17 918.174 4932.54 917.277 4932.79 916.665C4932.91 916.359 4933.01 916.124 4933.08 915.962C4933.11 915.881 4933.14 915.818 4933.15 915.774C4933.16 915.752 4933.17 915.734 4933.18 915.721C4933.18 915.714 4933.18 915.708 4933.18 915.704C4933.19 915.703 4933.72 915.917 4964.64 928.657L4933.19 915.695C4941.22 896.215 4963.54 886.935 4983.03 894.967C5002.52 902.999 5011.8 925.302 5003.77 944.782C5003.77 944.783 5003.77 944.783 5003.76 944.784C5003.76 944.79 5003.76 944.8 5003.75 944.815C5003.74 944.844 5003.72 944.891 5003.69 944.956C5003.64 945.087 5003.56 945.291 5003.44 945.565C5003.22 946.113 5002.88 946.945 5002.43 948.048C5001.54 950.254 5000.21 953.545 4998.5 957.825C4995.08 966.385 4990.14 978.897 4984.13 994.594C4982.67 998.385 4981.15 1002.36 4979.58 1006.51C5004.33 970.222 5030.99 936.893 5059.21 909.755C5113.92 857.133 5183.81 819.608 5260.24 846.887L5261.4 847.305C5302.69 862.398 5329.23 891.099 5344.19 926.174C5380.33 898.537 5419.06 876.2 5459.04 864.265C5511 848.752 5565.7 850.804 5616.65 881.858L5617.84 882.591C5667.81 913.802 5681.62 970.397 5681.78 1022.81C5681.95 1076.62 5668.13 1137.31 5650.97 1192.41C5633.64 1248.07 5612.05 1300.72 5594.91 1339.24C5586.31 1358.57 5578.78 1374.47 5573.37 1385.59C5570.66 1391.15 5568.48 1395.53 5566.97 1398.54C5566.21 1400.05 5565.61 1401.21 5565.2 1402.02C5565 1402.42 5564.83 1402.73 5564.72 1402.95C5564.66 1403.07 5564.62 1403.15 5564.59 1403.22C5564.57 1403.25 5564.56 1403.27 5564.55 1403.29C5564.54 1403.3 5564.54 1403.31 5564.53 1403.32C5564.53 1403.33 5564.53 1403.33 5530.83 1385.87ZM5273.38 1104.36C5232.49 1154.89 5196.99 1208.95 5171.19 1255.68L5170.16 1257.55C5146.1 1301.38 5120.97 1360.54 5106.93 1411.09C5099.84 1436.59 5096.18 1457.77 5096.02 1472.78C5096.02 1473.37 5096.02 1473.93 5096.02 1474.48C5104.94 1468.21 5116.15 1457.5 5128.64 1442.51C5157.05 1408.44 5184.21 1361.96 5197.79 1329.41L5200.59 1322.68C5226.26 1260.77 5257.34 1179.73 5273.38 1104.36ZM5530.64 1385.77C5530.31 1385.6 5529.99 1385.44 5529.67 1385.27L5530.83 1385.87C5530.77 1385.84 5530.7 1385.81 5530.64 1385.77Z" fill="#2CEB7C"/>
</svg>
