<svg width="9016" height="2394" viewBox="0 0 9016 2394" fill="none" xmlns="http://www.w3.org/2000/svg">
<rect width="9016" height="2394" rx="128" fill="white"/>
<path d="M4469.78 833.729V1561H4318.5V833.729H4469.78Z" fill="black"/>
<path d="M4019.43 1571.65C3963.32 1571.65 3915.02 1560.29 3874.54 1537.56C3834.29 1514.6 3803.28 1482.16 3781.5 1440.26C3759.72 1398.12 3748.83 1348.29 3748.83 1290.76C3748.83 1234.65 3759.72 1185.41 3781.5 1143.03C3803.28 1100.65 3833.94 1067.63 3873.47 1043.95C3913.25 1020.28 3959.88 1008.44 4013.39 1008.44C4049.37 1008.44 4082.87 1014.24 4113.89 1025.84C4145.14 1037.21 4172.36 1054.37 4195.56 1077.34C4219 1100.3 4237.23 1129.18 4250.25 1163.98C4263.27 1198.55 4269.78 1239.03 4269.78 1285.43V1326.98H3809.2V1233.23H4127.38C4127.38 1211.45 4122.65 1192.16 4113.18 1175.35C4103.71 1158.54 4090.57 1145.4 4073.76 1135.93C4057.19 1126.22 4037.89 1121.37 4015.87 1121.37C3992.91 1121.37 3972.55 1126.7 3954.79 1137.35C3937.28 1147.77 3923.54 1161.85 3913.6 1179.61C3903.66 1197.13 3898.57 1216.66 3898.33 1238.2V1327.34C3898.33 1354.32 3903.3 1377.64 3913.25 1397.29C3923.43 1416.94 3937.75 1432.09 3956.22 1442.75C3974.68 1453.4 3996.58 1458.73 4021.91 1458.73C4038.72 1458.73 4054.11 1456.36 4068.08 1451.63C4082.04 1446.89 4094 1439.79 4103.94 1430.32C4113.89 1420.85 4121.46 1409.25 4126.67 1395.52L4266.58 1404.75C4259.48 1438.37 4244.92 1467.72 4222.91 1492.82C4201.13 1517.68 4172.95 1537.09 4138.39 1551.06C4104.06 1564.79 4064.41 1571.65 4019.43 1571.65Z" fill="black"/>
<path d="M3396.31 1571.3C3361.51 1571.3 3330.49 1565.26 3303.27 1553.19C3276.04 1540.88 3254.5 1522.77 3238.64 1498.86C3223.01 1474.71 3215.2 1444.64 3215.2 1408.66C3215.2 1378.35 3220.76 1352.9 3231.89 1332.31C3243.02 1311.71 3258.17 1295.14 3277.34 1282.59C3296.52 1270.04 3318.3 1260.57 3342.69 1254.18C3367.31 1247.79 3393.11 1243.29 3420.1 1240.69C3451.82 1237.37 3477.39 1234.3 3496.8 1231.45C3516.22 1228.38 3530.3 1223.88 3539.06 1217.96C3547.82 1212.04 3552.2 1203.28 3552.2 1191.68V1189.55C3552.2 1167.06 3545.1 1149.66 3530.9 1137.35C3516.93 1125.04 3497.04 1118.88 3471.24 1118.88C3444.01 1118.88 3422.35 1124.92 3406.25 1136.99C3390.15 1148.83 3379.5 1163.75 3374.29 1181.74L3234.38 1170.38C3241.48 1137.23 3255.45 1108.59 3276.28 1084.44C3297.11 1060.05 3323.98 1041.35 3356.89 1028.33C3390.03 1015.07 3428.39 1008.44 3471.95 1008.44C3502.25 1008.44 3531.25 1011.99 3558.95 1019.1C3586.88 1026.2 3611.62 1037.21 3633.17 1052.12C3654.95 1067.04 3672.11 1086.21 3684.66 1109.65C3697.21 1132.85 3703.48 1160.67 3703.48 1193.1V1561H3560.01V1485.36H3555.75C3546.99 1502.41 3535.27 1517.44 3520.6 1530.46C3505.92 1543.24 3488.28 1553.31 3467.69 1560.65C3447.09 1567.75 3423.3 1571.3 3396.31 1571.3ZM3439.63 1466.9C3461.88 1466.9 3481.53 1462.52 3498.58 1453.76C3515.63 1444.76 3529 1432.69 3538.71 1417.53C3548.41 1402.38 3553.27 1385.22 3553.27 1366.04V1308.16C3548.53 1311.24 3542.02 1314.08 3533.74 1316.68C3525.69 1319.05 3516.57 1321.3 3506.39 1323.43C3496.21 1325.32 3486.03 1327.1 3475.85 1328.76C3465.67 1330.18 3456.44 1331.48 3448.15 1332.66C3430.4 1335.27 3414.89 1339.41 3401.63 1345.09C3388.38 1350.77 3378.08 1358.47 3370.74 1368.17C3363.4 1377.64 3359.73 1389.48 3359.73 1403.68C3359.73 1424.28 3367.19 1440.02 3382.1 1450.91C3397.25 1461.57 3416.43 1466.9 3439.63 1466.9Z" fill="black"/>
<path d="M2818.02 1245.66V1561H2666.74V833.729H2813.76V1111.78H2820.15C2832.46 1079.59 2852.35 1054.37 2879.81 1036.14C2907.27 1017.68 2941.72 1008.44 2983.15 1008.44C3021.03 1008.44 3054.05 1016.73 3082.23 1033.3C3110.64 1049.64 3132.65 1073.19 3148.28 1103.97C3164.14 1134.51 3171.95 1171.09 3171.72 1213.7V1561H3020.44V1240.69C3020.67 1207.07 3012.15 1180.91 2994.87 1162.21C2977.82 1143.51 2953.91 1134.15 2923.14 1134.15C2902.54 1134.15 2884.31 1138.53 2868.45 1147.29C2852.82 1156.05 2840.51 1168.84 2831.52 1185.65C2822.76 1202.22 2818.26 1222.22 2818.02 1245.66Z" fill="black"/>
<path d="M2376.28 1571.65C2320.41 1571.65 2272.35 1559.82 2232.1 1536.14C2192.09 1512.23 2161.32 1479.09 2139.77 1436.71C2118.47 1394.33 2107.81 1345.56 2107.81 1290.4C2107.81 1234.53 2118.59 1185.53 2140.13 1143.39C2161.91 1101.01 2192.8 1067.98 2232.81 1044.31C2272.82 1020.4 2320.41 1008.44 2375.57 1008.44C2423.15 1008.44 2464.82 1017.08 2500.57 1034.37C2536.32 1051.65 2564.61 1075.91 2585.44 1107.16C2606.27 1138.41 2617.76 1175.11 2619.89 1217.25H2477.13C2473.11 1190.02 2462.45 1168.13 2445.17 1151.55C2428.13 1134.75 2405.75 1126.34 2378.05 1126.34C2354.62 1126.34 2334.14 1132.73 2316.62 1145.52C2299.34 1158.06 2285.84 1176.41 2276.14 1200.56C2266.43 1224.71 2261.58 1253.95 2261.58 1288.27C2261.58 1323.07 2266.31 1352.67 2275.78 1377.05C2285.49 1401.44 2299.1 1420.02 2316.62 1432.8C2334.14 1445.59 2354.62 1451.98 2378.05 1451.98C2395.34 1451.98 2410.84 1448.43 2424.57 1441.33C2438.54 1434.22 2450.02 1423.93 2459.02 1410.43C2468.25 1396.7 2474.29 1380.25 2477.13 1361.07H2619.89C2617.52 1402.74 2606.16 1439.43 2585.8 1471.16C2565.67 1502.64 2537.86 1527.26 2502.34 1545.02C2466.83 1562.78 2424.81 1571.65 2376.28 1571.65Z" fill="black"/>
<path d="M1907.37 1561V1015.55H2058.65V1561H1907.37ZM1983.36 945.234C1960.87 945.234 1941.58 937.776 1925.48 922.861C1909.62 907.71 1901.69 889.599 1901.69 868.529C1901.69 847.696 1909.62 829.822 1925.48 814.907C1941.58 799.755 1960.87 792.18 1983.36 792.18C2005.85 792.18 2025.03 799.755 2040.89 814.907C2056.99 829.822 2065.04 847.696 2065.04 868.529C2065.04 889.599 2056.99 907.71 2040.89 922.861C2025.03 937.776 2005.85 945.234 1983.36 945.234Z" fill="black"/>
<path d="M1763.18 1464.81L1810.84 1489.52C1797.11 1516 1764.52 1526.34 1738.04 1512.61C1711.57 1498.88 1701.23 1466.29 1714.96 1439.81C1714.96 1439.81 1714.97 1439.8 1714.98 1439.78C1715 1439.74 1715.04 1439.66 1715.09 1439.55C1715.21 1439.33 1715.39 1438.99 1715.63 1438.51C1716.11 1437.56 1716.85 1436.11 1717.82 1434.18C1719.76 1430.33 1722.62 1424.59 1726.22 1417.19C1733.42 1402.38 1743.55 1380.99 1755.14 1354.93C1778.39 1302.64 1807.17 1232.29 1830.01 1158.9C1853.09 1084.73 1868.91 1011.15 1868.72 951.274C1868.53 890.947 1852.64 859.154 1829.46 844.338L1828.34 843.645C1787.04 818.456 1742.34 815.139 1692.52 830.02C1641.06 845.389 1585.5 880.036 1529.36 928.918C1526.89 931.07 1524.42 933.244 1521.96 935.44C1522.45 969.651 1519.19 1004.93 1513.73 1039.72C1493.04 1171.49 1437.27 1316.62 1395.69 1416.91L1391.71 1426.48C1368.46 1482.21 1324.5 1557.34 1277.18 1614.12C1253.78 1642.19 1226.69 1669.31 1198.06 1686.47C1170.58 1702.94 1126.16 1718.51 1084.22 1690.68V1690.68C1044.81 1664.53 1039.76 1616.82 1040.08 1586.67C1040.45 1551.87 1048.33 1511.56 1059.43 1471.6C1081.8 1391.05 1120.75 1299.62 1158.26 1231.24L1159.81 1228.42C1217.09 1124.6 1306.65 995.273 1410.09 892.539C1408.85 885.513 1407.32 878.841 1405.49 872.542C1395.42 837.965 1377.01 815.907 1345.56 804.2L1344.06 803.65C1294.4 785.917 1237.85 804.295 1170.88 868.744C1104.85 932.282 1041.37 1029.51 985.442 1134.56C929.963 1238.78 883.872 1346.93 851.564 1429.37C835.445 1470.51 822.834 1505.04 814.274 1529.23C809.996 1541.32 806.734 1550.81 804.556 1557.24C803.467 1560.45 802.649 1562.89 802.111 1564.51C801.843 1565.32 801.644 1565.93 801.516 1566.31C801.452 1566.51 801.405 1566.65 801.377 1566.74C801.363 1566.78 801.353 1566.81 801.348 1566.82C801.345 1566.83 801.345 1566.83 801.344 1566.84L801.343 1566.84C792.682 1593.39 765.201 1608.96 737.972 1602.74C710.74 1596.51 692.751 1570.55 696.491 1542.86L696.991 1539.2C718.433 1384.03 773.785 1199.19 822.954 1054.72C847.883 981.478 871.517 917.768 888.928 872.347C897.637 849.626 904.799 831.456 909.799 818.927C912.299 812.662 914.259 807.806 915.604 804.495C916.276 802.839 916.794 801.57 917.148 800.704C917.326 800.27 917.462 799.938 917.557 799.708C917.604 799.594 917.64 799.505 917.666 799.442C917.679 799.41 917.69 799.385 917.697 799.367C917.701 799.357 917.705 799.348 917.707 799.343C917.723 799.342 918.473 799.645 962.205 817.676L917.712 799.33C929.08 771.759 960.647 758.624 988.219 769.992C1015.79 781.36 1028.93 812.928 1017.56 840.499C1017.56 840.5 1017.56 840.501 1017.56 840.502C1017.55 840.51 1017.55 840.525 1017.54 840.545C1017.52 840.586 1017.49 840.653 1017.46 840.745C1017.38 840.931 1017.26 841.219 1017.1 841.607C1016.79 842.383 1016.31 843.56 1015.67 845.121C1014.4 848.244 1012.52 852.902 1010.11 858.959C1005.27 871.076 998.289 888.785 989.773 911.001C987.716 916.368 985.569 921.997 983.343 927.871C1018.36 876.507 1056.07 829.334 1095.99 790.923C1173.39 716.443 1272.26 663.331 1380.38 701.941L1382.02 702.533C1440.44 723.895 1477.97 764.518 1499.15 814.162C1550.26 775.045 1605.05 743.43 1661.61 726.537C1735.12 704.58 1812.5 707.484 1884.58 751.438L1886.25 752.475C1956.95 796.65 1976.49 876.754 1976.72 950.932C1976.96 1027.1 1957.41 1112.99 1933.13 1190.99C1908.62 1269.77 1878.07 1344.28 1853.82 1398.81C1841.66 1426.16 1831 1448.67 1823.35 1464.41C1819.52 1472.28 1816.44 1478.47 1814.29 1482.74C1813.22 1484.87 1812.38 1486.52 1811.8 1487.66C1811.5 1488.23 1811.28 1488.68 1811.12 1488.99C1811.04 1489.14 1810.97 1489.27 1810.93 1489.36C1810.9 1489.4 1810.88 1489.44 1810.87 1489.47C1810.86 1489.48 1810.86 1489.49 1810.85 1489.5C1810.85 1489.51 1810.84 1489.52 1763.18 1464.81ZM1398.97 1066.36C1341.13 1137.88 1290.9 1214.39 1254.41 1280.53L1252.95 1283.18C1218.92 1345.21 1183.37 1428.95 1163.49 1500.5C1153.47 1536.6 1148.3 1566.57 1148.07 1587.81C1148.06 1588.65 1148.06 1589.45 1148.07 1590.22C1160.68 1581.34 1176.54 1566.18 1194.21 1544.98C1234.41 1496.75 1272.82 1430.96 1292.04 1384.89L1296 1375.36C1332.31 1287.75 1376.28 1173.04 1398.97 1066.36ZM1762.9 1464.67C1762.44 1464.43 1761.98 1464.19 1761.53 1463.96L1763.18 1464.81C1763.08 1464.76 1762.99 1464.72 1762.9 1464.67Z" fill="#12CD60"/>
<path d="M8077.17 1571.65C8021.3 1571.65 7973.24 1559.82 7932.99 1536.14C7892.98 1512.23 7862.21 1479.09 7840.66 1436.71C7819.36 1394.33 7808.7 1345.56 7808.7 1290.4C7808.7 1234.53 7819.47 1185.53 7841.02 1143.39C7862.8 1101.01 7893.69 1067.98 7933.7 1044.31C7973.71 1020.4 8021.3 1008.44 8076.46 1008.44C8124.04 1008.44 8165.71 1017.08 8201.46 1034.37C8237.21 1051.65 8265.5 1075.91 8286.33 1107.16C8307.16 1138.41 8318.65 1175.11 8320.78 1217.25H8178.02C8174 1190.02 8163.34 1168.13 8146.06 1151.55C8129.02 1134.75 8106.64 1126.34 8078.94 1126.34C8055.51 1126.34 8035.03 1132.73 8017.51 1145.52C8000.23 1158.06 7986.73 1176.41 7977.03 1200.56C7967.32 1224.71 7962.47 1253.95 7962.47 1288.27C7962.47 1323.07 7967.2 1352.67 7976.67 1377.05C7986.38 1401.44 7999.99 1420.02 8017.51 1432.8C8035.03 1445.59 8055.51 1451.98 8078.94 1451.98C8096.23 1451.98 8111.73 1448.43 8125.46 1441.33C8139.43 1434.22 8150.91 1423.93 8159.91 1410.43C8169.14 1396.7 8175.18 1380.25 8178.02 1361.07H8320.78C8318.41 1402.74 8307.05 1439.43 8286.69 1471.16C8266.56 1502.64 8238.75 1527.26 8203.23 1545.02C8167.72 1562.78 8125.7 1571.65 8077.17 1571.65Z" fill="black"/>
<path d="M7608.26 1561V1015.55H7759.54V1561H7608.26ZM7684.25 945.234C7661.76 945.234 7642.47 937.776 7626.37 922.861C7610.51 907.71 7602.58 889.599 7602.58 868.529C7602.58 847.696 7610.51 829.822 7626.37 814.907C7642.47 799.755 7661.76 792.18 7684.25 792.18C7706.74 792.18 7725.92 799.755 7741.78 814.907C7757.88 829.822 7765.93 847.696 7765.93 868.529C7765.93 889.599 7757.88 907.71 7741.78 922.861C7725.92 937.776 7706.74 945.234 7684.25 945.234Z" fill="black"/>
<path d="M7223.51 1569.88C7182.08 1569.88 7144.56 1559.23 7110.94 1537.92C7077.56 1516.38 7051.04 1484.77 7031.39 1443.1C7011.98 1401.2 7002.28 1349.83 7002.28 1288.98C7002.28 1226.48 7012.34 1174.52 7032.46 1133.09C7052.58 1091.42 7079.34 1060.29 7112.72 1039.69C7146.33 1018.86 7183.15 1008.44 7223.16 1008.44C7253.7 1008.44 7279.15 1013.65 7299.51 1024.07C7320.1 1034.25 7336.67 1047.03 7349.22 1062.42C7362.01 1077.57 7371.71 1092.49 7378.34 1107.17H7382.96V833.729H7533.88V1561H7384.73V1473.64H7378.34C7371.24 1488.79 7361.18 1503.83 7348.16 1518.74C7335.37 1533.42 7318.68 1545.61 7298.09 1555.32C7277.73 1565.03 7252.87 1569.88 7223.51 1569.88ZM7271.45 1449.5C7295.84 1449.5 7316.43 1442.87 7333.24 1429.61C7350.29 1416.11 7363.31 1397.29 7372.3 1373.15C7381.54 1349 7386.15 1320.71 7386.15 1288.27C7386.15 1255.84 7381.66 1227.67 7372.66 1203.76C7363.66 1179.85 7350.64 1161.38 7333.6 1148.36C7316.55 1135.34 7295.84 1128.83 7271.45 1128.83C7246.59 1128.83 7225.64 1135.58 7208.6 1149.07C7191.55 1162.56 7178.65 1181.27 7169.89 1205.18C7161.13 1229.09 7156.75 1256.79 7156.75 1288.27C7156.75 1320 7161.13 1348.05 7169.89 1372.44C7178.89 1396.58 7191.79 1415.52 7208.6 1429.25C7225.64 1442.75 7246.59 1449.5 7271.45 1449.5Z" fill="black"/>
<path d="M6601.73 1245.66V1561H6450.45V1015.55H6594.62V1111.78H6601.02C6613.09 1080.06 6633.33 1054.96 6661.74 1036.5C6690.15 1017.79 6724.59 1008.44 6765.08 1008.44C6802.96 1008.44 6835.98 1016.73 6864.15 1033.3C6892.33 1049.87 6914.23 1073.55 6929.85 1104.32C6945.48 1134.86 6953.29 1171.32 6953.29 1213.7V1561H6802.01V1240.69C6802.25 1207.31 6793.72 1181.27 6776.44 1162.56C6759.16 1143.62 6735.37 1134.15 6705.06 1134.15C6684.7 1134.15 6666.71 1138.53 6651.09 1147.29C6635.7 1156.05 6623.62 1168.84 6614.86 1185.65C6606.34 1202.22 6601.96 1222.22 6601.73 1245.66Z" fill="black"/>
<path d="M6075.91 1571.3C6041.11 1571.3 6010.09 1565.26 5982.87 1553.19C5955.64 1540.88 5934.1 1522.77 5918.24 1498.86C5902.61 1474.71 5894.8 1444.64 5894.8 1408.66C5894.8 1378.35 5900.36 1352.9 5911.49 1332.31C5922.62 1311.71 5937.77 1295.14 5956.95 1282.59C5976.12 1270.04 5997.9 1260.57 6022.29 1254.18C6046.91 1247.79 6072.71 1243.29 6099.7 1240.69C6131.42 1237.37 6156.99 1234.3 6176.41 1231.45C6195.82 1228.38 6209.9 1223.88 6218.66 1217.96C6227.42 1212.04 6231.8 1203.28 6231.8 1191.68V1189.55C6231.8 1167.06 6224.7 1149.66 6210.5 1137.35C6196.53 1125.04 6176.64 1118.88 6150.84 1118.88C6123.61 1118.88 6101.95 1124.92 6085.85 1136.99C6069.75 1148.83 6059.1 1163.75 6053.89 1181.74L5913.98 1170.38C5921.08 1137.23 5935.05 1108.59 5955.88 1084.44C5976.71 1060.05 6003.58 1041.35 6036.49 1028.33C6069.64 1015.07 6107.99 1008.44 6151.55 1008.44C6181.85 1008.44 6210.85 1011.99 6238.55 1019.1C6266.49 1026.2 6291.23 1037.21 6312.77 1052.12C6334.55 1067.04 6351.71 1086.21 6364.26 1109.65C6376.81 1132.85 6383.08 1160.67 6383.08 1193.1V1561H6239.62V1485.36H6235.35C6226.6 1502.41 6214.88 1517.44 6200.2 1530.46C6185.52 1543.24 6167.88 1553.31 6147.29 1560.65C6126.69 1567.75 6102.9 1571.3 6075.91 1571.3ZM6119.23 1466.9C6141.49 1466.9 6161.14 1462.52 6178.18 1453.76C6195.23 1444.76 6208.6 1432.69 6218.31 1417.53C6228.02 1402.38 6232.87 1385.22 6232.87 1366.04V1308.16C6228.13 1311.24 6221.62 1314.08 6213.34 1316.68C6205.29 1319.05 6196.17 1321.3 6185.99 1323.43C6175.81 1325.32 6165.63 1327.1 6155.45 1328.76C6145.27 1330.18 6136.04 1331.48 6127.76 1332.66C6110 1335.27 6094.49 1339.41 6081.24 1345.09C6067.98 1350.77 6057.68 1358.47 6050.34 1368.17C6043 1377.64 6039.33 1389.48 6039.33 1403.68C6039.33 1424.28 6046.79 1440.02 6061.7 1450.91C6076.86 1461.57 6096.03 1466.9 6119.23 1466.9Z" fill="black"/>
<path d="M5804.18 1464.81L5851.84 1489.52C5838.11 1516 5805.52 1526.34 5779.04 1512.61C5752.57 1498.88 5742.23 1466.29 5755.96 1439.81C5755.96 1439.81 5755.97 1439.8 5755.98 1439.78C5756 1439.74 5756.04 1439.66 5756.09 1439.55C5756.21 1439.33 5756.39 1438.99 5756.63 1438.51C5757.11 1437.56 5757.85 1436.11 5758.82 1434.18C5760.76 1430.33 5763.62 1424.59 5767.22 1417.19C5774.42 1402.38 5784.55 1380.99 5796.14 1354.93C5819.39 1302.64 5848.17 1232.29 5871.01 1158.9C5894.09 1084.73 5909.91 1011.15 5909.72 951.274C5909.53 890.947 5893.64 859.154 5870.46 844.338L5869.34 843.645C5828.04 818.456 5783.34 815.139 5733.52 830.02C5682.06 845.389 5626.5 880.036 5570.36 928.918C5567.89 931.07 5565.42 933.244 5562.96 935.44C5563.45 969.651 5560.19 1004.93 5554.73 1039.72C5534.04 1171.49 5478.27 1316.62 5436.69 1416.91L5432.71 1426.48C5409.46 1482.21 5365.5 1557.34 5318.18 1614.12C5294.78 1642.19 5267.69 1669.31 5239.06 1686.47C5211.58 1702.94 5167.16 1718.51 5125.22 1690.68V1690.68C5085.81 1664.53 5080.76 1616.82 5081.08 1586.67C5081.45 1551.87 5089.33 1511.56 5100.43 1471.6C5122.8 1391.05 5161.75 1299.62 5199.26 1231.24L5200.81 1228.42C5258.09 1124.6 5347.65 995.273 5451.09 892.539C5449.85 885.513 5448.32 878.841 5446.49 872.542C5436.42 837.965 5418.01 815.907 5386.56 804.2L5385.06 803.65C5335.4 785.917 5278.85 804.295 5211.88 868.744C5145.85 932.282 5082.37 1029.51 5026.44 1134.56C4970.96 1238.78 4924.87 1346.93 4892.56 1429.37C4876.44 1470.51 4863.83 1505.04 4855.27 1529.23C4851 1541.32 4847.73 1550.81 4845.56 1557.24C4844.47 1560.45 4843.65 1562.89 4843.11 1564.51C4842.84 1565.32 4842.64 1565.93 4842.52 1566.31C4842.45 1566.51 4842.41 1566.65 4842.38 1566.74C4842.36 1566.78 4842.35 1566.81 4842.35 1566.82C4842.35 1566.83 4842.35 1566.83 4842.34 1566.84L4842.34 1566.84C4833.68 1593.39 4806.2 1608.96 4778.97 1602.74C4751.74 1596.51 4733.75 1570.55 4737.49 1542.86L4737.99 1539.2C4759.43 1384.03 4814.78 1199.19 4863.95 1054.72C4888.88 981.478 4912.52 917.768 4929.93 872.347C4938.64 849.626 4945.8 831.456 4950.8 818.927C4953.3 812.662 4955.26 807.806 4956.6 804.495C4957.28 802.839 4957.79 801.57 4958.15 800.704C4958.33 800.27 4958.46 799.938 4958.56 799.708C4958.6 799.594 4958.64 799.505 4958.67 799.442C4958.68 799.41 4958.69 799.385 4958.7 799.367C4958.7 799.357 4958.71 799.348 4958.71 799.343C4958.72 799.342 4959.47 799.645 5003.21 817.676L4958.71 799.33C4970.08 771.759 5001.65 758.624 5029.22 769.992C5056.79 781.36 5069.93 812.928 5058.56 840.499C5058.56 840.5 5058.56 840.501 5058.56 840.502C5058.55 840.51 5058.55 840.525 5058.54 840.545C5058.52 840.586 5058.49 840.653 5058.46 840.745C5058.38 840.931 5058.26 841.219 5058.1 841.607C5057.79 842.383 5057.31 843.56 5056.67 845.121C5055.4 848.244 5053.52 852.902 5051.11 858.959C5046.27 871.076 5039.29 888.785 5030.77 911.001C5028.72 916.368 5026.57 921.997 5024.34 927.871C5059.36 876.507 5097.07 829.334 5136.99 790.923C5214.39 716.443 5313.26 663.331 5421.38 701.941L5423.02 702.533C5481.44 723.895 5518.97 764.518 5540.15 814.162C5591.26 775.045 5646.05 743.43 5702.61 726.537C5776.12 704.58 5853.5 707.484 5925.58 751.438L5927.25 752.475C5997.95 796.65 6017.49 876.754 6017.72 950.932C6017.96 1027.1 5998.41 1112.99 5974.13 1190.99C5949.62 1269.77 5919.07 1344.28 5894.82 1398.81C5882.66 1426.16 5872 1448.67 5864.35 1464.41C5860.52 1472.28 5857.44 1478.47 5855.29 1482.74C5854.22 1484.87 5853.38 1486.52 5852.8 1487.66C5852.5 1488.23 5852.28 1488.68 5852.12 1488.99C5852.04 1489.14 5851.97 1489.27 5851.93 1489.36C5851.9 1489.4 5851.88 1489.44 5851.87 1489.47C5851.86 1489.48 5851.86 1489.49 5851.85 1489.5C5851.85 1489.51 5851.84 1489.52 5804.18 1464.81ZM5439.97 1066.36C5382.13 1137.88 5331.9 1214.39 5295.41 1280.53L5293.95 1283.18C5259.92 1345.21 5224.37 1428.95 5204.49 1500.5C5194.47 1536.6 5189.3 1566.57 5189.07 1587.81C5189.06 1588.65 5189.06 1589.45 5189.07 1590.22C5201.68 1581.34 5217.54 1566.18 5235.21 1544.98C5275.41 1496.75 5313.82 1430.96 5333.04 1384.89L5337 1375.36C5373.31 1287.75 5417.28 1173.04 5439.97 1066.36ZM5803.9 1464.67C5803.44 1464.43 5802.98 1464.19 5802.53 1463.96L5804.18 1464.81C5804.08 1464.76 5803.99 1464.72 5803.9 1464.67Z" fill="#12CD60"/>
</svg>
