<svg width="168" height="46" viewBox="0 0 168 46" fill="none" xmlns="http://www.w3.org/2000/svg">
<path d="M0.88 45.28L17.68 0.159998H23.92L7.12 45.28H0.88Z" fill="url(#paint0_linear_97_27)"/>
<path d="M31.7253 40V4.96H37.7253V34.432H52.6053V40H31.7253ZM59.2105 40V34.528H68.4265V19.024H60.4105V13.6H74.1865V34.528H82.3465V40H59.2105ZM70.8265 9.184C69.6105 9.184 68.6505 8.88 67.9465 8.272C67.2425 7.632 66.8905 6.784 66.8905 5.728C66.8905 4.672 67.2425 3.84 67.9465 3.232C68.6505 2.592 69.6105 2.272 70.8265 2.272C72.0425 2.272 73.0025 2.592 73.7065 3.232C74.4105 3.84 74.7625 4.672 74.7625 5.728C74.7625 6.784 74.4105 7.632 73.7065 8.272C73.0025 8.88 72.0425 9.184 70.8265 9.184ZM88.0398 40V13.6H93.8958V18.64H95.5278L93.8958 20.032C93.8958 17.856 94.5198 16.16 95.7678 14.944C97.0478 13.728 98.7918 13.12 101 13.12C103.592 13.12 105.656 13.984 107.192 15.712C108.76 17.44 109.544 19.76 109.544 22.672V40H103.544V23.296C103.544 21.696 103.128 20.464 102.296 19.6C101.464 18.736 100.296 18.304 98.7918 18.304C97.3198 18.304 96.1518 18.752 95.2878 19.648C94.4558 20.544 94.0398 21.824 94.0398 23.488V40H88.0398ZM116.965 40V4.96H122.965V23.968H127.141L133.573 13.6H140.293L132.325 26.368L140.437 40H133.573L127.141 29.056H122.965V40H116.965ZM155.298 40.432C153.282 40.432 151.522 40.112 150.018 39.472C148.514 38.832 147.33 37.952 146.466 36.832C145.634 35.68 145.186 34.336 145.122 32.8H151.122C151.186 33.632 151.586 34.304 152.322 34.816C153.09 35.328 154.082 35.584 155.298 35.584H157.41C158.882 35.584 159.986 35.296 160.722 34.72C161.458 34.144 161.826 33.36 161.826 32.368C161.826 31.44 161.49 30.72 160.818 30.208C160.178 29.664 159.17 29.312 157.794 29.152L154.53 28.672C151.522 28.256 149.314 27.456 147.906 26.272C146.498 25.088 145.794 23.312 145.794 20.944C145.794 18.48 146.626 16.576 148.29 15.232C149.954 13.856 152.402 13.168 155.634 13.168H157.458C160.402 13.168 162.754 13.824 164.514 15.136C166.274 16.448 167.218 18.208 167.346 20.416H161.346C161.25 19.712 160.85 19.136 160.146 18.688C159.474 18.24 158.578 18.016 157.458 18.016H155.634C154.258 18.016 153.25 18.272 152.61 18.784C152.002 19.264 151.698 19.984 151.698 20.944C151.698 21.84 151.97 22.512 152.514 22.96C153.058 23.376 153.938 23.68 155.154 23.872L158.562 24.352C161.698 24.8 164.002 25.648 165.474 26.896C166.978 28.112 167.73 29.92 167.73 32.32C167.73 34.88 166.85 36.88 165.09 38.32C163.362 39.728 160.802 40.432 157.41 40.432H155.298Z" fill="white"/>
<defs>
<linearGradient id="paint0_linear_97_27" x1="86.5" y1="3.97059" x2="86.5" y2="39.5471" gradientUnits="userSpaceOnUse">
<stop stop-color="#EDDD53"/>
<stop offset="0.5" stop-color="#57C785"/>
<stop offset="1" stop-color="#2A7B9B"/>
</linearGradient>
</defs>
</svg>
