<svg width="197" height="46" viewBox="0 0 197 46" fill="none" xmlns="http://www.w3.org/2000/svg">
<path d="M0.88 45.28L17.68 0.159998H23.92L7.12 45.28H0.88Z" fill="url(#paint0_linear_69_4)"/>
<path d="M41.2773 40.48C38.8773 40.48 36.7973 40.08 35.0373 39.28C33.2773 38.48 31.9173 37.344 30.9573 35.872C30.0293 34.368 29.5493 32.608 29.5173 30.592H35.5173C35.5173 32.032 36.0293 33.168 37.0533 34C38.1093 34.8 39.5333 35.2 41.3253 35.2C43.0533 35.2 44.3973 34.8 45.3573 34C46.3493 33.2 46.8453 32.096 46.8453 30.688C46.8453 29.504 46.4933 28.48 45.7893 27.616C45.1173 26.72 44.1413 26.112 42.8613 25.792L38.8293 24.688C36.0773 23.984 33.9493 22.72 32.4453 20.896C30.9733 19.072 30.2373 16.864 30.2373 14.272C30.2373 12.288 30.6853 10.56 31.5813 9.088C32.4773 7.616 33.7413 6.48 35.3733 5.68C37.0373 4.88 38.9893 4.48 41.2293 4.48C44.6213 4.48 47.3093 5.36 49.2933 7.12C51.2773 8.848 52.2853 11.184 52.3173 14.128H46.3173C46.3173 12.752 45.8693 11.68 44.9733 10.912C44.0773 10.112 42.8133 9.712 41.1813 9.712C39.6133 9.712 38.3973 10.08 37.5333 10.816C36.6693 11.552 36.2373 12.592 36.2373 13.936C36.2373 15.152 36.5573 16.192 37.1973 17.056C37.8693 17.888 38.8293 18.48 40.0773 18.832L44.2533 19.984C47.0373 20.688 49.1653 21.952 50.6373 23.776C52.1093 25.568 52.8453 27.792 52.8453 30.448C52.8453 32.432 52.3653 34.192 51.4053 35.728C50.4453 37.232 49.1013 38.4 47.3733 39.232C45.6453 40.064 43.6133 40.48 41.2773 40.48ZM59.4025 40V4.96H65.4025V23.968H69.5785L76.0105 13.6H82.7305L74.7625 26.368L82.8745 40H76.0105L69.5785 29.056H65.4025V40H59.4025ZM87.9918 40V34.528H97.2078V19.024H89.1918V13.6H102.968V34.528H111.128V40H87.9918ZM99.6078 9.184C98.3918 9.184 97.4318 8.88 96.7278 8.272C96.0238 7.632 95.6718 6.784 95.6718 5.728C95.6718 4.672 96.0238 3.84 96.7278 3.232C97.4318 2.592 98.3918 2.272 99.6078 2.272C100.824 2.272 101.784 2.592 102.488 3.232C103.192 3.84 103.544 4.672 103.544 5.728C103.544 6.784 103.192 7.632 102.488 8.272C101.784 8.88 100.824 9.184 99.6078 9.184ZM131.557 40C129.829 40 128.309 39.648 126.997 38.944C125.717 38.24 124.709 37.248 123.973 35.968C123.237 34.656 122.869 33.152 122.869 31.456V10.384H114.421V4.96H128.869V31.456C128.869 32.416 129.141 33.184 129.685 33.76C130.261 34.304 131.029 34.576 131.989 34.576H139.957V40H131.557ZM160.338 40C158.61 40 157.09 39.648 155.778 38.944C154.498 38.24 153.49 37.248 152.754 35.968C152.018 34.656 151.65 33.152 151.65 31.456V10.384H143.202V4.96H157.65V31.456C157.65 32.416 157.922 33.184 158.466 33.76C159.042 34.304 159.81 34.576 160.77 34.576H168.738V40H160.338ZM184.08 40.432C182.064 40.432 180.304 40.112 178.8 39.472C177.296 38.832 176.112 37.952 175.248 36.832C174.416 35.68 173.968 34.336 173.904 32.8H179.904C179.968 33.632 180.368 34.304 181.104 34.816C181.872 35.328 182.864 35.584 184.08 35.584H186.192C187.664 35.584 188.768 35.296 189.504 34.72C190.24 34.144 190.608 33.36 190.608 32.368C190.608 31.44 190.272 30.72 189.6 30.208C188.96 29.664 187.952 29.312 186.576 29.152L183.312 28.672C180.304 28.256 178.096 27.456 176.688 26.272C175.28 25.088 174.576 23.312 174.576 20.944C174.576 18.48 175.408 16.576 177.072 15.232C178.736 13.856 181.184 13.168 184.416 13.168H186.24C189.184 13.168 191.536 13.824 193.296 15.136C195.056 16.448 196 18.208 196.128 20.416H190.128C190.032 19.712 189.632 19.136 188.928 18.688C188.256 18.24 187.36 18.016 186.24 18.016H184.416C183.04 18.016 182.032 18.272 181.392 18.784C180.784 19.264 180.48 19.984 180.48 20.944C180.48 21.84 180.752 22.512 181.296 22.96C181.84 23.376 182.72 23.68 183.936 23.872L187.344 24.352C190.48 24.8 192.784 25.648 194.256 26.896C195.76 28.112 196.512 29.92 196.512 32.32C196.512 34.88 195.632 36.88 193.872 38.32C192.144 39.728 189.584 40.432 186.192 40.432H184.08Z" fill="white"/>
<defs>
<linearGradient id="paint0_linear_69_4" x1="103" y1="3.97059" x2="103" y2="39.5471" gradientUnits="userSpaceOnUse">
<stop stop-color="#EDDD53"/>
<stop offset="0.5" stop-color="#57C785"/>
<stop offset="1" stop-color="#2A7B9B"/>
</linearGradient>
</defs>
</svg>
