<svg width="1027" height="348" viewBox="0 0 1027 348" fill="none" xmlns="http://www.w3.org/2000/svg">
<rect x="458" y="133" width="407" height="132" fill="#6FFF9D"/>
<path d="M7.392 236V165.92H19.392V194.048H38.208V165.92H50.208V236H38.208V205.184H19.392V236H7.392ZM64.8585 236V225.056H83.2905V194.048H67.2585V183.2H94.8105V225.056H111.131V236H64.8585ZM88.0905 174.368C85.6585 174.368 83.7385 173.76 82.3305 172.544C80.9225 171.264 80.2185 169.568 80.2185 167.456C80.2185 165.344 80.9225 163.68 82.3305 162.464C83.7385 161.184 85.6585 160.544 88.0905 160.544C90.5225 160.544 92.4425 161.184 93.8505 162.464C95.2585 163.68 95.9625 165.344 95.9625 167.456C95.9625 169.568 95.2585 171.264 93.8505 172.544C92.4425 173.76 90.5225 174.368 88.0905 174.368ZM129.525 251.36L137.205 221.504H152.565L140.085 251.36H129.525ZM238.89 236V225.44H253.002V176.48H238.89V165.92H279.21V176.48H265.098V225.44H279.21V236H238.89ZM301.733 191.36L309.413 161.504H324.773L312.293 191.36H301.733ZM350.367 236V183.2H360.159V190.304H362.175L360.543 192.032C360.543 189.088 361.375 186.72 363.039 184.928C364.703 183.136 366.847 182.24 369.471 182.24C372.287 182.24 374.463 183.392 375.999 185.696C377.599 188 378.399 191.104 378.399 195.008L376.287 190.304H379.551L378.303 192.032C378.303 189.088 379.135 186.72 380.799 184.928C382.463 183.136 384.671 182.24 387.423 182.24C390.687 182.24 393.279 183.456 395.199 185.888C397.119 188.32 398.079 191.616 398.079 195.776V236H387.519V196.256C387.519 194.528 387.135 193.184 386.367 192.224C385.599 191.2 384.479 190.688 383.007 190.688C381.599 190.688 380.479 191.168 379.647 192.128C378.879 193.088 378.495 194.464 378.495 196.256V236H369.855V196.256C369.855 194.464 369.471 193.088 368.703 192.128C367.935 191.168 366.815 190.688 365.343 190.688C363.871 190.688 362.751 191.168 361.983 192.128C361.279 193.088 360.927 194.464 360.927 196.256V236H350.367ZM887.822 213.632L885.71 179.168V165.92H898.766V179.168L896.654 213.632H887.822ZM890.798 236.48C888.814 236.48 887.214 235.904 885.998 234.752C884.782 233.536 884.174 232 884.174 230.144C884.174 228.288 884.782 226.784 885.998 225.632C887.214 224.416 888.814 223.808 890.798 223.808H893.678C895.726 223.808 897.326 224.384 898.478 225.536C899.694 226.688 900.302 228.224 900.302 230.144C900.302 232 899.694 233.536 898.478 234.752C897.262 235.904 895.63 236.48 893.582 236.48H890.798Z" fill="#6FFF9D"/>
<path d="M465.876 236V165.92H480.084L486.9 188.192C487.604 190.432 488.18 192.48 488.628 194.336C489.076 196.192 489.364 197.536 489.492 198.368C489.62 197.536 489.908 196.192 490.356 194.336C490.804 192.48 491.348 190.432 491.988 188.192L498.516 165.92H512.724V236H501.492V214.208C501.492 211.008 501.588 207.52 501.78 203.744C501.972 199.968 502.196 196.192 502.452 192.416C502.708 188.64 502.996 185.056 503.316 181.664C503.7 178.272 504.02 175.296 504.276 172.736L494.868 205.856H483.924L474.228 172.736C474.548 175.168 474.868 178.048 475.188 181.376C475.508 184.64 475.796 188.16 476.052 191.936C476.372 195.648 476.628 199.424 476.82 203.264C477.012 207.104 477.108 210.752 477.108 214.208V236H465.876ZM525.359 236V225.056H543.791V194.048H527.759V183.2H555.311V225.056H571.631V236H525.359ZM548.591 174.368C546.159 174.368 544.239 173.76 542.831 172.544C541.423 171.264 540.719 169.568 540.719 167.456C540.719 165.344 541.423 163.68 542.831 162.464C544.239 161.184 546.159 160.544 548.591 160.544C551.023 160.544 552.943 161.184 554.351 162.464C555.759 163.68 556.463 165.344 556.463 167.456C556.463 169.568 555.759 171.264 554.351 172.544C552.943 173.76 551.023 174.368 548.591 174.368ZM604.713 236.96C600.233 236.96 596.297 236.128 592.905 234.464C589.577 232.736 586.985 230.336 585.129 227.264C583.273 224.128 582.345 220.448 582.345 216.224V202.976C582.345 198.688 583.273 195.008 585.129 191.936C586.985 188.864 589.577 186.496 592.905 184.832C596.297 183.104 600.233 182.24 604.713 182.24C611.369 182.24 616.681 183.968 620.649 187.424C624.617 190.816 626.697 195.456 626.889 201.344H614.889C614.697 198.592 613.705 196.48 611.913 195.008C610.185 193.472 607.785 192.704 604.713 192.704C601.513 192.704 598.985 193.6 597.129 195.392C595.273 197.12 594.345 199.616 594.345 202.88V216.224C594.345 219.488 595.273 222.016 597.129 223.808C598.985 225.6 601.513 226.496 604.713 226.496C607.785 226.496 610.185 225.76 611.913 224.288C613.705 222.752 614.697 220.608 614.889 217.856H626.889C626.697 223.744 624.617 228.416 620.649 231.872C616.681 235.264 611.369 236.96 604.713 236.96ZM640.58 236V165.92H652.58V183.2L652.292 193.28H655.556L652.292 196.064C652.292 191.712 653.54 188.32 656.036 185.888C658.596 183.456 662.084 182.24 666.5 182.24C671.684 182.24 675.812 183.968 678.884 187.424C682.02 190.88 683.588 195.52 683.588 201.344V236H671.588V202.592C671.588 199.392 670.756 196.928 669.092 195.2C667.428 193.472 665.092 192.608 662.084 192.608C659.14 192.608 656.804 193.504 655.076 195.296C653.412 197.088 652.58 199.648 652.58 202.976V236H640.58ZM713.694 236.96C708.254 236.96 703.966 235.52 700.83 232.64C697.694 229.76 696.126 225.888 696.126 221.024C696.126 215.84 697.854 211.84 701.31 209.024C704.766 206.208 709.662 204.8 715.998 204.8H729.15V200.288C729.15 197.728 728.318 195.744 726.654 194.336C724.99 192.864 722.718 192.128 719.838 192.128C717.214 192.128 715.038 192.704 713.31 193.856C711.582 195.008 710.558 196.576 710.238 198.56H698.526C699.102 193.568 701.342 189.6 705.246 186.656C709.15 183.712 714.142 182.24 720.222 182.24C726.686 182.24 731.774 183.872 735.486 187.136C739.262 190.336 741.15 194.688 741.15 200.192V236H729.534V226.784H727.614L729.534 224.192C729.534 228.096 728.094 231.2 725.214 233.504C722.334 235.808 718.494 236.96 713.694 236.96ZM717.63 227.936C721.022 227.936 723.774 227.072 725.886 225.344C728.062 223.616 729.15 221.376 729.15 218.624V212.192H716.19C713.758 212.192 711.806 212.896 710.334 214.304C708.862 215.712 708.126 217.568 708.126 219.872C708.126 222.368 708.958 224.352 710.622 225.824C712.35 227.232 714.686 227.936 717.63 227.936ZM777.209 236.96C772.729 236.96 768.825 236.096 765.497 234.368C762.169 232.64 759.577 230.24 757.721 227.168C755.929 224.032 755.033 220.384 755.033 216.224V202.976C755.033 198.816 755.929 195.2 757.721 192.128C759.577 188.992 762.169 186.56 765.497 184.832C768.825 183.104 772.729 182.24 777.209 182.24C781.625 182.24 785.465 183.104 788.729 184.832C792.057 186.56 794.617 188.992 796.409 192.128C798.265 195.2 799.193 198.816 799.193 202.976V212.48H766.649V216.224C766.649 219.936 767.545 222.752 769.337 224.672C771.129 226.528 773.785 227.456 777.305 227.456C779.993 227.456 782.169 227.008 783.833 226.112C785.497 225.152 786.553 223.776 787.001 221.984H798.809C797.913 226.528 795.481 230.176 791.513 232.928C787.609 235.616 782.841 236.96 777.209 236.96ZM787.577 205.76V202.88C787.577 199.232 786.713 196.448 784.985 194.528C783.257 192.544 780.665 191.552 777.209 191.552C773.753 191.552 771.129 192.544 769.337 194.528C767.545 196.512 766.649 199.328 766.649 202.976V204.992L788.441 204.8L787.577 205.76ZM842.739 236C839.283 236 836.243 235.296 833.619 233.888C831.059 232.48 829.043 230.496 827.571 227.936C826.099 225.312 825.363 222.304 825.363 218.912V176.768H808.467V165.92H837.363V218.912C837.363 220.832 837.907 222.368 838.995 223.52C840.147 224.608 841.683 225.152 843.603 225.152H859.539V236H842.739Z" fill="black"/>
<path d="M10.872 337.36C9.072 337.36 7.512 337.06 6.192 336.46C4.872 335.86 3.852 335.008 3.132 333.904C2.436 332.776 2.076 331.456 2.052 329.944H6.552C6.552 331.024 6.936 331.876 7.704 332.5C8.496 333.1 9.564 333.4 10.908 333.4C12.204 333.4 13.212 333.1 13.932 332.5C14.676 331.9 15.048 331.072 15.048 330.016C15.048 329.128 14.784 328.36 14.256 327.712C13.752 327.04 13.02 326.584 12.06 326.344L9.036 325.516C6.972 324.988 5.376 324.04 4.248 322.672C3.144 321.304 2.592 319.648 2.592 317.704C2.592 316.216 2.928 314.92 3.6 313.816C4.272 312.712 5.22 311.86 6.444 311.26C7.692 310.66 9.156 310.36 10.836 310.36C13.38 310.36 15.396 311.02 16.884 312.34C18.372 313.636 19.128 315.388 19.152 317.596H14.652C14.652 316.564 14.316 315.76 13.644 315.184C12.972 314.584 12.024 314.284 10.8 314.284C9.624 314.284 8.712 314.56 8.064 315.112C7.416 315.664 7.092 316.444 7.092 317.452C7.092 318.364 7.332 319.144 7.812 319.792C8.316 320.416 9.036 320.86 9.972 321.124L13.104 321.988C15.192 322.516 16.788 323.464 17.892 324.832C18.996 326.176 19.548 327.844 19.548 329.836C19.548 331.324 19.188 332.644 18.468 333.796C17.748 334.924 16.74 335.8 15.444 336.424C14.148 337.048 12.624 337.36 10.872 337.36ZM32.3859 337.324C30.7059 337.324 29.2419 337.012 27.9939 336.388C26.7699 335.74 25.8099 334.84 25.1139 333.688C24.4419 332.512 24.1059 331.132 24.1059 329.548V324.652C24.1059 323.068 24.4419 321.7 25.1139 320.548C25.8099 319.372 26.7699 318.472 27.9939 317.848C29.2419 317.2 30.7059 316.876 32.3859 316.876C34.0899 316.876 35.5539 317.2 36.7779 317.848C38.0019 318.472 38.9499 319.372 39.6219 320.548C40.3179 321.7 40.6659 323.056 40.6659 324.616V329.548C40.6659 331.132 40.3179 332.512 39.6219 333.688C38.9499 334.84 38.0019 335.74 36.7779 336.388C35.5539 337.012 34.0899 337.324 32.3859 337.324ZM32.3859 333.4C33.5859 333.4 34.5099 333.076 35.1579 332.428C35.8299 331.756 36.1659 330.796 36.1659 329.548V324.652C36.1659 323.38 35.8299 322.42 35.1579 321.772C34.5099 321.124 33.5859 320.8 32.3859 320.8C31.2099 320.8 30.2859 321.124 29.6139 321.772C28.9419 322.42 28.6059 323.38 28.6059 324.652V329.548C28.6059 330.796 28.9419 331.756 29.6139 332.428C30.2859 333.076 31.2099 333.4 32.3859 333.4ZM50.5519 337V323.464H45.1159V319.396H50.5519V316.408C50.5519 314.68 51.1279 313.3 52.2799 312.268C53.4319 311.236 54.9559 310.72 56.8519 310.72H62.6479V314.68H56.9599C56.3839 314.68 55.9159 314.848 55.5559 315.184C55.2199 315.496 55.0519 315.928 55.0519 316.48V319.396H62.6479V323.464H55.0519V337H50.5519ZM77.7178 337C75.8218 337 74.3338 336.472 73.2538 335.416C72.1978 334.36 71.6698 332.908 71.6698 331.06V321.268H66.3058V317.2H71.6698V311.62H76.2058V317.2H83.8018V321.268H76.2058V331.06C76.2058 332.308 76.8178 332.932 78.0418 332.932H83.4418V337H77.7178ZM90.0878 337L87.0638 317.2H90.8078L92.4638 329.332C92.5598 330.028 92.6438 330.796 92.7158 331.636C92.8118 332.476 92.8838 333.172 92.9318 333.724C93.0038 333.172 93.0998 332.476 93.2198 331.636C93.3398 330.796 93.4478 330.028 93.5438 329.332L95.4158 317.2H98.9078L100.744 329.332C100.84 330.028 100.948 330.808 101.068 331.672C101.188 332.512 101.284 333.208 101.356 333.76C101.404 333.184 101.476 332.476 101.572 331.636C101.692 330.772 101.788 330.004 101.86 329.332L103.624 317.2H107.224L104.128 337H99.4838L97.7558 324.796C97.6598 324.124 97.5518 323.38 97.4318 322.564C97.3118 321.724 97.2158 321.04 97.1438 320.512C97.0718 321.04 96.9758 321.724 96.8558 322.564C96.7598 323.38 96.6518 324.124 96.5318 324.796L94.7318 337H90.0878ZM116.534 337.36C114.494 337.36 112.886 336.82 111.71 335.74C110.534 334.66 109.946 333.208 109.946 331.384C109.946 329.44 110.594 327.94 111.89 326.884C113.186 325.828 115.022 325.3 117.398 325.3H122.33V323.608C122.33 322.648 122.018 321.904 121.394 321.376C120.77 320.824 119.918 320.548 118.838 320.548C117.854 320.548 117.038 320.764 116.39 321.196C115.742 321.628 115.358 322.216 115.238 322.96H110.846C111.062 321.088 111.902 319.6 113.366 318.496C114.83 317.392 116.702 316.84 118.982 316.84C121.406 316.84 123.314 317.452 124.706 318.676C126.122 319.876 126.83 321.508 126.83 323.572V337H122.474V333.544H121.754L122.474 332.572C122.474 334.036 121.934 335.2 120.854 336.064C119.774 336.928 118.334 337.36 116.534 337.36ZM118.01 333.976C119.282 333.976 120.314 333.652 121.106 333.004C121.922 332.356 122.33 331.516 122.33 330.484V328.072H117.47C116.558 328.072 115.826 328.336 115.274 328.864C114.722 329.392 114.446 330.088 114.446 330.952C114.446 331.888 114.758 332.632 115.382 333.184C116.03 333.712 116.906 333.976 118.01 333.976ZM132.9 337V317.2H137.148V320.98H138.264L136.932 323.284C136.932 321.148 137.412 319.54 138.372 318.46C139.332 317.38 140.748 316.84 142.62 316.84C144.756 316.84 146.436 317.5 147.66 318.82C148.884 320.14 149.496 321.964 149.496 324.292V325.732H144.78V324.616C144.78 323.344 144.444 322.36 143.772 321.664C143.124 320.968 142.224 320.62 141.072 320.62C139.896 320.62 138.984 320.968 138.336 321.664C137.712 322.36 137.4 323.344 137.4 324.616V337H132.9ZM161.938 337.36C160.258 337.36 158.794 337.036 157.546 336.388C156.298 335.74 155.326 334.84 154.63 333.688C153.958 332.512 153.622 331.144 153.622 329.584V324.616C153.622 323.056 153.958 321.7 154.63 320.548C155.326 319.372 156.298 318.46 157.546 317.812C158.794 317.164 160.258 316.84 161.938 316.84C163.594 316.84 165.034 317.164 166.258 317.812C167.506 318.46 168.466 319.372 169.138 320.548C169.834 321.7 170.182 323.056 170.182 324.616V328.18H157.978V329.584C157.978 330.976 158.314 332.032 158.986 332.752C159.658 333.448 160.654 333.796 161.974 333.796C162.982 333.796 163.798 333.628 164.422 333.292C165.046 332.932 165.442 332.416 165.61 331.744H170.038C169.702 333.448 168.79 334.816 167.302 335.848C165.838 336.856 164.05 337.36 161.938 337.36ZM165.826 325.66V324.58C165.826 323.212 165.502 322.168 164.854 321.448C164.206 320.704 163.234 320.332 161.938 320.332C160.642 320.332 159.658 320.704 158.986 321.448C158.314 322.192 157.978 323.248 157.978 324.616V325.372L166.15 325.3L165.826 325.66ZM197.441 337V310.72H213.209V314.644H201.869V321.484H211.949V325.372H201.869V333.076H213.209V337H197.441ZM218.631 337V317.2H223.023V320.98H224.247L223.023 322.024C223.023 320.392 223.491 319.12 224.427 318.208C225.387 317.296 226.695 316.84 228.351 316.84C230.295 316.84 231.843 317.488 232.995 318.784C234.171 320.08 234.759 321.82 234.759 324.004V337H230.259V324.472C230.259 323.272 229.947 322.348 229.323 321.7C228.699 321.052 227.823 320.728 226.695 320.728C225.591 320.728 224.715 321.064 224.067 321.736C223.443 322.408 223.131 323.368 223.131 324.616V337H218.631ZM242.917 343.48V339.736H248.785C249.793 339.736 250.549 339.484 251.053 338.98C251.557 338.5 251.809 337.804 251.809 336.892V335.416L251.881 331.708H250.909L251.881 330.736C251.881 332.344 251.401 333.604 250.441 334.516C249.505 335.404 248.233 335.848 246.625 335.848C244.609 335.848 243.001 335.164 241.801 333.796C240.625 332.428 240.037 330.58 240.037 328.252V324.4C240.037 322.096 240.625 320.26 241.801 318.892C243.001 317.524 244.609 316.84 246.625 316.84C248.233 316.84 249.505 317.296 250.441 318.208C251.401 319.096 251.881 320.344 251.881 321.952L250.909 320.98H251.881L251.773 317.2H256.273V337C256.273 338.992 255.613 340.564 254.293 341.716C252.973 342.892 251.161 343.48 248.857 343.48H242.917ZM248.137 331.96C249.289 331.96 250.177 331.624 250.801 330.952C251.449 330.256 251.773 329.296 251.773 328.072V324.616C251.773 323.392 251.449 322.444 250.801 321.772C250.177 321.076 249.289 320.728 248.137 320.728C246.985 320.728 246.097 321.064 245.473 321.736C244.849 322.408 244.537 323.368 244.537 324.616V328.072C244.537 329.32 244.849 330.28 245.473 330.952C246.097 331.624 246.985 331.96 248.137 331.96ZM261.767 337V332.896H268.679V321.268H262.667V317.2H272.999V332.896H279.119V337H261.767ZM270.479 313.888C269.567 313.888 268.847 313.66 268.319 313.204C267.791 312.724 267.527 312.088 267.527 311.296C267.527 310.504 267.791 309.88 268.319 309.424C268.847 308.944 269.567 308.704 270.479 308.704C271.391 308.704 272.111 308.944 272.639 309.424C273.167 309.88 273.431 310.504 273.431 311.296C273.431 312.088 273.167 312.724 272.639 313.204C272.111 313.66 271.391 313.888 270.479 313.888ZM283.389 337V317.2H287.781V320.98H289.005L287.781 322.024C287.781 320.392 288.249 319.12 289.185 318.208C290.145 317.296 291.453 316.84 293.109 316.84C295.053 316.84 296.601 317.488 297.753 318.784C298.929 320.08 299.517 321.82 299.517 324.004V337H295.017V324.472C295.017 323.272 294.705 322.348 294.081 321.7C293.457 321.052 292.581 320.728 291.453 320.728C290.349 320.728 289.473 321.064 288.825 321.736C288.201 322.408 287.889 323.368 287.889 324.616V337H283.389ZM313.039 337.36C311.359 337.36 309.895 337.036 308.647 336.388C307.399 335.74 306.427 334.84 305.731 333.688C305.059 332.512 304.723 331.144 304.723 329.584V324.616C304.723 323.056 305.059 321.7 305.731 320.548C306.427 319.372 307.399 318.46 308.647 317.812C309.895 317.164 311.359 316.84 313.039 316.84C314.695 316.84 316.135 317.164 317.359 317.812C318.607 318.46 319.567 319.372 320.239 320.548C320.935 321.7 321.283 323.056 321.283 324.616V328.18H309.079V329.584C309.079 330.976 309.415 332.032 310.087 332.752C310.759 333.448 311.755 333.796 313.075 333.796C314.083 333.796 314.899 333.628 315.523 333.292C316.147 332.932 316.543 332.416 316.711 331.744H321.139C320.803 333.448 319.891 334.816 318.403 335.848C316.939 336.856 315.151 337.36 313.039 337.36ZM316.927 325.66V324.58C316.927 323.212 316.603 322.168 315.955 321.448C315.307 320.704 314.335 320.332 313.039 320.332C311.743 320.332 310.759 320.704 310.087 321.448C309.415 322.192 309.079 323.248 309.079 324.616V325.372L317.251 325.3L316.927 325.66ZM334.625 337.36C332.945 337.36 331.481 337.036 330.233 336.388C328.985 335.74 328.013 334.84 327.317 333.688C326.645 332.512 326.309 331.144 326.309 329.584V324.616C326.309 323.056 326.645 321.7 327.317 320.548C328.013 319.372 328.985 318.46 330.233 317.812C331.481 317.164 332.945 316.84 334.625 316.84C336.281 316.84 337.721 317.164 338.945 317.812C340.193 318.46 341.153 319.372 341.825 320.548C342.521 321.7 342.869 323.056 342.869 324.616V328.18H330.665V329.584C330.665 330.976 331.001 332.032 331.673 332.752C332.345 333.448 333.341 333.796 334.661 333.796C335.669 333.796 336.485 333.628 337.109 333.292C337.733 332.932 338.129 332.416 338.297 331.744H342.725C342.389 333.448 341.477 334.816 339.989 335.848C338.525 336.856 336.737 337.36 334.625 337.36ZM338.513 325.66V324.58C338.513 323.212 338.189 322.168 337.541 321.448C336.893 320.704 335.921 320.332 334.625 320.332C333.329 320.332 332.345 320.704 331.673 321.448C331.001 322.192 330.665 323.248 330.665 324.616V325.372L338.837 325.3L338.513 325.66ZM348.759 337V317.2H353.007V320.98H354.123L352.791 323.284C352.791 321.148 353.271 319.54 354.231 318.46C355.191 317.38 356.607 316.84 358.479 316.84C360.615 316.84 362.295 317.5 363.519 318.82C364.743 320.14 365.355 321.964 365.355 324.292V325.732H360.639V324.616C360.639 323.344 360.303 322.36 359.631 321.664C358.983 320.968 358.083 320.62 356.931 320.62C355.755 320.62 354.843 320.968 354.195 321.664C353.571 322.36 353.259 323.344 353.259 324.616V337H348.759ZM401.039 337.36C399.407 337.36 398.111 336.904 397.151 335.992C396.191 335.056 395.711 333.784 395.711 332.176L396.719 333.22H395.711V337H391.319V310.72H395.819V316.264L395.675 320.98H396.719L395.711 322.024C395.711 320.416 396.191 319.156 397.151 318.244C398.111 317.308 399.407 316.84 401.039 316.84C403.031 316.84 404.627 317.524 405.827 318.892C407.027 320.26 407.627 322.108 407.627 324.436V329.8C407.627 332.104 407.027 333.94 405.827 335.308C404.627 336.676 403.031 337.36 401.039 337.36ZM399.455 333.472C400.607 333.472 401.507 333.136 402.155 332.464C402.803 331.792 403.127 330.832 403.127 329.584V324.616C403.127 323.368 402.803 322.408 402.155 321.736C401.507 321.064 400.607 320.728 399.455 320.728C398.327 320.728 397.439 321.076 396.791 321.772C396.143 322.444 395.819 323.392 395.819 324.616V329.584C395.819 330.808 396.143 331.768 396.791 332.464C397.439 333.136 398.327 333.472 399.455 333.472ZM418.737 337.36C416.697 337.36 415.089 336.82 413.913 335.74C412.737 334.66 412.149 333.208 412.149 331.384C412.149 329.44 412.797 327.94 414.093 326.884C415.389 325.828 417.225 325.3 419.601 325.3H424.533V323.608C424.533 322.648 424.221 321.904 423.597 321.376C422.973 320.824 422.121 320.548 421.041 320.548C420.057 320.548 419.241 320.764 418.593 321.196C417.945 321.628 417.561 322.216 417.441 322.96H413.049C413.265 321.088 414.105 319.6 415.569 318.496C417.033 317.392 418.905 316.84 421.185 316.84C423.609 316.84 425.517 317.452 426.909 318.676C428.325 319.876 429.033 321.508 429.033 323.572V337H424.677V333.544H423.957L424.677 332.572C424.677 334.036 424.137 335.2 423.057 336.064C421.977 336.928 420.537 337.36 418.737 337.36ZM420.213 333.976C421.485 333.976 422.517 333.652 423.309 333.004C424.125 332.356 424.533 331.516 424.533 330.484V328.072H419.673C418.761 328.072 418.029 328.336 417.477 328.864C416.925 329.392 416.649 330.088 416.649 330.952C416.649 331.888 416.961 332.632 417.585 333.184C418.233 333.712 419.109 333.976 420.213 333.976ZM441.763 337.324C440.251 337.324 438.931 337.084 437.803 336.604C436.675 336.124 435.787 335.464 435.139 334.624C434.515 333.76 434.179 332.752 434.131 331.6H438.631C438.679 332.224 438.979 332.728 439.531 333.112C440.107 333.496 440.851 333.688 441.763 333.688H443.347C444.451 333.688 445.279 333.472 445.831 333.04C446.383 332.608 446.659 332.02 446.659 331.276C446.659 330.58 446.407 330.04 445.903 329.656C445.423 329.248 444.667 328.984 443.635 328.864L441.187 328.504C438.931 328.192 437.275 327.592 436.219 326.704C435.163 325.816 434.635 324.484 434.635 322.708C434.635 320.86 435.259 319.432 436.507 318.424C437.755 317.392 439.591 316.876 442.015 316.876H443.383C445.591 316.876 447.355 317.368 448.675 318.352C449.995 319.336 450.703 320.656 450.799 322.312H446.299C446.227 321.784 445.927 321.352 445.399 321.016C444.895 320.68 444.223 320.512 443.383 320.512H442.015C440.983 320.512 440.227 320.704 439.747 321.088C439.291 321.448 439.063 321.988 439.063 322.708C439.063 323.38 439.267 323.884 439.675 324.22C440.083 324.532 440.743 324.76 441.655 324.904L444.211 325.264C446.563 325.6 448.291 326.236 449.395 327.172C450.523 328.084 451.087 329.44 451.087 331.24C451.087 333.16 450.427 334.66 449.107 335.74C447.811 336.796 445.891 337.324 443.347 337.324H441.763ZM464.141 337.36C462.461 337.36 460.997 337.036 459.749 336.388C458.501 335.74 457.529 334.84 456.833 333.688C456.161 332.512 455.825 331.144 455.825 329.584V324.616C455.825 323.056 456.161 321.7 456.833 320.548C457.529 319.372 458.501 318.46 459.749 317.812C460.997 317.164 462.461 316.84 464.141 316.84C465.797 316.84 467.237 317.164 468.461 317.812C469.709 318.46 470.669 319.372 471.341 320.548C472.037 321.7 472.385 323.056 472.385 324.616V328.18H460.181V329.584C460.181 330.976 460.517 332.032 461.189 332.752C461.861 333.448 462.857 333.796 464.177 333.796C465.185 333.796 466.001 333.628 466.625 333.292C467.249 332.932 467.645 332.416 467.813 331.744H472.241C471.905 333.448 470.993 334.816 469.505 335.848C468.041 336.856 466.253 337.36 464.141 337.36ZM468.029 325.66V324.58C468.029 323.212 467.705 322.168 467.057 321.448C466.409 320.704 465.437 320.332 464.141 320.332C462.845 320.332 461.861 320.704 461.189 321.448C460.517 322.192 460.181 323.248 460.181 324.616V325.372L468.353 325.3L468.029 325.66ZM483.999 337.36C482.031 337.36 480.435 336.676 479.211 335.308C478.011 333.94 477.411 332.104 477.411 329.8V324.436C477.411 322.108 478.011 320.26 479.211 318.892C480.411 317.524 482.007 316.84 483.999 316.84C485.631 316.84 486.927 317.308 487.887 318.244C488.847 319.156 489.327 320.416 489.327 322.024L488.319 320.98H489.363L489.219 316.264V310.72H493.719V337H489.327V333.22H488.319L489.327 332.176C489.327 333.784 488.847 335.056 487.887 335.992C486.927 336.904 485.631 337.36 483.999 337.36ZM485.583 333.472C486.735 333.472 487.623 333.136 488.247 332.464C488.895 331.768 489.219 330.808 489.219 329.584V324.616C489.219 323.392 488.895 322.444 488.247 321.772C487.623 321.076 486.735 320.728 485.583 320.728C484.431 320.728 483.531 321.064 482.883 321.736C482.235 322.408 481.911 323.368 481.911 324.616V329.584C481.911 330.832 482.235 331.792 482.883 332.464C483.531 333.136 484.431 333.472 485.583 333.472ZM520.799 337V332.896H527.711V321.268H521.699V317.2H532.031V332.896H538.151V337H520.799ZM529.511 313.888C528.599 313.888 527.879 313.66 527.351 313.204C526.823 312.724 526.559 312.088 526.559 311.296C526.559 310.504 526.823 309.88 527.351 309.424C527.879 308.944 528.599 308.704 529.511 308.704C530.423 308.704 531.143 308.944 531.671 309.424C532.199 309.88 532.463 310.504 532.463 311.296C532.463 312.088 532.199 312.724 531.671 313.204C531.143 313.66 530.423 313.888 529.511 313.888ZM542.42 337V317.2H546.812V320.98H548.036L546.812 322.024C546.812 320.392 547.28 319.12 548.216 318.208C549.176 317.296 550.484 316.84 552.14 316.84C554.084 316.84 555.632 317.488 556.784 318.784C557.96 320.08 558.548 321.82 558.548 324.004V337H554.048V324.472C554.048 323.272 553.736 322.348 553.112 321.7C552.488 321.052 551.612 320.728 550.484 320.728C549.38 320.728 548.504 321.064 547.856 321.736C547.232 322.408 546.92 323.368 546.92 324.616V337H542.42ZM593.692 337.36C591.892 337.36 590.332 337.06 589.012 336.46C587.692 335.86 586.672 335.008 585.952 333.904C585.256 332.776 584.896 331.456 584.872 329.944H589.372C589.372 331.024 589.756 331.876 590.524 332.5C591.316 333.1 592.384 333.4 593.728 333.4C595.024 333.4 596.032 333.1 596.752 332.5C597.496 331.9 597.868 331.072 597.868 330.016C597.868 329.128 597.604 328.36 597.076 327.712C596.572 327.04 595.84 326.584 594.88 326.344L591.856 325.516C589.792 324.988 588.196 324.04 587.068 322.672C585.964 321.304 585.412 319.648 585.412 317.704C585.412 316.216 585.748 314.92 586.42 313.816C587.092 312.712 588.04 311.86 589.264 311.26C590.512 310.66 591.976 310.36 593.656 310.36C596.2 310.36 598.216 311.02 599.704 312.34C601.192 313.636 601.948 315.388 601.972 317.596H597.472C597.472 316.564 597.136 315.76 596.464 315.184C595.792 314.584 594.844 314.284 593.62 314.284C592.444 314.284 591.532 314.56 590.884 315.112C590.236 315.664 589.912 316.444 589.912 317.452C589.912 318.364 590.152 319.144 590.632 319.792C591.136 320.416 591.856 320.86 592.792 321.124L595.924 321.988C598.012 322.516 599.608 323.464 600.712 324.832C601.816 326.176 602.368 327.844 602.368 329.836C602.368 331.324 602.008 332.644 601.288 333.796C600.568 334.924 599.56 335.8 598.264 336.424C596.968 337.048 595.444 337.36 593.692 337.36ZM615.242 337.36C613.562 337.36 612.098 337.036 610.85 336.388C609.602 335.74 608.63 334.84 607.934 333.688C607.262 332.512 606.926 331.144 606.926 329.584V324.616C606.926 323.056 607.262 321.7 607.934 320.548C608.63 319.372 609.602 318.46 610.85 317.812C612.098 317.164 613.562 316.84 615.242 316.84C616.898 316.84 618.338 317.164 619.562 317.812C620.81 318.46 621.77 319.372 622.442 320.548C623.138 321.7 623.486 323.056 623.486 324.616V328.18H611.282V329.584C611.282 330.976 611.618 332.032 612.29 332.752C612.962 333.448 613.958 333.796 615.278 333.796C616.286 333.796 617.102 333.628 617.726 333.292C618.35 332.932 618.746 332.416 618.914 331.744H623.342C623.006 333.448 622.094 334.816 620.606 335.848C619.142 336.856 617.354 337.36 615.242 337.36ZM619.13 325.66V324.58C619.13 323.212 618.806 322.168 618.158 321.448C617.51 320.704 616.538 320.332 615.242 320.332C613.946 320.332 612.962 320.704 612.29 321.448C611.618 322.192 611.282 323.248 611.282 324.616V325.372L619.454 325.3L619.13 325.66ZM629.376 337V317.2H633.624V320.98H634.74L633.408 323.284C633.408 321.148 633.888 319.54 634.848 318.46C635.808 317.38 637.224 316.84 639.096 316.84C641.232 316.84 642.912 317.5 644.136 318.82C645.36 320.14 645.972 321.964 645.972 324.292V325.732H641.256V324.616C641.256 323.344 640.92 322.36 640.248 321.664C639.6 320.968 638.7 320.62 637.548 320.62C636.372 320.62 635.46 320.968 634.812 321.664C634.188 322.36 633.876 323.344 633.876 324.616V337H629.376ZM660.07 337.36C658.438 337.36 657.142 336.904 656.182 335.992C655.222 335.056 654.742 333.784 654.742 332.176L655.75 333.22H654.742V337H650.35V310.72H654.85V316.264L654.706 320.98H655.75L654.742 322.024C654.742 320.416 655.222 319.156 656.182 318.244C657.142 317.308 658.438 316.84 660.07 316.84C662.062 316.84 663.658 317.524 664.858 318.892C666.058 320.26 666.658 322.108 666.658 324.436V329.8C666.658 332.104 666.058 333.94 664.858 335.308C663.658 336.676 662.062 337.36 660.07 337.36ZM658.486 333.472C659.638 333.472 660.538 333.136 661.186 332.464C661.834 331.792 662.158 330.832 662.158 329.584V324.616C662.158 323.368 661.834 322.408 661.186 321.736C660.538 321.064 659.638 320.728 658.486 320.728C657.358 320.728 656.47 321.076 655.822 321.772C655.174 322.444 654.85 323.392 654.85 324.616V329.584C654.85 330.808 655.174 331.768 655.822 332.464C656.47 333.136 657.358 333.472 658.486 333.472ZM671.9 337V332.896H678.812V321.268H672.8V317.2H683.132V332.896H689.252V337H671.9ZM680.612 313.888C679.7 313.888 678.98 313.66 678.452 313.204C677.924 312.724 677.66 312.088 677.66 311.296C677.66 310.504 677.924 309.88 678.452 309.424C678.98 308.944 679.7 308.704 680.612 308.704C681.524 308.704 682.244 308.944 682.772 309.424C683.3 309.88 683.564 310.504 683.564 311.296C683.564 312.088 683.3 312.724 682.772 313.204C682.244 313.66 681.524 313.888 680.612 313.888ZM699.354 337.36C697.314 337.36 695.706 336.82 694.53 335.74C693.354 334.66 692.766 333.208 692.766 331.384C692.766 329.44 693.414 327.94 694.71 326.884C696.006 325.828 697.842 325.3 700.218 325.3H705.15V323.608C705.15 322.648 704.838 321.904 704.214 321.376C703.59 320.824 702.738 320.548 701.658 320.548C700.674 320.548 699.858 320.764 699.21 321.196C698.562 321.628 698.178 322.216 698.058 322.96H693.666C693.882 321.088 694.722 319.6 696.186 318.496C697.65 317.392 699.522 316.84 701.802 316.84C704.226 316.84 706.134 317.452 707.526 318.676C708.942 319.876 709.65 321.508 709.65 323.572V337H705.294V333.544H704.574L705.294 332.572C705.294 334.036 704.754 335.2 703.674 336.064C702.594 336.928 701.154 337.36 699.354 337.36ZM700.83 333.976C702.102 333.976 703.134 333.652 703.926 333.004C704.742 332.356 705.15 331.516 705.15 330.484V328.072H700.29C699.378 328.072 698.646 328.336 698.094 328.864C697.542 329.392 697.266 330.088 697.266 330.952C697.266 331.888 697.578 332.632 698.202 333.184C698.85 333.712 699.726 333.976 700.83 333.976ZM714.496 341.968V337.9H731.776V341.968H714.496Z" fill="#6FFF9D"/>
</svg>
