<svg width="1027" height="215" viewBox="0 0 1027 215" fill="none" xmlns="http://www.w3.org/2000/svg">
<rect x="458" width="407" height="132" fill="#6FFF9D"/>
<path d="M7.392 103V32.92H19.392V61.048H38.208V32.92H50.208V103H38.208V72.184H19.392V103H7.392ZM64.8585 103V92.056H83.2905V61.048H67.2585V50.2H94.8105V92.056H111.131V103H64.8585ZM88.0905 41.368C85.6585 41.368 83.7385 40.76 82.3305 39.544C80.9225 38.264 80.2185 36.568 80.2185 34.456C80.2185 32.344 80.9225 30.68 82.3305 29.464C83.7385 28.184 85.6585 27.544 88.0905 27.544C90.5225 27.544 92.4425 28.184 93.8505 29.464C95.2585 30.68 95.9625 32.344 95.9625 34.456C95.9625 36.568 95.2585 38.264 93.8505 39.544C92.4425 40.76 90.5225 41.368 88.0905 41.368ZM129.525 118.36L137.205 88.504H152.565L140.085 118.36H129.525ZM238.89 103V92.44H253.002V43.48H238.89V32.92H279.21V43.48H265.098V92.44H279.21V103H238.89ZM301.733 58.36L309.413 28.504H324.773L312.293 58.36H301.733ZM350.367 103V50.2H360.159V57.304H362.175L360.543 59.032C360.543 56.088 361.375 53.72 363.039 51.928C364.703 50.136 366.847 49.24 369.471 49.24C372.287 49.24 374.463 50.392 375.999 52.696C377.599 55 378.399 58.104 378.399 62.008L376.287 57.304H379.551L378.303 59.032C378.303 56.088 379.135 53.72 380.799 51.928C382.463 50.136 384.671 49.24 387.423 49.24C390.687 49.24 393.279 50.456 395.199 52.888C397.119 55.32 398.079 58.616 398.079 62.776V103H387.519V63.256C387.519 61.528 387.135 60.184 386.367 59.224C385.599 58.2 384.479 57.688 383.007 57.688C381.599 57.688 380.479 58.168 379.647 59.128C378.879 60.088 378.495 61.464 378.495 63.256V103H369.855V63.256C369.855 61.464 369.471 60.088 368.703 59.128C367.935 58.168 366.815 57.688 365.343 57.688C363.871 57.688 362.751 58.168 361.983 59.128C361.279 60.088 360.927 61.464 360.927 63.256V103H350.367ZM887.822 80.632L885.71 46.168V32.92H898.766V46.168L896.654 80.632H887.822ZM890.798 103.48C888.814 103.48 887.214 102.904 885.998 101.752C884.782 100.536 884.174 99 884.174 97.144C884.174 95.288 884.782 93.784 885.998 92.632C887.214 91.416 888.814 90.808 890.798 90.808H893.678C895.726 90.808 897.326 91.384 898.478 92.536C899.694 93.688 900.302 95.224 900.302 97.144C900.302 99 899.694 100.536 898.478 101.752C897.262 102.904 895.63 103.48 893.582 103.48H890.798Z" fill="#6FFF9D"/>
<path d="M465.876 103V32.92H480.084L486.9 55.192C487.604 57.432 488.18 59.48 488.628 61.336C489.076 63.192 489.364 64.536 489.492 65.368C489.62 64.536 489.908 63.192 490.356 61.336C490.804 59.48 491.348 57.432 491.988 55.192L498.516 32.92H512.724V103H501.492V81.208C501.492 78.008 501.588 74.52 501.78 70.744C501.972 66.968 502.196 63.192 502.452 59.416C502.708 55.64 502.996 52.056 503.316 48.664C503.7 45.272 504.02 42.296 504.276 39.736L494.868 72.856H483.924L474.228 39.736C474.548 42.168 474.868 45.048 475.188 48.376C475.508 51.64 475.796 55.16 476.052 58.936C476.372 62.648 476.628 66.424 476.82 70.264C477.012 74.104 477.108 77.752 477.108 81.208V103H465.876ZM525.359 103V92.056H543.791V61.048H527.759V50.2H555.311V92.056H571.631V103H525.359ZM548.591 41.368C546.159 41.368 544.239 40.76 542.831 39.544C541.423 38.264 540.719 36.568 540.719 34.456C540.719 32.344 541.423 30.68 542.831 29.464C544.239 28.184 546.159 27.544 548.591 27.544C551.023 27.544 552.943 28.184 554.351 29.464C555.759 30.68 556.463 32.344 556.463 34.456C556.463 36.568 555.759 38.264 554.351 39.544C552.943 40.76 551.023 41.368 548.591 41.368ZM604.713 103.96C600.233 103.96 596.297 103.128 592.905 101.464C589.577 99.736 586.985 97.336 585.129 94.264C583.273 91.128 582.345 87.448 582.345 83.224V69.976C582.345 65.688 583.273 62.008 585.129 58.936C586.985 55.864 589.577 53.496 592.905 51.832C596.297 50.104 600.233 49.24 604.713 49.24C611.369 49.24 616.681 50.968 620.649 54.424C624.617 57.816 626.697 62.456 626.889 68.344H614.889C614.697 65.592 613.705 63.48 611.913 62.008C610.185 60.472 607.785 59.704 604.713 59.704C601.513 59.704 598.985 60.6 597.129 62.392C595.273 64.12 594.345 66.616 594.345 69.88V83.224C594.345 86.488 595.273 89.016 597.129 90.808C598.985 92.6 601.513 93.496 604.713 93.496C607.785 93.496 610.185 92.76 611.913 91.288C613.705 89.752 614.697 87.608 614.889 84.856H626.889C626.697 90.744 624.617 95.416 620.649 98.872C616.681 102.264 611.369 103.96 604.713 103.96ZM640.58 103V32.92H652.58V50.2L652.292 60.28H655.556L652.292 63.064C652.292 58.712 653.54 55.32 656.036 52.888C658.596 50.456 662.084 49.24 666.5 49.24C671.684 49.24 675.812 50.968 678.884 54.424C682.02 57.88 683.588 62.52 683.588 68.344V103H671.588V69.592C671.588 66.392 670.756 63.928 669.092 62.2C667.428 60.472 665.092 59.608 662.084 59.608C659.14 59.608 656.804 60.504 655.076 62.296C653.412 64.088 652.58 66.648 652.58 69.976V103H640.58ZM713.694 103.96C708.254 103.96 703.966 102.52 700.83 99.64C697.694 96.76 696.126 92.888 696.126 88.024C696.126 82.84 697.854 78.84 701.31 76.024C704.766 73.208 709.662 71.8 715.998 71.8H729.15V67.288C729.15 64.728 728.318 62.744 726.654 61.336C724.99 59.864 722.718 59.128 719.838 59.128C717.214 59.128 715.038 59.704 713.31 60.856C711.582 62.008 710.558 63.576 710.238 65.56H698.526C699.102 60.568 701.342 56.6 705.246 53.656C709.15 50.712 714.142 49.24 720.222 49.24C726.686 49.24 731.774 50.872 735.486 54.136C739.262 57.336 741.15 61.688 741.15 67.192V103H729.534V93.784H727.614L729.534 91.192C729.534 95.096 728.094 98.2 725.214 100.504C722.334 102.808 718.494 103.96 713.694 103.96ZM717.63 94.936C721.022 94.936 723.774 94.072 725.886 92.344C728.062 90.616 729.15 88.376 729.15 85.624V79.192H716.19C713.758 79.192 711.806 79.896 710.334 81.304C708.862 82.712 708.126 84.568 708.126 86.872C708.126 89.368 708.958 91.352 710.622 92.824C712.35 94.232 714.686 94.936 717.63 94.936ZM777.209 103.96C772.729 103.96 768.825 103.096 765.497 101.368C762.169 99.64 759.577 97.24 757.721 94.168C755.929 91.032 755.033 87.384 755.033 83.224V69.976C755.033 65.816 755.929 62.2 757.721 59.128C759.577 55.992 762.169 53.56 765.497 51.832C768.825 50.104 772.729 49.24 777.209 49.24C781.625 49.24 785.465 50.104 788.729 51.832C792.057 53.56 794.617 55.992 796.409 59.128C798.265 62.2 799.193 65.816 799.193 69.976V79.48H766.649V83.224C766.649 86.936 767.545 89.752 769.337 91.672C771.129 93.528 773.785 94.456 777.305 94.456C779.993 94.456 782.169 94.008 783.833 93.112C785.497 92.152 786.553 90.776 787.001 88.984H798.809C797.913 93.528 795.481 97.176 791.513 99.928C787.609 102.616 782.841 103.96 777.209 103.96ZM787.577 72.76V69.88C787.577 66.232 786.713 63.448 784.985 61.528C783.257 59.544 780.665 58.552 777.209 58.552C773.753 58.552 771.129 59.544 769.337 61.528C767.545 63.512 766.649 66.328 766.649 69.976V71.992L788.441 71.8L787.577 72.76ZM842.739 103C839.283 103 836.243 102.296 833.619 100.888C831.059 99.48 829.043 97.496 827.571 94.936C826.099 92.312 825.363 89.304 825.363 85.912V43.768H808.467V32.92H837.363V85.912C837.363 87.832 837.907 89.368 838.995 90.52C840.147 91.608 841.683 92.152 843.603 92.152H859.539V103H842.739Z" fill="black"/>
<path d="M10.872 204.36C9.072 204.36 7.512 204.06 6.192 203.46C4.872 202.86 3.852 202.008 3.132 200.904C2.436 199.776 2.076 198.456 2.052 196.944H6.552C6.552 198.024 6.936 198.876 7.704 199.5C8.496 200.1 9.564 200.4 10.908 200.4C12.204 200.4 13.212 200.1 13.932 199.5C14.676 198.9 15.048 198.072 15.048 197.016C15.048 196.128 14.784 195.36 14.256 194.712C13.752 194.04 13.02 193.584 12.06 193.344L9.036 192.516C6.972 191.988 5.376 191.04 4.248 189.672C3.144 188.304 2.592 186.648 2.592 184.704C2.592 183.216 2.928 181.92 3.6 180.816C4.272 179.712 5.22 178.86 6.444 178.26C7.692 177.66 9.156 177.36 10.836 177.36C13.38 177.36 15.396 178.02 16.884 179.34C18.372 180.636 19.128 182.388 19.152 184.596H14.652C14.652 183.564 14.316 182.76 13.644 182.184C12.972 181.584 12.024 181.284 10.8 181.284C9.624 181.284 8.712 181.56 8.064 182.112C7.416 182.664 7.092 183.444 7.092 184.452C7.092 185.364 7.332 186.144 7.812 186.792C8.316 187.416 9.036 187.86 9.972 188.124L13.104 188.988C15.192 189.516 16.788 190.464 17.892 191.832C18.996 193.176 19.548 194.844 19.548 196.836C19.548 198.324 19.188 199.644 18.468 200.796C17.748 201.924 16.74 202.8 15.444 203.424C14.148 204.048 12.624 204.36 10.872 204.36ZM32.3859 204.324C30.7059 204.324 29.2419 204.012 27.9939 203.388C26.7699 202.74 25.8099 201.84 25.1139 200.688C24.4419 199.512 24.1059 198.132 24.1059 196.548V191.652C24.1059 190.068 24.4419 188.7 25.1139 187.548C25.8099 186.372 26.7699 185.472 27.9939 184.848C29.2419 184.2 30.7059 183.876 32.3859 183.876C34.0899 183.876 35.5539 184.2 36.7779 184.848C38.0019 185.472 38.9499 186.372 39.6219 187.548C40.3179 188.7 40.6659 190.056 40.6659 191.616V196.548C40.6659 198.132 40.3179 199.512 39.6219 200.688C38.9499 201.84 38.0019 202.74 36.7779 203.388C35.5539 204.012 34.0899 204.324 32.3859 204.324ZM32.3859 200.4C33.5859 200.4 34.5099 200.076 35.1579 199.428C35.8299 198.756 36.1659 197.796 36.1659 196.548V191.652C36.1659 190.38 35.8299 189.42 35.1579 188.772C34.5099 188.124 33.5859 187.8 32.3859 187.8C31.2099 187.8 30.2859 188.124 29.6139 188.772C28.9419 189.42 28.6059 190.38 28.6059 191.652V196.548C28.6059 197.796 28.9419 198.756 29.6139 199.428C30.2859 200.076 31.2099 200.4 32.3859 200.4ZM50.5519 204V190.464H45.1159V186.396H50.5519V183.408C50.5519 181.68 51.1279 180.3 52.2799 179.268C53.4319 178.236 54.9559 177.72 56.8519 177.72H62.6479V181.68H56.9599C56.3839 181.68 55.9159 181.848 55.5559 182.184C55.2199 182.496 55.0519 182.928 55.0519 183.48V186.396H62.6479V190.464H55.0519V204H50.5519ZM77.7178 204C75.8218 204 74.3338 203.472 73.2538 202.416C72.1978 201.36 71.6698 199.908 71.6698 198.06V188.268H66.3058V184.2H71.6698V178.62H76.2058V184.2H83.8018V188.268H76.2058V198.06C76.2058 199.308 76.8178 199.932 78.0418 199.932H83.4418V204H77.7178ZM90.0878 204L87.0638 184.2H90.8078L92.4638 196.332C92.5598 197.028 92.6438 197.796 92.7158 198.636C92.8118 199.476 92.8838 200.172 92.9318 200.724C93.0038 200.172 93.0998 199.476 93.2198 198.636C93.3398 197.796 93.4478 197.028 93.5438 196.332L95.4158 184.2H98.9078L100.744 196.332C100.84 197.028 100.948 197.808 101.068 198.672C101.188 199.512 101.284 200.208 101.356 200.76C101.404 200.184 101.476 199.476 101.572 198.636C101.692 197.772 101.788 197.004 101.86 196.332L103.624 184.2H107.224L104.128 204H99.4838L97.7558 191.796C97.6598 191.124 97.5518 190.38 97.4318 189.564C97.3118 188.724 97.2158 188.04 97.1438 187.512C97.0718 188.04 96.9758 188.724 96.8558 189.564C96.7598 190.38 96.6518 191.124 96.5318 191.796L94.7318 204H90.0878ZM116.534 204.36C114.494 204.36 112.886 203.82 111.71 202.74C110.534 201.66 109.946 200.208 109.946 198.384C109.946 196.44 110.594 194.94 111.89 193.884C113.186 192.828 115.022 192.3 117.398 192.3H122.33V190.608C122.33 189.648 122.018 188.904 121.394 188.376C120.77 187.824 119.918 187.548 118.838 187.548C117.854 187.548 117.038 187.764 116.39 188.196C115.742 188.628 115.358 189.216 115.238 189.96H110.846C111.062 188.088 111.902 186.6 113.366 185.496C114.83 184.392 116.702 183.84 118.982 183.84C121.406 183.84 123.314 184.452 124.706 185.676C126.122 186.876 126.83 188.508 126.83 190.572V204H122.474V200.544H121.754L122.474 199.572C122.474 201.036 121.934 202.2 120.854 203.064C119.774 203.928 118.334 204.36 116.534 204.36ZM118.01 200.976C119.282 200.976 120.314 200.652 121.106 200.004C121.922 199.356 122.33 198.516 122.33 197.484V195.072H117.47C116.558 195.072 115.826 195.336 115.274 195.864C114.722 196.392 114.446 197.088 114.446 197.952C114.446 198.888 114.758 199.632 115.382 200.184C116.03 200.712 116.906 200.976 118.01 200.976ZM132.9 204V184.2H137.148V187.98H138.264L136.932 190.284C136.932 188.148 137.412 186.54 138.372 185.46C139.332 184.38 140.748 183.84 142.62 183.84C144.756 183.84 146.436 184.5 147.66 185.82C148.884 187.14 149.496 188.964 149.496 191.292V192.732H144.78V191.616C144.78 190.344 144.444 189.36 143.772 188.664C143.124 187.968 142.224 187.62 141.072 187.62C139.896 187.62 138.984 187.968 138.336 188.664C137.712 189.36 137.4 190.344 137.4 191.616V204H132.9ZM161.938 204.36C160.258 204.36 158.794 204.036 157.546 203.388C156.298 202.74 155.326 201.84 154.63 200.688C153.958 199.512 153.622 198.144 153.622 196.584V191.616C153.622 190.056 153.958 188.7 154.63 187.548C155.326 186.372 156.298 185.46 157.546 184.812C158.794 184.164 160.258 183.84 161.938 183.84C163.594 183.84 165.034 184.164 166.258 184.812C167.506 185.46 168.466 186.372 169.138 187.548C169.834 188.7 170.182 190.056 170.182 191.616V195.18H157.978V196.584C157.978 197.976 158.314 199.032 158.986 199.752C159.658 200.448 160.654 200.796 161.974 200.796C162.982 200.796 163.798 200.628 164.422 200.292C165.046 199.932 165.442 199.416 165.61 198.744H170.038C169.702 200.448 168.79 201.816 167.302 202.848C165.838 203.856 164.05 204.36 161.938 204.36ZM165.826 192.66V191.58C165.826 190.212 165.502 189.168 164.854 188.448C164.206 187.704 163.234 187.332 161.938 187.332C160.642 187.332 159.658 187.704 158.986 188.448C158.314 189.192 157.978 190.248 157.978 191.616V192.372L166.15 192.3L165.826 192.66ZM197.441 204V177.72H213.209V181.644H201.869V188.484H211.949V192.372H201.869V200.076H213.209V204H197.441ZM218.631 204V184.2H223.023V187.98H224.247L223.023 189.024C223.023 187.392 223.491 186.12 224.427 185.208C225.387 184.296 226.695 183.84 228.351 183.84C230.295 183.84 231.843 184.488 232.995 185.784C234.171 187.08 234.759 188.82 234.759 191.004V204H230.259V191.472C230.259 190.272 229.947 189.348 229.323 188.7C228.699 188.052 227.823 187.728 226.695 187.728C225.591 187.728 224.715 188.064 224.067 188.736C223.443 189.408 223.131 190.368 223.131 191.616V204H218.631ZM242.917 210.48V206.736H248.785C249.793 206.736 250.549 206.484 251.053 205.98C251.557 205.5 251.809 204.804 251.809 203.892V202.416L251.881 198.708H250.909L251.881 197.736C251.881 199.344 251.401 200.604 250.441 201.516C249.505 202.404 248.233 202.848 246.625 202.848C244.609 202.848 243.001 202.164 241.801 200.796C240.625 199.428 240.037 197.58 240.037 195.252V191.4C240.037 189.096 240.625 187.26 241.801 185.892C243.001 184.524 244.609 183.84 246.625 183.84C248.233 183.84 249.505 184.296 250.441 185.208C251.401 186.096 251.881 187.344 251.881 188.952L250.909 187.98H251.881L251.773 184.2H256.273V204C256.273 205.992 255.613 207.564 254.293 208.716C252.973 209.892 251.161 210.48 248.857 210.48H242.917ZM248.137 198.96C249.289 198.96 250.177 198.624 250.801 197.952C251.449 197.256 251.773 196.296 251.773 195.072V191.616C251.773 190.392 251.449 189.444 250.801 188.772C250.177 188.076 249.289 187.728 248.137 187.728C246.985 187.728 246.097 188.064 245.473 188.736C244.849 189.408 244.537 190.368 244.537 191.616V195.072C244.537 196.32 244.849 197.28 245.473 197.952C246.097 198.624 246.985 198.96 248.137 198.96ZM261.767 204V199.896H268.679V188.268H262.667V184.2H272.999V199.896H279.119V204H261.767ZM270.479 180.888C269.567 180.888 268.847 180.66 268.319 180.204C267.791 179.724 267.527 179.088 267.527 178.296C267.527 177.504 267.791 176.88 268.319 176.424C268.847 175.944 269.567 175.704 270.479 175.704C271.391 175.704 272.111 175.944 272.639 176.424C273.167 176.88 273.431 177.504 273.431 178.296C273.431 179.088 273.167 179.724 272.639 180.204C272.111 180.66 271.391 180.888 270.479 180.888ZM283.389 204V184.2H287.781V187.98H289.005L287.781 189.024C287.781 187.392 288.249 186.12 289.185 185.208C290.145 184.296 291.453 183.84 293.109 183.84C295.053 183.84 296.601 184.488 297.753 185.784C298.929 187.08 299.517 188.82 299.517 191.004V204H295.017V191.472C295.017 190.272 294.705 189.348 294.081 188.7C293.457 188.052 292.581 187.728 291.453 187.728C290.349 187.728 289.473 188.064 288.825 188.736C288.201 189.408 287.889 190.368 287.889 191.616V204H283.389ZM313.039 204.36C311.359 204.36 309.895 204.036 308.647 203.388C307.399 202.74 306.427 201.84 305.731 200.688C305.059 199.512 304.723 198.144 304.723 196.584V191.616C304.723 190.056 305.059 188.7 305.731 187.548C306.427 186.372 307.399 185.46 308.647 184.812C309.895 184.164 311.359 183.84 313.039 183.84C314.695 183.84 316.135 184.164 317.359 184.812C318.607 185.46 319.567 186.372 320.239 187.548C320.935 188.7 321.283 190.056 321.283 191.616V195.18H309.079V196.584C309.079 197.976 309.415 199.032 310.087 199.752C310.759 200.448 311.755 200.796 313.075 200.796C314.083 200.796 314.899 200.628 315.523 200.292C316.147 199.932 316.543 199.416 316.711 198.744H321.139C320.803 200.448 319.891 201.816 318.403 202.848C316.939 203.856 315.151 204.36 313.039 204.36ZM316.927 192.66V191.58C316.927 190.212 316.603 189.168 315.955 188.448C315.307 187.704 314.335 187.332 313.039 187.332C311.743 187.332 310.759 187.704 310.087 188.448C309.415 189.192 309.079 190.248 309.079 191.616V192.372L317.251 192.3L316.927 192.66ZM334.625 204.36C332.945 204.36 331.481 204.036 330.233 203.388C328.985 202.74 328.013 201.84 327.317 200.688C326.645 199.512 326.309 198.144 326.309 196.584V191.616C326.309 190.056 326.645 188.7 327.317 187.548C328.013 186.372 328.985 185.46 330.233 184.812C331.481 184.164 332.945 183.84 334.625 183.84C336.281 183.84 337.721 184.164 338.945 184.812C340.193 185.46 341.153 186.372 341.825 187.548C342.521 188.7 342.869 190.056 342.869 191.616V195.18H330.665V196.584C330.665 197.976 331.001 199.032 331.673 199.752C332.345 200.448 333.341 200.796 334.661 200.796C335.669 200.796 336.485 200.628 337.109 200.292C337.733 199.932 338.129 199.416 338.297 198.744H342.725C342.389 200.448 341.477 201.816 339.989 202.848C338.525 203.856 336.737 204.36 334.625 204.36ZM338.513 192.66V191.58C338.513 190.212 338.189 189.168 337.541 188.448C336.893 187.704 335.921 187.332 334.625 187.332C333.329 187.332 332.345 187.704 331.673 188.448C331.001 189.192 330.665 190.248 330.665 191.616V192.372L338.837 192.3L338.513 192.66ZM348.759 204V184.2H353.007V187.98H354.123L352.791 190.284C352.791 188.148 353.271 186.54 354.231 185.46C355.191 184.38 356.607 183.84 358.479 183.84C360.615 183.84 362.295 184.5 363.519 185.82C364.743 187.14 365.355 188.964 365.355 191.292V192.732H360.639V191.616C360.639 190.344 360.303 189.36 359.631 188.664C358.983 187.968 358.083 187.62 356.931 187.62C355.755 187.62 354.843 187.968 354.195 188.664C353.571 189.36 353.259 190.344 353.259 191.616V204H348.759ZM401.039 204.36C399.407 204.36 398.111 203.904 397.151 202.992C396.191 202.056 395.711 200.784 395.711 199.176L396.719 200.22H395.711V204H391.319V177.72H395.819V183.264L395.675 187.98H396.719L395.711 189.024C395.711 187.416 396.191 186.156 397.151 185.244C398.111 184.308 399.407 183.84 401.039 183.84C403.031 183.84 404.627 184.524 405.827 185.892C407.027 187.26 407.627 189.108 407.627 191.436V196.8C407.627 199.104 407.027 200.94 405.827 202.308C404.627 203.676 403.031 204.36 401.039 204.36ZM399.455 200.472C400.607 200.472 401.507 200.136 402.155 199.464C402.803 198.792 403.127 197.832 403.127 196.584V191.616C403.127 190.368 402.803 189.408 402.155 188.736C401.507 188.064 400.607 187.728 399.455 187.728C398.327 187.728 397.439 188.076 396.791 188.772C396.143 189.444 395.819 190.392 395.819 191.616V196.584C395.819 197.808 396.143 198.768 396.791 199.464C397.439 200.136 398.327 200.472 399.455 200.472ZM418.737 204.36C416.697 204.36 415.089 203.82 413.913 202.74C412.737 201.66 412.149 200.208 412.149 198.384C412.149 196.44 412.797 194.94 414.093 193.884C415.389 192.828 417.225 192.3 419.601 192.3H424.533V190.608C424.533 189.648 424.221 188.904 423.597 188.376C422.973 187.824 422.121 187.548 421.041 187.548C420.057 187.548 419.241 187.764 418.593 188.196C417.945 188.628 417.561 189.216 417.441 189.96H413.049C413.265 188.088 414.105 186.6 415.569 185.496C417.033 184.392 418.905 183.84 421.185 183.84C423.609 183.84 425.517 184.452 426.909 185.676C428.325 186.876 429.033 188.508 429.033 190.572V204H424.677V200.544H423.957L424.677 199.572C424.677 201.036 424.137 202.2 423.057 203.064C421.977 203.928 420.537 204.36 418.737 204.36ZM420.213 200.976C421.485 200.976 422.517 200.652 423.309 200.004C424.125 199.356 424.533 198.516 424.533 197.484V195.072H419.673C418.761 195.072 418.029 195.336 417.477 195.864C416.925 196.392 416.649 197.088 416.649 197.952C416.649 198.888 416.961 199.632 417.585 200.184C418.233 200.712 419.109 200.976 420.213 200.976ZM441.763 204.324C440.251 204.324 438.931 204.084 437.803 203.604C436.675 203.124 435.787 202.464 435.139 201.624C434.515 200.76 434.179 199.752 434.131 198.6H438.631C438.679 199.224 438.979 199.728 439.531 200.112C440.107 200.496 440.851 200.688 441.763 200.688H443.347C444.451 200.688 445.279 200.472 445.831 200.04C446.383 199.608 446.659 199.02 446.659 198.276C446.659 197.58 446.407 197.04 445.903 196.656C445.423 196.248 444.667 195.984 443.635 195.864L441.187 195.504C438.931 195.192 437.275 194.592 436.219 193.704C435.163 192.816 434.635 191.484 434.635 189.708C434.635 187.86 435.259 186.432 436.507 185.424C437.755 184.392 439.591 183.876 442.015 183.876H443.383C445.591 183.876 447.355 184.368 448.675 185.352C449.995 186.336 450.703 187.656 450.799 189.312H446.299C446.227 188.784 445.927 188.352 445.399 188.016C444.895 187.68 444.223 187.512 443.383 187.512H442.015C440.983 187.512 440.227 187.704 439.747 188.088C439.291 188.448 439.063 188.988 439.063 189.708C439.063 190.38 439.267 190.884 439.675 191.22C440.083 191.532 440.743 191.76 441.655 191.904L444.211 192.264C446.563 192.6 448.291 193.236 449.395 194.172C450.523 195.084 451.087 196.44 451.087 198.24C451.087 200.16 450.427 201.66 449.107 202.74C447.811 203.796 445.891 204.324 443.347 204.324H441.763ZM464.141 204.36C462.461 204.36 460.997 204.036 459.749 203.388C458.501 202.74 457.529 201.84 456.833 200.688C456.161 199.512 455.825 198.144 455.825 196.584V191.616C455.825 190.056 456.161 188.7 456.833 187.548C457.529 186.372 458.501 185.46 459.749 184.812C460.997 184.164 462.461 183.84 464.141 183.84C465.797 183.84 467.237 184.164 468.461 184.812C469.709 185.46 470.669 186.372 471.341 187.548C472.037 188.7 472.385 190.056 472.385 191.616V195.18H460.181V196.584C460.181 197.976 460.517 199.032 461.189 199.752C461.861 200.448 462.857 200.796 464.177 200.796C465.185 200.796 466.001 200.628 466.625 200.292C467.249 199.932 467.645 199.416 467.813 198.744H472.241C471.905 200.448 470.993 201.816 469.505 202.848C468.041 203.856 466.253 204.36 464.141 204.36ZM468.029 192.66V191.58C468.029 190.212 467.705 189.168 467.057 188.448C466.409 187.704 465.437 187.332 464.141 187.332C462.845 187.332 461.861 187.704 461.189 188.448C460.517 189.192 460.181 190.248 460.181 191.616V192.372L468.353 192.3L468.029 192.66ZM483.999 204.36C482.031 204.36 480.435 203.676 479.211 202.308C478.011 200.94 477.411 199.104 477.411 196.8V191.436C477.411 189.108 478.011 187.26 479.211 185.892C480.411 184.524 482.007 183.84 483.999 183.84C485.631 183.84 486.927 184.308 487.887 185.244C488.847 186.156 489.327 187.416 489.327 189.024L488.319 187.98H489.363L489.219 183.264V177.72H493.719V204H489.327V200.22H488.319L489.327 199.176C489.327 200.784 488.847 202.056 487.887 202.992C486.927 203.904 485.631 204.36 483.999 204.36ZM485.583 200.472C486.735 200.472 487.623 200.136 488.247 199.464C488.895 198.768 489.219 197.808 489.219 196.584V191.616C489.219 190.392 488.895 189.444 488.247 188.772C487.623 188.076 486.735 187.728 485.583 187.728C484.431 187.728 483.531 188.064 482.883 188.736C482.235 189.408 481.911 190.368 481.911 191.616V196.584C481.911 197.832 482.235 198.792 482.883 199.464C483.531 200.136 484.431 200.472 485.583 200.472ZM520.799 204V199.896H527.711V188.268H521.699V184.2H532.031V199.896H538.151V204H520.799ZM529.511 180.888C528.599 180.888 527.879 180.66 527.351 180.204C526.823 179.724 526.559 179.088 526.559 178.296C526.559 177.504 526.823 176.88 527.351 176.424C527.879 175.944 528.599 175.704 529.511 175.704C530.423 175.704 531.143 175.944 531.671 176.424C532.199 176.88 532.463 177.504 532.463 178.296C532.463 179.088 532.199 179.724 531.671 180.204C531.143 180.66 530.423 180.888 529.511 180.888ZM542.42 204V184.2H546.812V187.98H548.036L546.812 189.024C546.812 187.392 547.28 186.12 548.216 185.208C549.176 184.296 550.484 183.84 552.14 183.84C554.084 183.84 555.632 184.488 556.784 185.784C557.96 187.08 558.548 188.82 558.548 191.004V204H554.048V191.472C554.048 190.272 553.736 189.348 553.112 188.7C552.488 188.052 551.612 187.728 550.484 187.728C549.38 187.728 548.504 188.064 547.856 188.736C547.232 189.408 546.92 190.368 546.92 191.616V204H542.42ZM593.692 204.36C591.892 204.36 590.332 204.06 589.012 203.46C587.692 202.86 586.672 202.008 585.952 200.904C585.256 199.776 584.896 198.456 584.872 196.944H589.372C589.372 198.024 589.756 198.876 590.524 199.5C591.316 200.1 592.384 200.4 593.728 200.4C595.024 200.4 596.032 200.1 596.752 199.5C597.496 198.9 597.868 198.072 597.868 197.016C597.868 196.128 597.604 195.36 597.076 194.712C596.572 194.04 595.84 193.584 594.88 193.344L591.856 192.516C589.792 191.988 588.196 191.04 587.068 189.672C585.964 188.304 585.412 186.648 585.412 184.704C585.412 183.216 585.748 181.92 586.42 180.816C587.092 179.712 588.04 178.86 589.264 178.26C590.512 177.66 591.976 177.36 593.656 177.36C596.2 177.36 598.216 178.02 599.704 179.34C601.192 180.636 601.948 182.388 601.972 184.596H597.472C597.472 183.564 597.136 182.76 596.464 182.184C595.792 181.584 594.844 181.284 593.62 181.284C592.444 181.284 591.532 181.56 590.884 182.112C590.236 182.664 589.912 183.444 589.912 184.452C589.912 185.364 590.152 186.144 590.632 186.792C591.136 187.416 591.856 187.86 592.792 188.124L595.924 188.988C598.012 189.516 599.608 190.464 600.712 191.832C601.816 193.176 602.368 194.844 602.368 196.836C602.368 198.324 602.008 199.644 601.288 200.796C600.568 201.924 599.56 202.8 598.264 203.424C596.968 204.048 595.444 204.36 593.692 204.36ZM615.242 204.36C613.562 204.36 612.098 204.036 610.85 203.388C609.602 202.74 608.63 201.84 607.934 200.688C607.262 199.512 606.926 198.144 606.926 196.584V191.616C606.926 190.056 607.262 188.7 607.934 187.548C608.63 186.372 609.602 185.46 610.85 184.812C612.098 184.164 613.562 183.84 615.242 183.84C616.898 183.84 618.338 184.164 619.562 184.812C620.81 185.46 621.77 186.372 622.442 187.548C623.138 188.7 623.486 190.056 623.486 191.616V195.18H611.282V196.584C611.282 197.976 611.618 199.032 612.29 199.752C612.962 200.448 613.958 200.796 615.278 200.796C616.286 200.796 617.102 200.628 617.726 200.292C618.35 199.932 618.746 199.416 618.914 198.744H623.342C623.006 200.448 622.094 201.816 620.606 202.848C619.142 203.856 617.354 204.36 615.242 204.36ZM619.13 192.66V191.58C619.13 190.212 618.806 189.168 618.158 188.448C617.51 187.704 616.538 187.332 615.242 187.332C613.946 187.332 612.962 187.704 612.29 188.448C611.618 189.192 611.282 190.248 611.282 191.616V192.372L619.454 192.3L619.13 192.66ZM629.376 204V184.2H633.624V187.98H634.74L633.408 190.284C633.408 188.148 633.888 186.54 634.848 185.46C635.808 184.38 637.224 183.84 639.096 183.84C641.232 183.84 642.912 184.5 644.136 185.82C645.36 187.14 645.972 188.964 645.972 191.292V192.732H641.256V191.616C641.256 190.344 640.92 189.36 640.248 188.664C639.6 187.968 638.7 187.62 637.548 187.62C636.372 187.62 635.46 187.968 634.812 188.664C634.188 189.36 633.876 190.344 633.876 191.616V204H629.376ZM660.07 204.36C658.438 204.36 657.142 203.904 656.182 202.992C655.222 202.056 654.742 200.784 654.742 199.176L655.75 200.22H654.742V204H650.35V177.72H654.85V183.264L654.706 187.98H655.75L654.742 189.024C654.742 187.416 655.222 186.156 656.182 185.244C657.142 184.308 658.438 183.84 660.07 183.84C662.062 183.84 663.658 184.524 664.858 185.892C666.058 187.26 666.658 189.108 666.658 191.436V196.8C666.658 199.104 666.058 200.94 664.858 202.308C663.658 203.676 662.062 204.36 660.07 204.36ZM658.486 200.472C659.638 200.472 660.538 200.136 661.186 199.464C661.834 198.792 662.158 197.832 662.158 196.584V191.616C662.158 190.368 661.834 189.408 661.186 188.736C660.538 188.064 659.638 187.728 658.486 187.728C657.358 187.728 656.47 188.076 655.822 188.772C655.174 189.444 654.85 190.392 654.85 191.616V196.584C654.85 197.808 655.174 198.768 655.822 199.464C656.47 200.136 657.358 200.472 658.486 200.472ZM671.9 204V199.896H678.812V188.268H672.8V184.2H683.132V199.896H689.252V204H671.9ZM680.612 180.888C679.7 180.888 678.98 180.66 678.452 180.204C677.924 179.724 677.66 179.088 677.66 178.296C677.66 177.504 677.924 176.88 678.452 176.424C678.98 175.944 679.7 175.704 680.612 175.704C681.524 175.704 682.244 175.944 682.772 176.424C683.3 176.88 683.564 177.504 683.564 178.296C683.564 179.088 683.3 179.724 682.772 180.204C682.244 180.66 681.524 180.888 680.612 180.888ZM699.354 204.36C697.314 204.36 695.706 203.82 694.53 202.74C693.354 201.66 692.766 200.208 692.766 198.384C692.766 196.44 693.414 194.94 694.71 193.884C696.006 192.828 697.842 192.3 700.218 192.3H705.15V190.608C705.15 189.648 704.838 188.904 704.214 188.376C703.59 187.824 702.738 187.548 701.658 187.548C700.674 187.548 699.858 187.764 699.21 188.196C698.562 188.628 698.178 189.216 698.058 189.96H693.666C693.882 188.088 694.722 186.6 696.186 185.496C697.65 184.392 699.522 183.84 701.802 183.84C704.226 183.84 706.134 184.452 707.526 185.676C708.942 186.876 709.65 188.508 709.65 190.572V204H705.294V200.544H704.574L705.294 199.572C705.294 201.036 704.754 202.2 703.674 203.064C702.594 203.928 701.154 204.36 699.354 204.36ZM700.83 200.976C702.102 200.976 703.134 200.652 703.926 200.004C704.742 199.356 705.15 198.516 705.15 197.484V195.072H700.29C699.378 195.072 698.646 195.336 698.094 195.864C697.542 196.392 697.266 197.088 697.266 197.952C697.266 198.888 697.578 199.632 698.202 200.184C698.85 200.712 699.726 200.976 700.83 200.976ZM714.496 208.968V204.9H731.776V208.968H714.496Z" fill="#6FFF9D"/>
</svg>
