<svg width="9016" height="3162" viewBox="0 0 9016 3162" fill="none" xmlns="http://www.w3.org/2000/svg">
<rect width="9016" height="3162" fill="white"/>
<path d="M4469.78 1217.73V1945H4318.5V1217.73H4469.78Z" fill="black"/>
<path d="M4019.43 1955.65C3963.32 1955.65 3915.02 1944.29 3874.54 1921.56C3834.29 1898.6 3803.28 1866.16 3781.5 1824.26C3759.72 1782.12 3748.83 1732.29 3748.83 1674.76C3748.83 1618.65 3759.72 1569.41 3781.5 1527.03C3803.28 1484.65 3833.94 1451.63 3873.47 1427.95C3913.25 1404.28 3959.88 1392.44 4013.39 1392.44C4049.37 1392.44 4082.87 1398.24 4113.89 1409.84C4145.14 1421.21 4172.36 1438.37 4195.56 1461.34C4219 1484.3 4237.23 1513.18 4250.25 1547.98C4263.27 1582.55 4269.78 1623.03 4269.78 1669.43V1710.98H3809.2V1617.23H4127.38C4127.38 1595.45 4122.65 1576.16 4113.18 1559.35C4103.71 1542.54 4090.57 1529.4 4073.76 1519.93C4057.19 1510.22 4037.89 1505.37 4015.87 1505.37C3992.91 1505.37 3972.55 1510.7 3954.79 1521.35C3937.28 1531.77 3923.54 1545.85 3913.6 1563.61C3903.66 1581.13 3898.57 1600.66 3898.33 1622.2V1711.34C3898.33 1738.32 3903.3 1761.64 3913.25 1781.29C3923.43 1800.94 3937.75 1816.09 3956.22 1826.75C3974.68 1837.4 3996.58 1842.73 4021.91 1842.73C4038.72 1842.73 4054.11 1840.36 4068.08 1835.63C4082.04 1830.89 4094 1823.79 4103.94 1814.32C4113.89 1804.85 4121.46 1793.25 4126.67 1779.52L4266.58 1788.75C4259.48 1822.37 4244.92 1851.72 4222.91 1876.82C4201.13 1901.68 4172.95 1921.09 4138.39 1935.06C4104.06 1948.79 4064.41 1955.65 4019.43 1955.65Z" fill="black"/>
<path d="M3396.31 1955.3C3361.51 1955.3 3330.49 1949.26 3303.27 1937.19C3276.04 1924.88 3254.5 1906.77 3238.64 1882.86C3223.01 1858.71 3215.2 1828.64 3215.2 1792.66C3215.2 1762.35 3220.76 1736.9 3231.89 1716.31C3243.02 1695.71 3258.17 1679.14 3277.34 1666.59C3296.52 1654.04 3318.3 1644.57 3342.69 1638.18C3367.31 1631.79 3393.11 1627.29 3420.1 1624.69C3451.82 1621.37 3477.39 1618.3 3496.8 1615.45C3516.22 1612.38 3530.3 1607.88 3539.06 1601.96C3547.82 1596.04 3552.2 1587.28 3552.2 1575.68V1573.55C3552.2 1551.06 3545.1 1533.66 3530.9 1521.35C3516.93 1509.04 3497.04 1502.88 3471.24 1502.88C3444.01 1502.88 3422.35 1508.92 3406.25 1520.99C3390.15 1532.83 3379.5 1547.75 3374.29 1565.74L3234.38 1554.38C3241.48 1521.23 3255.45 1492.59 3276.28 1468.44C3297.11 1444.05 3323.98 1425.35 3356.89 1412.33C3390.03 1399.07 3428.39 1392.44 3471.95 1392.44C3502.25 1392.44 3531.25 1395.99 3558.95 1403.1C3586.89 1410.2 3611.62 1421.21 3633.17 1436.12C3654.95 1451.04 3672.11 1470.21 3684.66 1493.65C3697.21 1516.85 3703.48 1544.67 3703.48 1577.1V1945H3560.02V1869.36H3555.75C3546.99 1886.41 3535.28 1901.44 3520.6 1914.46C3505.92 1927.24 3488.28 1937.31 3467.69 1944.65C3447.09 1951.75 3423.3 1955.3 3396.31 1955.3ZM3439.63 1850.9C3461.89 1850.9 3481.53 1846.52 3498.58 1837.76C3515.63 1828.76 3529 1816.69 3538.71 1801.53C3548.41 1786.38 3553.27 1769.22 3553.27 1750.04V1692.16C3548.53 1695.24 3542.02 1698.08 3533.74 1700.68C3525.69 1703.05 3516.57 1705.3 3506.39 1707.43C3496.21 1709.32 3486.03 1711.1 3475.85 1712.76C3465.67 1714.18 3456.44 1715.48 3448.15 1716.66C3430.4 1719.27 3414.89 1723.41 3401.63 1729.09C3388.38 1734.77 3378.08 1742.47 3370.74 1752.17C3363.4 1761.64 3359.73 1773.48 3359.73 1787.68C3359.73 1808.28 3367.19 1824.02 3382.1 1834.91C3397.25 1845.57 3416.43 1850.9 3439.63 1850.9Z" fill="black"/>
<path d="M2818.02 1629.66V1945H2666.74V1217.73H2813.76V1495.78H2820.15C2832.46 1463.58 2852.35 1438.37 2879.81 1420.14C2907.27 1401.68 2941.72 1392.44 2983.15 1392.44C3021.03 1392.44 3054.05 1400.73 3082.23 1417.3C3110.64 1433.64 3132.65 1457.19 3148.28 1487.97C3164.14 1518.51 3171.95 1555.09 3171.72 1597.7V1945H3020.44V1624.69C3020.67 1591.07 3012.15 1564.91 2994.87 1546.21C2977.82 1527.5 2953.91 1518.15 2923.14 1518.15C2902.54 1518.15 2884.31 1522.53 2868.45 1531.29C2852.82 1540.05 2840.51 1552.84 2831.52 1569.65C2822.76 1586.22 2818.26 1606.22 2818.02 1629.66Z" fill="black"/>
<path d="M2376.28 1955.65C2320.41 1955.65 2272.35 1943.82 2232.1 1920.14C2192.09 1896.23 2161.32 1863.09 2139.77 1820.71C2118.47 1778.33 2107.81 1729.56 2107.81 1674.4C2107.81 1618.53 2118.59 1569.53 2140.13 1527.39C2161.91 1485.01 2192.8 1451.98 2232.81 1428.31C2272.82 1404.4 2320.41 1392.44 2375.57 1392.44C2423.15 1392.44 2464.82 1401.08 2500.57 1418.37C2536.32 1435.65 2564.61 1459.91 2585.44 1491.16C2606.27 1522.41 2617.76 1559.11 2619.89 1601.25H2477.13C2473.11 1574.02 2462.45 1552.13 2445.17 1535.55C2428.13 1518.75 2405.75 1510.34 2378.05 1510.34C2354.62 1510.34 2334.14 1516.73 2316.62 1529.52C2299.34 1542.06 2285.84 1560.41 2276.14 1584.56C2266.43 1608.71 2261.58 1637.95 2261.58 1672.27C2261.58 1707.07 2266.31 1736.67 2275.78 1761.05C2285.49 1785.44 2299.1 1804.02 2316.62 1816.8C2334.14 1829.59 2354.62 1835.98 2378.05 1835.98C2395.34 1835.98 2410.84 1832.43 2424.57 1825.33C2438.54 1818.22 2450.02 1807.93 2459.02 1794.43C2468.25 1780.7 2474.29 1764.25 2477.13 1745.07H2619.89C2617.52 1786.74 2606.16 1823.43 2585.8 1855.16C2565.67 1886.64 2537.86 1911.26 2502.34 1929.02C2466.83 1946.78 2424.81 1955.65 2376.28 1955.65Z" fill="black"/>
<path d="M1907.37 1945V1399.55H2058.65V1945H1907.37ZM1983.36 1329.23C1960.87 1329.23 1941.58 1321.78 1925.48 1306.86C1909.62 1291.71 1901.69 1273.6 1901.69 1252.53C1901.69 1231.69 1909.62 1213.82 1925.48 1198.91C1941.58 1183.75 1960.87 1176.18 1983.36 1176.18C2005.85 1176.18 2025.03 1183.75 2040.89 1198.91C2056.99 1213.82 2065.04 1231.69 2065.04 1252.53C2065.04 1273.6 2056.99 1291.71 2040.89 1306.86C2025.03 1321.78 2005.85 1329.23 1983.36 1329.23Z" fill="black"/>
<path d="M1763.18 1848.81L1810.84 1873.52C1797.11 1900 1764.52 1910.34 1738.04 1896.61C1711.57 1882.88 1701.23 1850.29 1714.96 1823.81C1714.96 1823.81 1714.97 1823.8 1714.98 1823.78C1715 1823.74 1715.04 1823.66 1715.09 1823.55C1715.21 1823.33 1715.39 1822.99 1715.63 1822.51C1716.11 1821.56 1716.85 1820.11 1717.82 1818.18C1719.76 1814.33 1722.62 1808.59 1726.22 1801.19C1733.42 1786.38 1743.55 1764.99 1755.14 1738.93C1778.39 1686.64 1807.17 1616.29 1830.01 1542.9C1853.09 1468.73 1868.91 1395.15 1868.72 1335.27C1868.53 1274.95 1852.64 1243.15 1829.46 1228.34L1828.34 1227.64C1787.04 1202.46 1742.34 1199.14 1692.52 1214.02C1641.06 1229.39 1585.5 1264.04 1529.36 1312.92C1526.89 1315.07 1524.42 1317.24 1521.96 1319.44C1522.45 1353.65 1519.19 1388.93 1513.73 1423.72C1493.04 1555.49 1437.27 1700.62 1395.69 1800.91L1391.71 1810.48C1368.46 1866.21 1324.5 1941.34 1277.18 1998.12C1253.78 2026.19 1226.69 2053.31 1198.06 2070.47C1170.58 2086.94 1126.16 2102.51 1084.22 2074.68V2074.68C1044.81 2048.53 1039.76 2000.82 1040.08 1970.67C1040.45 1935.87 1048.33 1895.56 1059.43 1855.6C1081.8 1775.05 1120.75 1683.62 1158.26 1615.24L1159.81 1612.42C1217.09 1508.6 1306.65 1379.27 1410.09 1276.54C1408.85 1269.51 1407.32 1262.84 1405.49 1256.54C1395.42 1221.96 1377.01 1199.91 1345.56 1188.2L1344.06 1187.65C1294.4 1169.92 1237.85 1188.3 1170.88 1252.74C1104.85 1316.28 1041.37 1413.51 985.442 1518.56C929.963 1622.78 883.872 1730.93 851.564 1813.37C835.445 1854.51 822.834 1889.04 814.274 1913.23C809.996 1925.32 806.734 1934.81 804.556 1941.24C803.467 1944.45 802.649 1946.89 802.111 1948.51C801.843 1949.32 801.644 1949.93 801.516 1950.31C801.452 1950.51 801.405 1950.65 801.377 1950.74C801.363 1950.78 801.353 1950.81 801.348 1950.82C801.345 1950.83 801.345 1950.83 801.344 1950.84L801.343 1950.84C792.682 1977.39 765.201 1992.96 737.972 1986.74C710.74 1980.51 692.751 1954.55 696.491 1926.86L696.991 1923.2C718.433 1768.03 773.785 1583.19 822.954 1438.72C847.883 1365.48 871.517 1301.77 888.928 1256.35C897.637 1233.63 904.799 1215.46 909.799 1202.93C912.299 1196.66 914.259 1191.81 915.604 1188.49C916.276 1186.84 916.794 1185.57 917.148 1184.7C917.326 1184.27 917.462 1183.94 917.557 1183.71C917.604 1183.59 917.64 1183.5 917.666 1183.44C917.679 1183.41 917.69 1183.39 917.697 1183.37C917.701 1183.36 917.705 1183.35 917.707 1183.34C917.723 1183.34 918.473 1183.64 962.205 1201.68L917.712 1183.33C929.08 1155.76 960.647 1142.62 988.219 1153.99C1015.79 1165.36 1028.93 1196.93 1017.56 1224.5C1017.56 1224.5 1017.56 1224.5 1017.56 1224.5C1017.55 1224.51 1017.55 1224.52 1017.54 1224.55C1017.52 1224.59 1017.49 1224.65 1017.46 1224.75C1017.38 1224.93 1017.26 1225.22 1017.1 1225.61C1016.79 1226.38 1016.31 1227.56 1015.67 1229.12C1014.4 1232.24 1012.52 1236.9 1010.11 1242.96C1005.27 1255.08 998.289 1272.79 989.773 1295C987.716 1300.37 985.569 1306 983.343 1311.87C1018.36 1260.51 1056.07 1213.33 1095.99 1174.92C1173.39 1100.44 1272.26 1047.33 1380.38 1085.94L1382.02 1086.53C1440.44 1107.89 1477.97 1148.52 1499.15 1198.16C1550.26 1159.04 1605.05 1127.43 1661.61 1110.54C1735.12 1088.58 1812.5 1091.48 1884.58 1135.44L1886.25 1136.47C1956.95 1180.65 1976.49 1260.75 1976.72 1334.93C1976.96 1411.1 1957.41 1496.99 1933.13 1574.99C1908.62 1653.77 1878.07 1728.28 1853.82 1782.81C1841.66 1810.16 1831 1832.67 1823.35 1848.41C1819.52 1856.28 1816.44 1862.47 1814.29 1866.74C1813.22 1868.87 1812.38 1870.52 1811.8 1871.66C1811.5 1872.23 1811.28 1872.68 1811.12 1872.99C1811.04 1873.14 1810.97 1873.27 1810.93 1873.36C1810.9 1873.4 1810.88 1873.44 1810.87 1873.47C1810.86 1873.48 1810.86 1873.49 1810.85 1873.5C1810.85 1873.51 1810.84 1873.52 1763.18 1848.81ZM1398.97 1450.36C1341.13 1521.88 1290.9 1598.39 1254.41 1664.53L1252.95 1667.18C1218.92 1729.21 1183.37 1812.95 1163.49 1884.5C1153.47 1920.6 1148.3 1950.57 1148.07 1971.81C1148.06 1972.65 1148.06 1973.45 1148.07 1974.22C1160.68 1965.34 1176.54 1950.18 1194.21 1928.98C1234.41 1880.75 1272.82 1814.96 1292.04 1768.89L1296 1759.36C1332.31 1671.75 1376.28 1557.04 1398.97 1450.36ZM1762.9 1848.67C1762.44 1848.43 1761.98 1848.19 1761.53 1847.96L1763.18 1848.81C1763.08 1848.76 1762.99 1848.72 1762.9 1848.67Z" fill="#12CD60"/>
<path d="M8077.17 1955.65C8021.3 1955.65 7973.24 1943.82 7932.99 1920.14C7892.98 1896.23 7862.21 1863.09 7840.66 1820.71C7819.36 1778.33 7808.7 1729.56 7808.7 1674.4C7808.7 1618.53 7819.47 1569.53 7841.02 1527.39C7862.8 1485.01 7893.69 1451.98 7933.7 1428.31C7973.71 1404.4 8021.3 1392.44 8076.46 1392.44C8124.04 1392.44 8165.71 1401.08 8201.46 1418.37C8237.21 1435.65 8265.5 1459.91 8286.33 1491.16C8307.16 1522.41 8318.65 1559.11 8320.78 1601.25H8178.02C8174 1574.02 8163.34 1552.13 8146.06 1535.55C8129.02 1518.75 8106.64 1510.34 8078.94 1510.34C8055.51 1510.34 8035.03 1516.73 8017.51 1529.52C8000.23 1542.06 7986.73 1560.41 7977.03 1584.56C7967.32 1608.71 7962.47 1637.95 7962.47 1672.27C7962.47 1707.07 7967.2 1736.67 7976.67 1761.05C7986.38 1785.44 7999.99 1804.02 8017.51 1816.8C8035.03 1829.59 8055.51 1835.98 8078.94 1835.98C8096.23 1835.98 8111.73 1832.43 8125.46 1825.33C8139.43 1818.22 8150.91 1807.93 8159.91 1794.43C8169.14 1780.7 8175.18 1764.25 8178.02 1745.07H8320.78C8318.41 1786.74 8307.05 1823.43 8286.69 1855.16C8266.56 1886.64 8238.75 1911.26 8203.23 1929.02C8167.72 1946.78 8125.7 1955.65 8077.17 1955.65Z" fill="black"/>
<path d="M7608.26 1945V1399.55H7759.54V1945H7608.26ZM7684.25 1329.23C7661.76 1329.23 7642.47 1321.78 7626.37 1306.86C7610.51 1291.71 7602.58 1273.6 7602.58 1252.53C7602.58 1231.69 7610.51 1213.82 7626.37 1198.91C7642.47 1183.75 7661.76 1176.18 7684.25 1176.18C7706.74 1176.18 7725.92 1183.75 7741.78 1198.91C7757.88 1213.82 7765.93 1231.69 7765.93 1252.53C7765.93 1273.6 7757.88 1291.71 7741.78 1306.86C7725.92 1321.78 7706.74 1329.23 7684.25 1329.23Z" fill="black"/>
<path d="M7223.51 1953.88C7182.08 1953.88 7144.56 1943.22 7110.94 1921.92C7077.56 1900.37 7051.04 1868.77 7031.39 1827.1C7011.98 1785.2 7002.28 1733.83 7002.28 1672.98C7002.28 1610.48 7012.34 1558.52 7032.46 1517.09C7052.58 1475.42 7079.34 1444.29 7112.72 1423.69C7146.33 1402.86 7183.15 1392.44 7223.16 1392.44C7253.7 1392.44 7279.15 1397.65 7299.51 1408.07C7320.1 1418.25 7336.67 1431.03 7349.22 1446.42C7362.01 1461.57 7371.71 1476.49 7378.34 1491.17H7382.96V1217.73H7533.88V1945H7384.73V1857.64H7378.34C7371.24 1872.79 7361.18 1887.83 7348.16 1902.74C7335.37 1917.42 7318.68 1929.61 7298.09 1939.32C7277.73 1949.02 7252.87 1953.88 7223.51 1953.88ZM7271.45 1833.49C7295.84 1833.49 7316.43 1826.87 7333.24 1813.61C7350.29 1800.11 7363.31 1781.29 7372.3 1757.15C7381.54 1733 7386.15 1704.71 7386.15 1672.27C7386.15 1639.84 7381.66 1611.67 7372.66 1587.76C7363.66 1563.84 7350.64 1545.38 7333.6 1532.36C7316.55 1519.34 7295.84 1512.83 7271.45 1512.83C7246.59 1512.83 7225.64 1519.57 7208.6 1533.07C7191.55 1546.56 7178.65 1565.27 7169.89 1589.18C7161.13 1613.09 7156.75 1640.79 7156.75 1672.27C7156.75 1704 7161.13 1732.05 7169.89 1756.43C7178.89 1780.58 7191.79 1799.52 7208.6 1813.25C7225.64 1826.75 7246.59 1833.49 7271.45 1833.49Z" fill="black"/>
<path d="M6601.73 1629.66V1945H6450.45V1399.55H6594.62V1495.78H6601.02C6613.09 1464.06 6633.33 1438.96 6661.74 1420.5C6690.15 1401.79 6724.59 1392.44 6765.08 1392.44C6802.96 1392.44 6835.98 1400.73 6864.15 1417.3C6892.33 1433.87 6914.23 1457.55 6929.85 1488.32C6945.48 1518.86 6953.29 1555.32 6953.29 1597.7V1945H6802.01V1624.69C6802.25 1591.31 6793.72 1565.27 6776.44 1546.56C6759.16 1527.62 6735.37 1518.15 6705.06 1518.15C6684.7 1518.15 6666.71 1522.53 6651.09 1531.29C6635.7 1540.05 6623.62 1552.84 6614.86 1569.65C6606.34 1586.22 6601.96 1606.22 6601.73 1629.66Z" fill="black"/>
<path d="M6075.91 1955.3C6041.11 1955.3 6010.09 1949.26 5982.87 1937.19C5955.64 1924.88 5934.1 1906.77 5918.24 1882.86C5902.61 1858.71 5894.8 1828.64 5894.8 1792.66C5894.8 1762.35 5900.36 1736.9 5911.49 1716.31C5922.62 1695.71 5937.77 1679.14 5956.95 1666.59C5976.12 1654.04 5997.9 1644.57 6022.29 1638.18C6046.91 1631.79 6072.71 1627.29 6099.7 1624.69C6131.42 1621.37 6156.99 1618.3 6176.41 1615.45C6195.82 1612.38 6209.9 1607.88 6218.66 1601.96C6227.42 1596.04 6231.8 1587.28 6231.8 1575.68V1573.55C6231.8 1551.06 6224.7 1533.66 6210.5 1521.35C6196.53 1509.04 6176.64 1502.88 6150.84 1502.88C6123.61 1502.88 6101.95 1508.92 6085.85 1520.99C6069.75 1532.83 6059.1 1547.75 6053.89 1565.74L5913.98 1554.38C5921.08 1521.23 5935.05 1492.59 5955.88 1468.44C5976.71 1444.05 6003.58 1425.35 6036.49 1412.33C6069.64 1399.07 6107.99 1392.44 6151.55 1392.44C6181.85 1392.44 6210.85 1395.99 6238.55 1403.1C6266.49 1410.2 6291.23 1421.21 6312.77 1436.12C6334.55 1451.04 6351.71 1470.21 6364.26 1493.65C6376.81 1516.85 6383.08 1544.67 6383.08 1577.1V1945H6239.62V1869.36H6235.35C6226.6 1886.41 6214.88 1901.44 6200.2 1914.46C6185.52 1927.24 6167.88 1937.31 6147.29 1944.65C6126.69 1951.75 6102.9 1955.3 6075.91 1955.3ZM6119.23 1850.9C6141.49 1850.9 6161.14 1846.52 6178.18 1837.76C6195.23 1828.76 6208.6 1816.69 6218.31 1801.53C6228.02 1786.38 6232.87 1769.22 6232.87 1750.04V1692.16C6228.13 1695.24 6221.62 1698.08 6213.34 1700.68C6205.29 1703.05 6196.17 1705.3 6185.99 1707.43C6175.81 1709.32 6165.63 1711.1 6155.45 1712.76C6145.27 1714.18 6136.04 1715.48 6127.76 1716.66C6110 1719.27 6094.49 1723.41 6081.24 1729.09C6067.98 1734.77 6057.68 1742.47 6050.34 1752.17C6043 1761.64 6039.33 1773.48 6039.33 1787.68C6039.33 1808.28 6046.79 1824.02 6061.7 1834.91C6076.86 1845.57 6096.03 1850.9 6119.23 1850.9Z" fill="black"/>
<path d="M5804.18 1848.81L5851.84 1873.52C5838.11 1900 5805.52 1910.34 5779.04 1896.61C5752.57 1882.88 5742.23 1850.29 5755.96 1823.81C5755.96 1823.81 5755.97 1823.8 5755.98 1823.78C5756 1823.74 5756.04 1823.66 5756.09 1823.55C5756.21 1823.33 5756.39 1822.99 5756.63 1822.51C5757.11 1821.56 5757.85 1820.11 5758.82 1818.18C5760.76 1814.33 5763.62 1808.59 5767.22 1801.19C5774.42 1786.38 5784.55 1764.99 5796.14 1738.93C5819.39 1686.64 5848.17 1616.29 5871.01 1542.9C5894.09 1468.73 5909.91 1395.15 5909.72 1335.27C5909.53 1274.95 5893.64 1243.15 5870.46 1228.34L5869.34 1227.64C5828.04 1202.46 5783.34 1199.14 5733.52 1214.02C5682.06 1229.39 5626.5 1264.04 5570.36 1312.92C5567.89 1315.07 5565.42 1317.24 5562.96 1319.44C5563.45 1353.65 5560.19 1388.93 5554.73 1423.72C5534.04 1555.49 5478.27 1700.62 5436.69 1800.91L5432.71 1810.48C5409.46 1866.21 5365.5 1941.34 5318.18 1998.12C5294.78 2026.19 5267.69 2053.31 5239.06 2070.47C5211.58 2086.94 5167.16 2102.51 5125.22 2074.68V2074.68C5085.81 2048.53 5080.76 2000.82 5081.08 1970.67C5081.45 1935.87 5089.33 1895.56 5100.43 1855.6C5122.8 1775.05 5161.75 1683.62 5199.26 1615.24L5200.81 1612.42C5258.09 1508.6 5347.65 1379.27 5451.09 1276.54C5449.85 1269.51 5448.32 1262.84 5446.49 1256.54C5436.42 1221.96 5418.01 1199.91 5386.56 1188.2L5385.06 1187.65C5335.4 1169.92 5278.85 1188.3 5211.88 1252.74C5145.85 1316.28 5082.37 1413.51 5026.44 1518.56C4970.96 1622.78 4924.87 1730.93 4892.56 1813.37C4876.44 1854.51 4863.83 1889.04 4855.27 1913.23C4851 1925.32 4847.73 1934.81 4845.56 1941.24C4844.47 1944.45 4843.65 1946.89 4843.11 1948.51C4842.84 1949.32 4842.64 1949.93 4842.52 1950.31C4842.45 1950.51 4842.41 1950.65 4842.38 1950.74C4842.36 1950.78 4842.35 1950.81 4842.35 1950.82C4842.35 1950.83 4842.35 1950.83 4842.34 1950.84L4842.34 1950.84C4833.68 1977.39 4806.2 1992.96 4778.97 1986.74C4751.74 1980.51 4733.75 1954.55 4737.49 1926.86L4737.99 1923.2C4759.43 1768.03 4814.78 1583.19 4863.95 1438.72C4888.88 1365.48 4912.52 1301.77 4929.93 1256.35C4938.64 1233.63 4945.8 1215.46 4950.8 1202.93C4953.3 1196.66 4955.26 1191.81 4956.6 1188.49C4957.28 1186.84 4957.79 1185.57 4958.15 1184.7C4958.33 1184.27 4958.46 1183.94 4958.56 1183.71C4958.6 1183.59 4958.64 1183.5 4958.67 1183.44C4958.68 1183.41 4958.69 1183.39 4958.7 1183.37C4958.7 1183.36 4958.71 1183.35 4958.71 1183.34C4958.72 1183.34 4959.47 1183.64 5003.21 1201.68L4958.71 1183.33C4970.08 1155.76 5001.65 1142.62 5029.22 1153.99C5056.79 1165.36 5069.93 1196.93 5058.56 1224.5C5058.56 1224.5 5058.56 1224.5 5058.56 1224.5C5058.55 1224.51 5058.55 1224.52 5058.54 1224.55C5058.52 1224.59 5058.49 1224.65 5058.46 1224.75C5058.38 1224.93 5058.26 1225.22 5058.1 1225.61C5057.79 1226.38 5057.31 1227.56 5056.67 1229.12C5055.4 1232.24 5053.52 1236.9 5051.11 1242.96C5046.27 1255.08 5039.29 1272.79 5030.77 1295C5028.72 1300.37 5026.57 1306 5024.34 1311.87C5059.36 1260.51 5097.07 1213.33 5136.99 1174.92C5214.39 1100.44 5313.26 1047.33 5421.38 1085.94L5423.02 1086.53C5481.44 1107.89 5518.97 1148.52 5540.15 1198.16C5591.26 1159.04 5646.05 1127.43 5702.61 1110.54C5776.12 1088.58 5853.5 1091.48 5925.58 1135.44L5927.25 1136.47C5997.95 1180.65 6017.49 1260.75 6017.72 1334.93C6017.96 1411.1 5998.41 1496.99 5974.13 1574.99C5949.62 1653.77 5919.07 1728.28 5894.82 1782.81C5882.66 1810.16 5872 1832.67 5864.35 1848.41C5860.52 1856.28 5857.44 1862.47 5855.29 1866.74C5854.22 1868.87 5853.38 1870.52 5852.8 1871.66C5852.5 1872.23 5852.28 1872.68 5852.12 1872.99C5852.04 1873.14 5851.97 1873.27 5851.93 1873.36C5851.9 1873.4 5851.88 1873.44 5851.87 1873.47C5851.86 1873.48 5851.86 1873.49 5851.85 1873.5C5851.85 1873.51 5851.84 1873.52 5804.18 1848.81ZM5439.97 1450.36C5382.13 1521.88 5331.9 1598.39 5295.41 1664.53L5293.95 1667.18C5259.92 1729.21 5224.37 1812.95 5204.49 1884.5C5194.47 1920.6 5189.3 1950.57 5189.07 1971.81C5189.06 1972.65 5189.06 1973.45 5189.07 1974.22C5201.68 1965.34 5217.54 1950.18 5235.21 1928.98C5275.41 1880.75 5313.82 1814.96 5333.04 1768.89L5337 1759.36C5373.31 1671.75 5417.28 1557.04 5439.97 1450.36ZM5803.9 1848.67C5803.44 1848.43 5802.98 1848.19 5802.53 1847.96L5804.18 1848.81C5804.08 1848.76 5803.99 1848.72 5803.9 1848.67Z" fill="#12CD60"/>
</svg>
