<svg width="1500" height="500" viewBox="0 0 1500 500" fill="none" xmlns="http://www.w3.org/2000/svg">
<g clip-path="url(#clip0_223_162)">
<rect width="1500" height="500" fill="#EBFFE2"/>
<rect x="252" width="126" height="126" fill="#4BF678"/>
<rect x="378" width="126" height="126" fill="#00C777"/>
<rect x="504" width="126" height="126" fill="#007F60"/>
<rect x="378" y="126" width="126" height="126" fill="#007F60"/>
<rect x="252" y="126" width="126" height="126" fill="#00C777"/>
<rect x="252" y="252" width="126" height="126" fill="#007F60"/>
<rect x="126" y="126" width="126" height="126" fill="#4BF678"/>
<rect x="126" y="252" width="126" height="126" fill="#00C777"/>
<rect y="252" width="126" height="126" fill="#4BF678"/>
<rect y="378" width="126" height="126" fill="#00C777"/>
<rect x="126" y="378" width="126" height="126" fill="#007F60"/>
<path d="M667.301 349.56H666.651L658.981 364.77L637.271 404.29L615.561 364.77L607.891 349.56H607.241V426H596.581V335.26H611.141L637.141 384.14H637.791L663.921 335.26H677.961V426H667.301V349.56ZM697.139 343.19C694.886 343.19 693.239 342.67 692.199 341.63C691.246 340.503 690.769 339.073 690.769 337.34V335.65C690.769 333.917 691.246 332.53 692.199 331.49C693.239 330.363 694.886 329.8 697.139 329.8C699.392 329.8 700.996 330.363 701.949 331.49C702.989 332.53 703.509 333.917 703.509 335.65V337.34C703.509 339.073 702.989 340.503 701.949 341.63C700.996 342.67 699.392 343.19 697.139 343.19ZM691.939 358.92H702.339V426H691.939V358.92ZM740.299 427.56C735.619 427.56 731.416 426.737 727.689 425.09C723.962 423.443 720.799 421.103 718.199 418.07C715.686 415.037 713.736 411.353 712.349 407.02C711.049 402.687 710.399 397.833 710.399 392.46C710.399 387.087 711.049 382.233 712.349 377.9C713.736 373.567 715.686 369.883 718.199 366.85C720.799 363.817 723.962 361.477 727.689 359.83C731.416 358.183 735.619 357.36 740.299 357.36C746.972 357.36 752.302 358.833 756.289 361.78C760.362 364.64 763.396 368.41 765.389 373.09L756.679 377.51C755.466 374.043 753.472 371.357 750.699 369.45C747.926 367.543 744.459 366.59 740.299 366.59C737.179 366.59 734.449 367.11 732.109 368.15C729.769 369.103 727.819 370.49 726.259 372.31C724.699 374.043 723.529 376.167 722.749 378.68C721.969 381.107 721.579 383.793 721.579 386.74V398.18C721.579 404.073 723.139 408.927 726.259 412.74C729.466 416.467 734.146 418.33 740.299 418.33C748.706 418.33 754.772 414.43 758.499 406.63L766.039 411.7C763.872 416.553 760.622 420.41 756.289 423.27C752.042 426.13 746.712 427.56 740.299 427.56ZM771.62 329.8H782.02V369.84H782.54C784.186 366.027 786.483 362.993 789.43 360.74C792.463 358.487 796.493 357.36 801.52 357.36C808.453 357.36 813.913 359.613 817.9 364.12C821.973 368.54 824.01 374.823 824.01 382.97V426H813.61V384.79C813.61 372.743 808.54 366.72 798.4 366.72C796.32 366.72 794.283 366.98 792.29 367.5C790.383 368.02 788.65 368.8 787.09 369.84C785.53 370.88 784.273 372.223 783.32 373.87C782.453 375.43 782.02 377.293 782.02 379.46V426H771.62V329.8ZM885.156 426C881.256 426 878.44 424.96 876.706 422.88C875.06 420.8 874.02 418.2 873.586 415.08H872.936C871.463 419.24 869.036 422.36 865.656 424.44C862.276 426.52 858.246 427.56 853.566 427.56C846.46 427.56 840.913 425.74 836.926 422.1C833.026 418.46 831.076 413.52 831.076 407.28C831.076 400.953 833.373 396.1 837.966 392.72C842.646 389.34 849.883 387.65 859.676 387.65H872.936V381.02C872.936 376.253 871.636 372.613 869.036 370.1C866.436 367.587 862.45 366.33 857.076 366.33C853.003 366.33 849.58 367.24 846.806 369.06C844.12 370.88 841.866 373.307 840.046 376.34L833.806 370.49C835.626 366.85 838.53 363.773 842.516 361.26C846.503 358.66 851.53 357.36 857.596 357.36C865.743 357.36 872.07 359.353 876.576 363.34C881.083 367.327 883.336 372.873 883.336 379.98V416.9H891.006V426H885.156ZM855.256 418.72C857.856 418.72 860.24 418.417 862.406 417.81C864.573 417.203 866.436 416.337 867.996 415.21C869.556 414.083 870.77 412.783 871.636 411.31C872.503 409.837 872.936 408.233 872.936 406.5V395.45H859.156C853.176 395.45 848.8 396.317 846.026 398.05C843.34 399.783 841.996 402.297 841.996 405.59V408.32C841.996 411.613 843.166 414.17 845.506 415.99C847.933 417.81 851.183 418.72 855.256 418.72ZM921.97 427.56C917.376 427.56 913.216 426.737 909.49 425.09C905.85 423.443 902.686 421.103 900 418.07C897.4 414.95 895.363 411.267 893.89 407.02C892.503 402.687 891.81 397.833 891.81 392.46C891.81 387.173 892.503 382.363 893.89 378.03C895.363 373.697 897.4 370.013 900 366.98C902.686 363.86 905.85 361.477 909.49 359.83C913.216 358.183 917.376 357.36 921.97 357.36C926.476 357.36 930.506 358.183 934.06 359.83C937.613 361.477 940.646 363.773 943.16 366.72C945.673 369.58 947.58 373.003 948.88 376.99C950.266 380.977 950.96 385.353 950.96 390.12V395.06H902.73V398.18C902.73 401.04 903.163 403.727 904.03 406.24C904.983 408.667 906.283 410.79 907.93 412.61C909.663 414.43 911.743 415.86 914.17 416.9C916.683 417.94 919.5 418.46 922.62 418.46C926.866 418.46 930.55 417.463 933.67 415.47C936.876 413.477 939.346 410.617 941.08 406.89L948.49 412.22C946.323 416.813 942.943 420.54 938.35 423.4C933.756 426.173 928.296 427.56 921.97 427.56ZM921.97 366.07C919.11 366.07 916.51 366.59 914.17 367.63C911.83 368.583 909.793 369.97 908.06 371.79C906.413 373.61 905.113 375.777 904.16 378.29C903.206 380.717 902.73 383.403 902.73 386.35V387.26H939.78V385.83C939.78 379.85 938.133 375.083 934.84 371.53C931.633 367.89 927.343 366.07 921.97 366.07ZM970.047 426C966.407 426 963.634 425.003 961.727 423.01C959.907 420.93 958.997 418.33 958.997 415.21V329.8H969.397V416.9H979.277V426H970.047ZM1078.7 349.56H1078.05L1070.38 364.77L1048.67 404.29L1026.96 364.77L1019.29 349.56H1018.64V426H1007.98V335.26H1022.54L1048.54 384.14H1049.19L1075.32 335.26H1089.36V426H1078.7V349.56ZM1152.09 426C1148.19 426 1145.37 424.96 1143.64 422.88C1141.99 420.8 1140.95 418.2 1140.52 415.08H1139.87C1138.39 419.24 1135.97 422.36 1132.59 424.44C1129.21 426.52 1125.18 427.56 1120.5 427.56C1113.39 427.56 1107.84 425.74 1103.86 422.1C1099.96 418.46 1098.01 413.52 1098.01 407.28C1098.01 400.953 1100.3 396.1 1104.9 392.72C1109.58 389.34 1116.81 387.65 1126.61 387.65H1139.87V381.02C1139.87 376.253 1138.57 372.613 1135.97 370.1C1133.37 367.587 1129.38 366.33 1124.01 366.33C1119.93 366.33 1116.51 367.24 1113.74 369.06C1111.05 370.88 1108.8 373.307 1106.98 376.34L1100.74 370.49C1102.56 366.85 1105.46 363.773 1109.45 361.26C1113.43 358.66 1118.46 357.36 1124.53 357.36C1132.67 357.36 1139 359.353 1143.51 363.34C1148.01 367.327 1150.27 372.873 1150.27 379.98V416.9H1157.94V426H1152.09ZM1122.19 418.72C1124.79 418.72 1127.17 418.417 1129.34 417.81C1131.5 417.203 1133.37 416.337 1134.93 415.21C1136.49 414.083 1137.7 412.783 1138.57 411.31C1139.43 409.837 1139.87 408.233 1139.87 406.5V395.45H1126.09C1120.11 395.45 1115.73 396.317 1112.96 398.05C1110.27 399.783 1108.93 402.297 1108.93 405.59V408.32C1108.93 411.613 1110.1 414.17 1112.44 415.99C1114.86 417.81 1118.11 418.72 1122.19 418.72ZM1163.68 426V358.92H1174.08V369.84H1174.6C1176.25 366.027 1178.54 362.993 1181.49 360.74C1184.52 358.487 1188.55 357.36 1193.58 357.36C1200.51 357.36 1205.97 359.613 1209.96 364.12C1214.03 368.54 1216.07 374.823 1216.07 382.97V426H1205.67V384.79C1205.67 372.743 1200.6 366.72 1190.46 366.72C1188.38 366.72 1186.34 366.98 1184.35 367.5C1182.44 368.02 1180.71 368.8 1179.15 369.84C1177.59 370.88 1176.33 372.223 1175.38 373.87C1174.51 375.43 1174.08 377.293 1174.08 379.46V426H1163.68ZM1271.37 415.08H1270.85C1266.77 423.4 1260.23 427.56 1251.22 427.56C1247.06 427.56 1243.29 426.737 1239.91 425.09C1236.53 423.443 1233.62 421.103 1231.2 418.07C1228.86 415.037 1227.04 411.353 1225.74 407.02C1224.52 402.687 1223.92 397.833 1223.92 392.46C1223.92 387.087 1224.52 382.233 1225.74 377.9C1227.04 373.567 1228.86 369.883 1231.2 366.85C1233.62 363.817 1236.53 361.477 1239.91 359.83C1243.29 358.183 1247.06 357.36 1251.22 357.36C1255.9 357.36 1259.88 358.4 1263.18 360.48C1266.56 362.473 1269.11 365.593 1270.85 369.84H1271.37V329.8H1281.77V426H1271.37V415.08ZM1254.08 418.2C1256.42 418.2 1258.63 417.897 1260.71 417.29C1262.87 416.683 1264.74 415.817 1266.3 414.69C1267.86 413.477 1269.07 412.047 1269.94 410.4C1270.89 408.667 1271.37 406.717 1271.37 404.55V379.59C1271.37 377.77 1270.89 376.08 1269.94 374.52C1269.07 372.873 1267.86 371.487 1266.3 370.36C1264.74 369.233 1262.87 368.367 1260.71 367.76C1258.63 367.067 1256.42 366.72 1254.08 366.72C1248.18 366.72 1243.55 368.583 1240.17 372.31C1236.79 375.95 1235.1 380.76 1235.1 386.74V398.18C1235.1 404.16 1236.79 409.013 1240.17 412.74C1243.55 416.38 1248.18 418.2 1254.08 418.2ZM1299.98 343.19C1297.72 343.19 1296.08 342.67 1295.04 341.63C1294.08 340.503 1293.61 339.073 1293.61 337.34V335.65C1293.61 333.917 1294.08 332.53 1295.04 331.49C1296.08 330.363 1297.72 329.8 1299.98 329.8C1302.23 329.8 1303.83 330.363 1304.79 331.49C1305.83 332.53 1306.35 333.917 1306.35 335.65V337.34C1306.35 339.073 1305.83 340.503 1304.79 341.63C1303.83 342.67 1302.23 343.19 1299.98 343.19ZM1294.78 358.92H1305.18V426H1294.78V358.92ZM1343.14 427.56C1338.46 427.56 1334.25 426.737 1330.53 425.09C1326.8 423.443 1323.64 421.103 1321.04 418.07C1318.52 415.037 1316.57 411.353 1315.19 407.02C1313.89 402.687 1313.24 397.833 1313.24 392.46C1313.24 387.087 1313.89 382.233 1315.19 377.9C1316.57 373.567 1318.52 369.883 1321.04 366.85C1323.64 363.817 1326.8 361.477 1330.53 359.83C1334.25 358.183 1338.46 357.36 1343.14 357.36C1349.81 357.36 1355.14 358.833 1359.13 361.78C1363.2 364.64 1366.23 368.41 1368.23 373.09L1359.52 377.51C1358.3 374.043 1356.31 371.357 1353.54 369.45C1350.76 367.543 1347.3 366.59 1343.14 366.59C1340.02 366.59 1337.29 367.11 1334.95 368.15C1332.61 369.103 1330.66 370.49 1329.1 372.31C1327.54 374.043 1326.37 376.167 1325.59 378.68C1324.81 381.107 1324.42 383.793 1324.42 386.74V398.18C1324.42 404.073 1325.98 408.927 1329.1 412.74C1332.3 416.467 1336.98 418.33 1343.14 418.33C1351.54 418.33 1357.61 414.43 1361.34 406.63L1368.88 411.7C1366.71 416.553 1363.46 420.41 1359.13 423.27C1354.88 426.13 1349.55 427.56 1343.14 427.56Z" fill="#04211A"/>
<path d="M293.429 290H285V298.333H293.429V290Z" fill="#EBFFE2"/>
<path d="M301.857 290H293.429V298.333H301.857V290Z" fill="#EBFFE2"/>
<path d="M335.571 290H327.143V298.333H335.571V290Z" fill="#EBFFE2"/>
<path d="M344 290H335.571V298.333H344V290Z" fill="#EBFFE2"/>
<path d="M293.429 298.333H285V306.667H293.429V298.333Z" fill="#EBFFE2"/>
<path d="M301.857 298.333H293.429V306.667H301.857V298.333Z" fill="#EBFFE2"/>
<path d="M310.286 298.333H301.857V306.667H310.286V298.333Z" fill="#EBFFE2"/>
<path d="M327.143 298.333H318.714V306.667H327.143V298.333Z" fill="#EBFFE2"/>
<path d="M335.571 298.333H327.143V306.667H335.571V298.333Z" fill="#EBFFE2"/>
<path d="M344 298.333H335.571V306.667H344V298.333Z" fill="#EBFFE2"/>
<path d="M293.429 306.667H285V315H293.429V306.667Z" fill="#EBFFE2"/>
<path d="M301.857 306.667H293.429V315H301.857V306.667Z" fill="#EBFFE2"/>
<path d="M310.286 306.667H301.857V315H310.286V306.667Z" fill="#EBFFE2"/>
<path d="M318.714 306.667H310.286V315H318.714L318.714 306.667Z" fill="#EBFFE2"/>
<path d="M327.143 306.667H318.714L318.714 315H327.143V306.667Z" fill="#EBFFE2"/>
<path d="M335.571 306.667H327.143V315H335.571V306.667Z" fill="#EBFFE2"/>
<path d="M344 306.667H335.571V315H344V306.667Z" fill="#EBFFE2"/>
<path d="M293.429 315H285V323.333H293.429V315Z" fill="#EBFFE2"/>
<path d="M301.857 315H293.429V323.333H301.857V315Z" fill="#EBFFE2"/>
<path d="M310.286 315H301.857V323.333H310.286V315Z" fill="#EBFFE2"/>
<path d="M318.714 315H310.286V323.333H318.714V315Z" fill="#EBFFE2"/>
<path d="M327.143 315H318.714V323.333H327.143V315Z" fill="#EBFFE2"/>
<path d="M335.571 315H327.143V323.333H335.571V315Z" fill="#EBFFE2"/>
<path d="M344 315H335.571V323.333H344V315Z" fill="#EBFFE2"/>
<path d="M293.429 323.333H285V331.667H293.429V323.333Z" fill="#EBFFE2"/>
<path d="M301.857 323.333H293.429V331.667H301.857V323.333Z" fill="#EBFFE2"/>
<path d="M318.714 323.333H310.286L310.286 331.667H318.714V323.333Z" fill="#EBFFE2"/>
<path d="M335.571 323.333H327.143V331.667H335.571V323.333Z" fill="#EBFFE2"/>
<path d="M344 323.333H335.571V331.667H344V323.333Z" fill="#EBFFE2"/>
<path d="M293.429 331.667H285V340H293.429V331.667Z" fill="#EBFFE2"/>
<path d="M301.857 331.667H293.429V340H301.857V331.667Z" fill="#EBFFE2"/>
<path d="M335.571 331.667H327.143V340H335.571V331.667Z" fill="#EBFFE2"/>
<path d="M344 331.667H335.571V340H344V331.667Z" fill="#EBFFE2"/>
</g>
<defs>
<clipPath id="clip0_223_162">
<rect width="1500" height="500" fill="white"/>
</clipPath>
</defs>
</svg>
