<svg width="1372" height="430" viewBox="0 0 1372 430" fill="none" xmlns="http://www.w3.org/2000/svg">
<rect width="1372" height="317" fill="#6FFF9D"/>
<rect x="249" y="315" width="1122.7" height="69.885" fill="#6FFF9D"/>
<rect x="1312.61" y="384.885" width="58.1362" height="44.5818" fill="#6FFF9D"/>
<rect x="588" y="51" width="407" height="132" fill="black" fill-opacity="0.7"/>
<path d="M137.392 154V83.92H149.392V112.048H168.208V83.92H180.208V154H168.208V123.184H149.392V154H137.392ZM194.859 154V143.056H213.291V112.048H197.259V101.2H224.811V143.056H241.131V154H194.859ZM218.091 92.368C215.659 92.368 213.739 91.76 212.331 90.544C210.923 89.264 210.219 87.568 210.219 85.456C210.219 83.344 210.923 81.68 212.331 80.464C213.739 79.184 215.659 78.544 218.091 78.544C220.523 78.544 222.443 79.184 223.851 80.464C225.259 81.68 225.963 83.344 225.963 85.456C225.963 87.568 225.259 89.264 223.851 90.544C222.443 91.76 220.523 92.368 218.091 92.368ZM259.525 169.36L267.205 139.504H282.565L270.085 169.36H259.525ZM368.89 154V143.44H383.002V94.48H368.89V83.92H409.21V94.48H395.098V143.44H409.21V154H368.89ZM431.733 109.36L439.413 79.504H454.773L442.293 109.36H431.733ZM480.367 154V101.2H490.159V108.304H492.175L490.543 110.032C490.543 107.088 491.375 104.72 493.039 102.928C494.703 101.136 496.847 100.24 499.471 100.24C502.287 100.24 504.463 101.392 505.999 103.696C507.599 106 508.399 109.104 508.399 113.008L506.287 108.304H509.551L508.303 110.032C508.303 107.088 509.135 104.72 510.799 102.928C512.463 101.136 514.671 100.24 517.423 100.24C520.687 100.24 523.279 101.456 525.199 103.888C527.119 106.32 528.079 109.616 528.079 113.776V154H517.519V114.256C517.519 112.528 517.135 111.184 516.367 110.224C515.599 109.2 514.479 108.688 513.007 108.688C511.599 108.688 510.479 109.168 509.647 110.128C508.879 111.088 508.495 112.464 508.495 114.256V154H499.855V114.256C499.855 112.464 499.471 111.088 498.703 110.128C497.935 109.168 496.815 108.688 495.343 108.688C493.871 108.688 492.751 109.168 491.983 110.128C491.279 111.088 490.927 112.464 490.927 114.256V154H480.367ZM1017.82 131.632L1015.71 97.168V83.92H1028.77V97.168L1026.65 131.632H1017.82ZM1020.8 154.48C1018.81 154.48 1017.21 153.904 1016 152.752C1014.78 151.536 1014.17 150 1014.17 148.144C1014.17 146.288 1014.78 144.784 1016 143.632C1017.21 142.416 1018.81 141.808 1020.8 141.808H1023.68C1025.73 141.808 1027.33 142.384 1028.48 143.536C1029.69 144.688 1030.3 146.224 1030.3 148.144C1030.3 150 1029.69 151.536 1028.48 152.752C1027.26 153.904 1025.63 154.48 1023.58 154.48H1020.8Z" fill="black" fill-opacity="0.7"/>
<path d="M595.876 154V83.92H610.084L616.9 106.192C617.604 108.432 618.18 110.48 618.628 112.336C619.076 114.192 619.364 115.536 619.492 116.368C619.62 115.536 619.908 114.192 620.356 112.336C620.804 110.48 621.348 108.432 621.988 106.192L628.516 83.92H642.724V154H631.492V132.208C631.492 129.008 631.588 125.52 631.78 121.744C631.972 117.968 632.196 114.192 632.452 110.416C632.708 106.64 632.996 103.056 633.316 99.664C633.7 96.272 634.02 93.296 634.276 90.736L624.868 123.856H613.924L604.228 90.736C604.548 93.168 604.868 96.048 605.188 99.376C605.508 102.64 605.796 106.16 606.052 109.936C606.372 113.648 606.628 117.424 606.82 121.264C607.012 125.104 607.108 128.752 607.108 132.208V154H595.876ZM655.359 154V143.056H673.791V112.048H657.759V101.2H685.311V143.056H701.631V154H655.359ZM678.591 92.368C676.159 92.368 674.239 91.76 672.831 90.544C671.423 89.264 670.719 87.568 670.719 85.456C670.719 83.344 671.423 81.68 672.831 80.464C674.239 79.184 676.159 78.544 678.591 78.544C681.023 78.544 682.943 79.184 684.351 80.464C685.759 81.68 686.463 83.344 686.463 85.456C686.463 87.568 685.759 89.264 684.351 90.544C682.943 91.76 681.023 92.368 678.591 92.368ZM734.713 154.96C730.233 154.96 726.297 154.128 722.905 152.464C719.577 150.736 716.985 148.336 715.129 145.264C713.273 142.128 712.345 138.448 712.345 134.224V120.976C712.345 116.688 713.273 113.008 715.129 109.936C716.985 106.864 719.577 104.496 722.905 102.832C726.297 101.104 730.233 100.24 734.713 100.24C741.369 100.24 746.681 101.968 750.649 105.424C754.617 108.816 756.697 113.456 756.889 119.344H744.889C744.697 116.592 743.705 114.48 741.913 113.008C740.185 111.472 737.785 110.704 734.713 110.704C731.513 110.704 728.985 111.6 727.129 113.392C725.273 115.12 724.345 117.616 724.345 120.88V134.224C724.345 137.488 725.273 140.016 727.129 141.808C728.985 143.6 731.513 144.496 734.713 144.496C737.785 144.496 740.185 143.76 741.913 142.288C743.705 140.752 744.697 138.608 744.889 135.856H756.889C756.697 141.744 754.617 146.416 750.649 149.872C746.681 153.264 741.369 154.96 734.713 154.96ZM770.58 154V83.92H782.58V101.2L782.292 111.28H785.556L782.292 114.064C782.292 109.712 783.54 106.32 786.036 103.888C788.596 101.456 792.084 100.24 796.5 100.24C801.684 100.24 805.812 101.968 808.884 105.424C812.02 108.88 813.588 113.52 813.588 119.344V154H801.588V120.592C801.588 117.392 800.756 114.928 799.092 113.2C797.428 111.472 795.092 110.608 792.084 110.608C789.14 110.608 786.804 111.504 785.076 113.296C783.412 115.088 782.58 117.648 782.58 120.976V154H770.58ZM843.694 154.96C838.254 154.96 833.966 153.52 830.83 150.64C827.694 147.76 826.126 143.888 826.126 139.024C826.126 133.84 827.854 129.84 831.31 127.024C834.766 124.208 839.662 122.8 845.998 122.8H859.15V118.288C859.15 115.728 858.318 113.744 856.654 112.336C854.99 110.864 852.718 110.128 849.838 110.128C847.214 110.128 845.038 110.704 843.31 111.856C841.582 113.008 840.558 114.576 840.238 116.56H828.526C829.102 111.568 831.342 107.6 835.246 104.656C839.15 101.712 844.142 100.24 850.222 100.24C856.686 100.24 861.774 101.872 865.486 105.136C869.262 108.336 871.15 112.688 871.15 118.192V154H859.534V144.784H857.614L859.534 142.192C859.534 146.096 858.094 149.2 855.214 151.504C852.334 153.808 848.494 154.96 843.694 154.96ZM847.63 145.936C851.022 145.936 853.774 145.072 855.886 143.344C858.062 141.616 859.15 139.376 859.15 136.624V130.192H846.19C843.758 130.192 841.806 130.896 840.334 132.304C838.862 133.712 838.126 135.568 838.126 137.872C838.126 140.368 838.958 142.352 840.622 143.824C842.35 145.232 844.686 145.936 847.63 145.936ZM907.209 154.96C902.729 154.96 898.825 154.096 895.497 152.368C892.169 150.64 889.577 148.24 887.721 145.168C885.929 142.032 885.033 138.384 885.033 134.224V120.976C885.033 116.816 885.929 113.2 887.721 110.128C889.577 106.992 892.169 104.56 895.497 102.832C898.825 101.104 902.729 100.24 907.209 100.24C911.625 100.24 915.465 101.104 918.729 102.832C922.057 104.56 924.617 106.992 926.409 110.128C928.265 113.2 929.193 116.816 929.193 120.976V130.48H896.649V134.224C896.649 137.936 897.545 140.752 899.337 142.672C901.129 144.528 903.785 145.456 907.305 145.456C909.993 145.456 912.169 145.008 913.833 144.112C915.497 143.152 916.553 141.776 917.001 139.984H928.809C927.913 144.528 925.481 148.176 921.513 150.928C917.609 153.616 912.841 154.96 907.209 154.96ZM917.577 123.76V120.88C917.577 117.232 916.713 114.448 914.985 112.528C913.257 110.544 910.665 109.552 907.209 109.552C903.753 109.552 901.129 110.544 899.337 112.528C897.545 114.512 896.649 117.328 896.649 120.976V122.992L918.441 122.8L917.577 123.76ZM972.739 154C969.283 154 966.243 153.296 963.619 151.888C961.059 150.48 959.043 148.496 957.571 145.936C956.099 143.312 955.363 140.304 955.363 136.912V94.768H938.467V83.92H967.363V136.912C967.363 138.832 967.907 140.368 968.995 141.52C970.147 142.608 971.683 143.152 973.603 143.152H989.539V154H972.739Z" fill="white"/>
<path d="M140.872 255.36C139.072 255.36 137.512 255.06 136.192 254.46C134.872 253.86 133.852 253.008 133.132 251.904C132.436 250.776 132.076 249.456 132.052 247.944H136.552C136.552 249.024 136.936 249.876 137.704 250.5C138.496 251.1 139.564 251.4 140.908 251.4C142.204 251.4 143.212 251.1 143.932 250.5C144.676 249.9 145.048 249.072 145.048 248.016C145.048 247.128 144.784 246.36 144.256 245.712C143.752 245.04 143.02 244.584 142.06 244.344L139.036 243.516C136.972 242.988 135.376 242.04 134.248 240.672C133.144 239.304 132.592 237.648 132.592 235.704C132.592 234.216 132.928 232.92 133.6 231.816C134.272 230.712 135.22 229.86 136.444 229.26C137.692 228.66 139.156 228.36 140.836 228.36C143.38 228.36 145.396 229.02 146.884 230.34C148.372 231.636 149.128 233.388 149.152 235.596H144.652C144.652 234.564 144.316 233.76 143.644 233.184C142.972 232.584 142.024 232.284 140.8 232.284C139.624 232.284 138.712 232.56 138.064 233.112C137.416 233.664 137.092 234.444 137.092 235.452C137.092 236.364 137.332 237.144 137.812 237.792C138.316 238.416 139.036 238.86 139.972 239.124L143.104 239.988C145.192 240.516 146.788 241.464 147.892 242.832C148.996 244.176 149.548 245.844 149.548 247.836C149.548 249.324 149.188 250.644 148.468 251.796C147.748 252.924 146.74 253.8 145.444 254.424C144.148 255.048 142.624 255.36 140.872 255.36ZM162.386 255.324C160.706 255.324 159.242 255.012 157.994 254.388C156.77 253.74 155.81 252.84 155.114 251.688C154.442 250.512 154.106 249.132 154.106 247.548V242.652C154.106 241.068 154.442 239.7 155.114 238.548C155.81 237.372 156.77 236.472 157.994 235.848C159.242 235.2 160.706 234.876 162.386 234.876C164.09 234.876 165.554 235.2 166.778 235.848C168.002 236.472 168.95 237.372 169.622 238.548C170.318 239.7 170.666 241.056 170.666 242.616V247.548C170.666 249.132 170.318 250.512 169.622 251.688C168.95 252.84 168.002 253.74 166.778 254.388C165.554 255.012 164.09 255.324 162.386 255.324ZM162.386 251.4C163.586 251.4 164.51 251.076 165.158 250.428C165.83 249.756 166.166 248.796 166.166 247.548V242.652C166.166 241.38 165.83 240.42 165.158 239.772C164.51 239.124 163.586 238.8 162.386 238.8C161.21 238.8 160.286 239.124 159.614 239.772C158.942 240.42 158.606 241.38 158.606 242.652V247.548C158.606 248.796 158.942 249.756 159.614 250.428C160.286 251.076 161.21 251.4 162.386 251.4ZM180.552 255V241.464H175.116V237.396H180.552V234.408C180.552 232.68 181.128 231.3 182.28 230.268C183.432 229.236 184.956 228.72 186.852 228.72H192.648V232.68H186.96C186.384 232.68 185.916 232.848 185.556 233.184C185.22 233.496 185.052 233.928 185.052 234.48V237.396H192.648V241.464H185.052V255H180.552ZM207.718 255C205.822 255 204.334 254.472 203.254 253.416C202.198 252.36 201.67 250.908 201.67 249.06V239.268H196.306V235.2H201.67V229.62H206.206V235.2H213.802V239.268H206.206V249.06C206.206 250.308 206.818 250.932 208.042 250.932H213.442V255H207.718ZM220.088 255L217.064 235.2H220.808L222.464 247.332C222.56 248.028 222.644 248.796 222.716 249.636C222.812 250.476 222.884 251.172 222.932 251.724C223.004 251.172 223.1 250.476 223.22 249.636C223.34 248.796 223.448 248.028 223.544 247.332L225.416 235.2H228.908L230.744 247.332C230.84 248.028 230.948 248.808 231.068 249.672C231.188 250.512 231.284 251.208 231.356 251.76C231.404 251.184 231.476 250.476 231.572 249.636C231.692 248.772 231.788 248.004 231.86 247.332L233.624 235.2H237.224L234.128 255H229.484L227.756 242.796C227.66 242.124 227.552 241.38 227.432 240.564C227.312 239.724 227.216 239.04 227.144 238.512C227.072 239.04 226.976 239.724 226.856 240.564C226.76 241.38 226.652 242.124 226.532 242.796L224.732 255H220.088ZM246.534 255.36C244.494 255.36 242.886 254.82 241.71 253.74C240.534 252.66 239.946 251.208 239.946 249.384C239.946 247.44 240.594 245.94 241.89 244.884C243.186 243.828 245.022 243.3 247.398 243.3H252.33V241.608C252.33 240.648 252.018 239.904 251.394 239.376C250.77 238.824 249.918 238.548 248.838 238.548C247.854 238.548 247.038 238.764 246.39 239.196C245.742 239.628 245.358 240.216 245.238 240.96H240.846C241.062 239.088 241.902 237.6 243.366 236.496C244.83 235.392 246.702 234.84 248.982 234.84C251.406 234.84 253.314 235.452 254.706 236.676C256.122 237.876 256.83 239.508 256.83 241.572V255H252.474V251.544H251.754L252.474 250.572C252.474 252.036 251.934 253.2 250.854 254.064C249.774 254.928 248.334 255.36 246.534 255.36ZM248.01 251.976C249.282 251.976 250.314 251.652 251.106 251.004C251.922 250.356 252.33 249.516 252.33 248.484V246.072H247.47C246.558 246.072 245.826 246.336 245.274 246.864C244.722 247.392 244.446 248.088 244.446 248.952C244.446 249.888 244.758 250.632 245.382 251.184C246.03 251.712 246.906 251.976 248.01 251.976ZM262.9 255V235.2H267.148V238.98H268.264L266.932 241.284C266.932 239.148 267.412 237.54 268.372 236.46C269.332 235.38 270.748 234.84 272.62 234.84C274.756 234.84 276.436 235.5 277.66 236.82C278.884 238.14 279.496 239.964 279.496 242.292V243.732H274.78V242.616C274.78 241.344 274.444 240.36 273.772 239.664C273.124 238.968 272.224 238.62 271.072 238.62C269.896 238.62 268.984 238.968 268.336 239.664C267.712 240.36 267.4 241.344 267.4 242.616V255H262.9ZM291.938 255.36C290.258 255.36 288.794 255.036 287.546 254.388C286.298 253.74 285.326 252.84 284.63 251.688C283.958 250.512 283.622 249.144 283.622 247.584V242.616C283.622 241.056 283.958 239.7 284.63 238.548C285.326 237.372 286.298 236.46 287.546 235.812C288.794 235.164 290.258 234.84 291.938 234.84C293.594 234.84 295.034 235.164 296.258 235.812C297.506 236.46 298.466 237.372 299.138 238.548C299.834 239.7 300.182 241.056 300.182 242.616V246.18H287.978V247.584C287.978 248.976 288.314 250.032 288.986 250.752C289.658 251.448 290.654 251.796 291.974 251.796C292.982 251.796 293.798 251.628 294.422 251.292C295.046 250.932 295.442 250.416 295.61 249.744H300.038C299.702 251.448 298.79 252.816 297.302 253.848C295.838 254.856 294.05 255.36 291.938 255.36ZM295.826 243.66V242.58C295.826 241.212 295.502 240.168 294.854 239.448C294.206 238.704 293.234 238.332 291.938 238.332C290.642 238.332 289.658 238.704 288.986 239.448C288.314 240.192 287.978 241.248 287.978 242.616V243.372L296.15 243.3L295.826 243.66ZM327.441 255V228.72H343.209V232.644H331.869V239.484H341.949V243.372H331.869V251.076H343.209V255H327.441ZM348.631 255V235.2H353.023V238.98H354.247L353.023 240.024C353.023 238.392 353.491 237.12 354.427 236.208C355.387 235.296 356.695 234.84 358.351 234.84C360.295 234.84 361.843 235.488 362.995 236.784C364.171 238.08 364.759 239.82 364.759 242.004V255H360.259V242.472C360.259 241.272 359.947 240.348 359.323 239.7C358.699 239.052 357.823 238.728 356.695 238.728C355.591 238.728 354.715 239.064 354.067 239.736C353.443 240.408 353.131 241.368 353.131 242.616V255H348.631ZM372.917 261.48V257.736H378.785C379.793 257.736 380.549 257.484 381.053 256.98C381.557 256.5 381.809 255.804 381.809 254.892V253.416L381.881 249.708H380.909L381.881 248.736C381.881 250.344 381.401 251.604 380.441 252.516C379.505 253.404 378.233 253.848 376.625 253.848C374.609 253.848 373.001 253.164 371.801 251.796C370.625 250.428 370.037 248.58 370.037 246.252V242.4C370.037 240.096 370.625 238.26 371.801 236.892C373.001 235.524 374.609 234.84 376.625 234.84C378.233 234.84 379.505 235.296 380.441 236.208C381.401 237.096 381.881 238.344 381.881 239.952L380.909 238.98H381.881L381.773 235.2H386.273V255C386.273 256.992 385.613 258.564 384.293 259.716C382.973 260.892 381.161 261.48 378.857 261.48H372.917ZM378.137 249.96C379.289 249.96 380.177 249.624 380.801 248.952C381.449 248.256 381.773 247.296 381.773 246.072V242.616C381.773 241.392 381.449 240.444 380.801 239.772C380.177 239.076 379.289 238.728 378.137 238.728C376.985 238.728 376.097 239.064 375.473 239.736C374.849 240.408 374.537 241.368 374.537 242.616V246.072C374.537 247.32 374.849 248.28 375.473 248.952C376.097 249.624 376.985 249.96 378.137 249.96ZM391.767 255V250.896H398.679V239.268H392.667V235.2H402.999V250.896H409.119V255H391.767ZM400.479 231.888C399.567 231.888 398.847 231.66 398.319 231.204C397.791 230.724 397.527 230.088 397.527 229.296C397.527 228.504 397.791 227.88 398.319 227.424C398.847 226.944 399.567 226.704 400.479 226.704C401.391 226.704 402.111 226.944 402.639 227.424C403.167 227.88 403.431 228.504 403.431 229.296C403.431 230.088 403.167 230.724 402.639 231.204C402.111 231.66 401.391 231.888 400.479 231.888ZM413.389 255V235.2H417.781V238.98H419.005L417.781 240.024C417.781 238.392 418.249 237.12 419.185 236.208C420.145 235.296 421.453 234.84 423.109 234.84C425.053 234.84 426.601 235.488 427.753 236.784C428.929 238.08 429.517 239.82 429.517 242.004V255H425.017V242.472C425.017 241.272 424.705 240.348 424.081 239.7C423.457 239.052 422.581 238.728 421.453 238.728C420.349 238.728 419.473 239.064 418.825 239.736C418.201 240.408 417.889 241.368 417.889 242.616V255H413.389ZM443.039 255.36C441.359 255.36 439.895 255.036 438.647 254.388C437.399 253.74 436.427 252.84 435.731 251.688C435.059 250.512 434.723 249.144 434.723 247.584V242.616C434.723 241.056 435.059 239.7 435.731 238.548C436.427 237.372 437.399 236.46 438.647 235.812C439.895 235.164 441.359 234.84 443.039 234.84C444.695 234.84 446.135 235.164 447.359 235.812C448.607 236.46 449.567 237.372 450.239 238.548C450.935 239.7 451.283 241.056 451.283 242.616V246.18H439.079V247.584C439.079 248.976 439.415 250.032 440.087 250.752C440.759 251.448 441.755 251.796 443.075 251.796C444.083 251.796 444.899 251.628 445.523 251.292C446.147 250.932 446.543 250.416 446.711 249.744H451.139C450.803 251.448 449.891 252.816 448.403 253.848C446.939 254.856 445.151 255.36 443.039 255.36ZM446.927 243.66V242.58C446.927 241.212 446.603 240.168 445.955 239.448C445.307 238.704 444.335 238.332 443.039 238.332C441.743 238.332 440.759 238.704 440.087 239.448C439.415 240.192 439.079 241.248 439.079 242.616V243.372L447.251 243.3L446.927 243.66ZM464.625 255.36C462.945 255.36 461.481 255.036 460.233 254.388C458.985 253.74 458.013 252.84 457.317 251.688C456.645 250.512 456.309 249.144 456.309 247.584V242.616C456.309 241.056 456.645 239.7 457.317 238.548C458.013 237.372 458.985 236.46 460.233 235.812C461.481 235.164 462.945 234.84 464.625 234.84C466.281 234.84 467.721 235.164 468.945 235.812C470.193 236.46 471.153 237.372 471.825 238.548C472.521 239.7 472.869 241.056 472.869 242.616V246.18H460.665V247.584C460.665 248.976 461.001 250.032 461.673 250.752C462.345 251.448 463.341 251.796 464.661 251.796C465.669 251.796 466.485 251.628 467.109 251.292C467.733 250.932 468.129 250.416 468.297 249.744H472.725C472.389 251.448 471.477 252.816 469.989 253.848C468.525 254.856 466.737 255.36 464.625 255.36ZM468.513 243.66V242.58C468.513 241.212 468.189 240.168 467.541 239.448C466.893 238.704 465.921 238.332 464.625 238.332C463.329 238.332 462.345 238.704 461.673 239.448C461.001 240.192 460.665 241.248 460.665 242.616V243.372L468.837 243.3L468.513 243.66ZM478.759 255V235.2H483.007V238.98H484.123L482.791 241.284C482.791 239.148 483.271 237.54 484.231 236.46C485.191 235.38 486.607 234.84 488.479 234.84C490.615 234.84 492.295 235.5 493.519 236.82C494.743 238.14 495.355 239.964 495.355 242.292V243.732H490.639V242.616C490.639 241.344 490.303 240.36 489.631 239.664C488.983 238.968 488.083 238.62 486.931 238.62C485.755 238.62 484.843 238.968 484.195 239.664C483.571 240.36 483.259 241.344 483.259 242.616V255H478.759ZM531.039 255.36C529.407 255.36 528.111 254.904 527.151 253.992C526.191 253.056 525.711 251.784 525.711 250.176L526.719 251.22H525.711V255H521.319V228.72H525.819V234.264L525.675 238.98H526.719L525.711 240.024C525.711 238.416 526.191 237.156 527.151 236.244C528.111 235.308 529.407 234.84 531.039 234.84C533.031 234.84 534.627 235.524 535.827 236.892C537.027 238.26 537.627 240.108 537.627 242.436V247.8C537.627 250.104 537.027 251.94 535.827 253.308C534.627 254.676 533.031 255.36 531.039 255.36ZM529.455 251.472C530.607 251.472 531.507 251.136 532.155 250.464C532.803 249.792 533.127 248.832 533.127 247.584V242.616C533.127 241.368 532.803 240.408 532.155 239.736C531.507 239.064 530.607 238.728 529.455 238.728C528.327 238.728 527.439 239.076 526.791 239.772C526.143 240.444 525.819 241.392 525.819 242.616V247.584C525.819 248.808 526.143 249.768 526.791 250.464C527.439 251.136 528.327 251.472 529.455 251.472ZM548.737 255.36C546.697 255.36 545.089 254.82 543.913 253.74C542.737 252.66 542.149 251.208 542.149 249.384C542.149 247.44 542.797 245.94 544.093 244.884C545.389 243.828 547.225 243.3 549.601 243.3H554.533V241.608C554.533 240.648 554.221 239.904 553.597 239.376C552.973 238.824 552.121 238.548 551.041 238.548C550.057 238.548 549.241 238.764 548.593 239.196C547.945 239.628 547.561 240.216 547.441 240.96H543.049C543.265 239.088 544.105 237.6 545.569 236.496C547.033 235.392 548.905 234.84 551.185 234.84C553.609 234.84 555.517 235.452 556.909 236.676C558.325 237.876 559.033 239.508 559.033 241.572V255H554.677V251.544H553.957L554.677 250.572C554.677 252.036 554.137 253.2 553.057 254.064C551.977 254.928 550.537 255.36 548.737 255.36ZM550.213 251.976C551.485 251.976 552.517 251.652 553.309 251.004C554.125 250.356 554.533 249.516 554.533 248.484V246.072H549.673C548.761 246.072 548.029 246.336 547.477 246.864C546.925 247.392 546.649 248.088 546.649 248.952C546.649 249.888 546.961 250.632 547.585 251.184C548.233 251.712 549.109 251.976 550.213 251.976ZM571.763 255.324C570.251 255.324 568.931 255.084 567.803 254.604C566.675 254.124 565.787 253.464 565.139 252.624C564.515 251.76 564.179 250.752 564.131 249.6H568.631C568.679 250.224 568.979 250.728 569.531 251.112C570.107 251.496 570.851 251.688 571.763 251.688H573.347C574.451 251.688 575.279 251.472 575.831 251.04C576.383 250.608 576.659 250.02 576.659 249.276C576.659 248.58 576.407 248.04 575.903 247.656C575.423 247.248 574.667 246.984 573.635 246.864L571.187 246.504C568.931 246.192 567.275 245.592 566.219 244.704C565.163 243.816 564.635 242.484 564.635 240.708C564.635 238.86 565.259 237.432 566.507 236.424C567.755 235.392 569.591 234.876 572.015 234.876H573.383C575.591 234.876 577.355 235.368 578.675 236.352C579.995 237.336 580.703 238.656 580.799 240.312H576.299C576.227 239.784 575.927 239.352 575.399 239.016C574.895 238.68 574.223 238.512 573.383 238.512H572.015C570.983 238.512 570.227 238.704 569.747 239.088C569.291 239.448 569.063 239.988 569.063 240.708C569.063 241.38 569.267 241.884 569.675 242.22C570.083 242.532 570.743 242.76 571.655 242.904L574.211 243.264C576.563 243.6 578.291 244.236 579.395 245.172C580.523 246.084 581.087 247.44 581.087 249.24C581.087 251.16 580.427 252.66 579.107 253.74C577.811 254.796 575.891 255.324 573.347 255.324H571.763ZM594.141 255.36C592.461 255.36 590.997 255.036 589.749 254.388C588.501 253.74 587.529 252.84 586.833 251.688C586.161 250.512 585.825 249.144 585.825 247.584V242.616C585.825 241.056 586.161 239.7 586.833 238.548C587.529 237.372 588.501 236.46 589.749 235.812C590.997 235.164 592.461 234.84 594.141 234.84C595.797 234.84 597.237 235.164 598.461 235.812C599.709 236.46 600.669 237.372 601.341 238.548C602.037 239.7 602.385 241.056 602.385 242.616V246.18H590.181V247.584C590.181 248.976 590.517 250.032 591.189 250.752C591.861 251.448 592.857 251.796 594.177 251.796C595.185 251.796 596.001 251.628 596.625 251.292C597.249 250.932 597.645 250.416 597.813 249.744H602.241C601.905 251.448 600.993 252.816 599.505 253.848C598.041 254.856 596.253 255.36 594.141 255.36ZM598.029 243.66V242.58C598.029 241.212 597.705 240.168 597.057 239.448C596.409 238.704 595.437 238.332 594.141 238.332C592.845 238.332 591.861 238.704 591.189 239.448C590.517 240.192 590.181 241.248 590.181 242.616V243.372L598.353 243.3L598.029 243.66ZM613.999 255.36C612.031 255.36 610.435 254.676 609.211 253.308C608.011 251.94 607.411 250.104 607.411 247.8V242.436C607.411 240.108 608.011 238.26 609.211 236.892C610.411 235.524 612.007 234.84 613.999 234.84C615.631 234.84 616.927 235.308 617.887 236.244C618.847 237.156 619.327 238.416 619.327 240.024L618.319 238.98H619.363L619.219 234.264V228.72H623.719V255H619.327V251.22H618.319L619.327 250.176C619.327 251.784 618.847 253.056 617.887 253.992C616.927 254.904 615.631 255.36 613.999 255.36ZM615.583 251.472C616.735 251.472 617.623 251.136 618.247 250.464C618.895 249.768 619.219 248.808 619.219 247.584V242.616C619.219 241.392 618.895 240.444 618.247 239.772C617.623 239.076 616.735 238.728 615.583 238.728C614.431 238.728 613.531 239.064 612.883 239.736C612.235 240.408 611.911 241.368 611.911 242.616V247.584C611.911 248.832 612.235 249.792 612.883 250.464C613.531 251.136 614.431 251.472 615.583 251.472ZM650.799 255V250.896H657.711V239.268H651.699V235.2H662.031V250.896H668.151V255H650.799ZM659.511 231.888C658.599 231.888 657.879 231.66 657.351 231.204C656.823 230.724 656.559 230.088 656.559 229.296C656.559 228.504 656.823 227.88 657.351 227.424C657.879 226.944 658.599 226.704 659.511 226.704C660.423 226.704 661.143 226.944 661.671 227.424C662.199 227.88 662.463 228.504 662.463 229.296C662.463 230.088 662.199 230.724 661.671 231.204C661.143 231.66 660.423 231.888 659.511 231.888ZM672.42 255V235.2H676.812V238.98H678.036L676.812 240.024C676.812 238.392 677.28 237.12 678.216 236.208C679.176 235.296 680.484 234.84 682.14 234.84C684.084 234.84 685.632 235.488 686.784 236.784C687.96 238.08 688.548 239.82 688.548 242.004V255H684.048V242.472C684.048 241.272 683.736 240.348 683.112 239.7C682.488 239.052 681.612 238.728 680.484 238.728C679.38 238.728 678.504 239.064 677.856 239.736C677.232 240.408 676.92 241.368 676.92 242.616V255H672.42ZM723.692 255.36C721.892 255.36 720.332 255.06 719.012 254.46C717.692 253.86 716.672 253.008 715.952 251.904C715.256 250.776 714.896 249.456 714.872 247.944H719.372C719.372 249.024 719.756 249.876 720.524 250.5C721.316 251.1 722.384 251.4 723.728 251.4C725.024 251.4 726.032 251.1 726.752 250.5C727.496 249.9 727.868 249.072 727.868 248.016C727.868 247.128 727.604 246.36 727.076 245.712C726.572 245.04 725.84 244.584 724.88 244.344L721.856 243.516C719.792 242.988 718.196 242.04 717.068 240.672C715.964 239.304 715.412 237.648 715.412 235.704C715.412 234.216 715.748 232.92 716.42 231.816C717.092 230.712 718.04 229.86 719.264 229.26C720.512 228.66 721.976 228.36 723.656 228.36C726.2 228.36 728.216 229.02 729.704 230.34C731.192 231.636 731.948 233.388 731.972 235.596H727.472C727.472 234.564 727.136 233.76 726.464 233.184C725.792 232.584 724.844 232.284 723.62 232.284C722.444 232.284 721.532 232.56 720.884 233.112C720.236 233.664 719.912 234.444 719.912 235.452C719.912 236.364 720.152 237.144 720.632 237.792C721.136 238.416 721.856 238.86 722.792 239.124L725.924 239.988C728.012 240.516 729.608 241.464 730.712 242.832C731.816 244.176 732.368 245.844 732.368 247.836C732.368 249.324 732.008 250.644 731.288 251.796C730.568 252.924 729.56 253.8 728.264 254.424C726.968 255.048 725.444 255.36 723.692 255.36ZM745.242 255.36C743.562 255.36 742.098 255.036 740.85 254.388C739.602 253.74 738.63 252.84 737.934 251.688C737.262 250.512 736.926 249.144 736.926 247.584V242.616C736.926 241.056 737.262 239.7 737.934 238.548C738.63 237.372 739.602 236.46 740.85 235.812C742.098 235.164 743.562 234.84 745.242 234.84C746.898 234.84 748.338 235.164 749.562 235.812C750.81 236.46 751.77 237.372 752.442 238.548C753.138 239.7 753.486 241.056 753.486 242.616V246.18H741.282V247.584C741.282 248.976 741.618 250.032 742.29 250.752C742.962 251.448 743.958 251.796 745.278 251.796C746.286 251.796 747.102 251.628 747.726 251.292C748.35 250.932 748.746 250.416 748.914 249.744H753.342C753.006 251.448 752.094 252.816 750.606 253.848C749.142 254.856 747.354 255.36 745.242 255.36ZM749.13 243.66V242.58C749.13 241.212 748.806 240.168 748.158 239.448C747.51 238.704 746.538 238.332 745.242 238.332C743.946 238.332 742.962 238.704 742.29 239.448C741.618 240.192 741.282 241.248 741.282 242.616V243.372L749.454 243.3L749.13 243.66ZM759.376 255V235.2H763.624V238.98H764.74L763.408 241.284C763.408 239.148 763.888 237.54 764.848 236.46C765.808 235.38 767.224 234.84 769.096 234.84C771.232 234.84 772.912 235.5 774.136 236.82C775.36 238.14 775.972 239.964 775.972 242.292V243.732H771.256V242.616C771.256 241.344 770.92 240.36 770.248 239.664C769.6 238.968 768.7 238.62 767.548 238.62C766.372 238.62 765.46 238.968 764.812 239.664C764.188 240.36 763.876 241.344 763.876 242.616V255H759.376ZM790.07 255.36C788.438 255.36 787.142 254.904 786.182 253.992C785.222 253.056 784.742 251.784 784.742 250.176L785.75 251.22H784.742V255H780.35V228.72H784.85V234.264L784.706 238.98H785.75L784.742 240.024C784.742 238.416 785.222 237.156 786.182 236.244C787.142 235.308 788.438 234.84 790.07 234.84C792.062 234.84 793.658 235.524 794.858 236.892C796.058 238.26 796.658 240.108 796.658 242.436V247.8C796.658 250.104 796.058 251.94 794.858 253.308C793.658 254.676 792.062 255.36 790.07 255.36ZM788.486 251.472C789.638 251.472 790.538 251.136 791.186 250.464C791.834 249.792 792.158 248.832 792.158 247.584V242.616C792.158 241.368 791.834 240.408 791.186 239.736C790.538 239.064 789.638 238.728 788.486 238.728C787.358 238.728 786.47 239.076 785.822 239.772C785.174 240.444 784.85 241.392 784.85 242.616V247.584C784.85 248.808 785.174 249.768 785.822 250.464C786.47 251.136 787.358 251.472 788.486 251.472ZM801.9 255V250.896H808.812V239.268H802.8V235.2H813.132V250.896H819.252V255H801.9ZM810.612 231.888C809.7 231.888 808.98 231.66 808.452 231.204C807.924 230.724 807.66 230.088 807.66 229.296C807.66 228.504 807.924 227.88 808.452 227.424C808.98 226.944 809.7 226.704 810.612 226.704C811.524 226.704 812.244 226.944 812.772 227.424C813.3 227.88 813.564 228.504 813.564 229.296C813.564 230.088 813.3 230.724 812.772 231.204C812.244 231.66 811.524 231.888 810.612 231.888ZM829.354 255.36C827.314 255.36 825.706 254.82 824.53 253.74C823.354 252.66 822.766 251.208 822.766 249.384C822.766 247.44 823.414 245.94 824.71 244.884C826.006 243.828 827.842 243.3 830.218 243.3H835.15V241.608C835.15 240.648 834.838 239.904 834.214 239.376C833.59 238.824 832.738 238.548 831.658 238.548C830.674 238.548 829.858 238.764 829.21 239.196C828.562 239.628 828.178 240.216 828.058 240.96H823.666C823.882 239.088 824.722 237.6 826.186 236.496C827.65 235.392 829.522 234.84 831.802 234.84C834.226 234.84 836.134 235.452 837.526 236.676C838.942 237.876 839.65 239.508 839.65 241.572V255H835.294V251.544H834.574L835.294 250.572C835.294 252.036 834.754 253.2 833.674 254.064C832.594 254.928 831.154 255.36 829.354 255.36ZM830.83 251.976C832.102 251.976 833.134 251.652 833.926 251.004C834.742 250.356 835.15 249.516 835.15 248.484V246.072H830.29C829.378 246.072 828.646 246.336 828.094 246.864C827.542 247.392 827.266 248.088 827.266 248.952C827.266 249.888 827.578 250.632 828.202 251.184C828.85 251.712 829.726 251.976 830.83 251.976ZM844.496 259.968V255.9H861.776V259.968H844.496Z" fill="black" fill-opacity="0.7"/>
</svg>
