<svg width="1500" height="500" viewBox="0 0 1500 500" fill="none" xmlns="http://www.w3.org/2000/svg">
<g clip-path="url(#clip0_283_313)">
<rect width="1500" height="500" fill="#4BF678"/>
<path d="M-43.8574 453.667H-27.2861V470.333H-10.7139V453.667H5.85742V437H39V537H5.85742V503.667H-10.7139V520.333H-27.2861V503.667H-43.8574V537H-77V437H-43.8574V453.667Z" fill="#04211A"/>
<path d="M264.143 453.667H280.714V470.333H297.286V453.667H313.857V437H347V537H313.857V503.667H297.286V520.333H280.714V503.667H264.143V537H231V437H264.143V453.667Z" fill="#04211A"/>
<path d="M572.143 453.667H588.714V470.333H605.286V453.667H621.857V437H655V537H621.857V503.667H605.286V520.333H588.714V503.667H572.143V537H539V437H572.143V453.667Z" fill="#04211A"/>
<path d="M880.143 453.667H896.714V470.333H913.286V453.667H929.857V437H963V537H929.857V503.667H913.286V520.333H896.714V503.667H880.143V537H847V437H880.143V453.667Z" fill="#04211A"/>
<path d="M1188.14 453.667H1204.71V470.333H1221.29V453.667H1237.86V437H1271V537H1237.86V503.667H1221.29V520.333H1204.71V503.667H1188.14V537H1155V437H1188.14V453.667Z" fill="#04211A"/>
<path d="M1493.14 453.667H1509.71V470.333H1526.29V453.667H1542.86V437H1576V537H1542.86V503.667H1526.29V520.333H1509.71V503.667H1493.14V537H1460V437H1493.14V453.667Z" fill="#04211A"/>
<path d="M110.143 377.667H126.714V394.333H143.286V377.667H159.857V361H193V461H159.857V427.667H143.286V444.333H126.714V427.667H110.143V461H77V361H110.143V377.667Z" fill="#04211A"/>
<path d="M418.143 377.667H434.714V394.333H451.286V377.667H467.857V361H501V461H467.857V427.667H451.286V444.333H434.714V427.667H418.143V461H385V361H418.143V377.667Z" fill="#04211A"/>
<path d="M726.143 377.667H742.714V394.333H759.286V377.667H775.857V361H809V461H775.857V427.667H759.286V444.333H742.714V427.667H726.143V461H693V361H726.143V377.667Z" fill="#04211A"/>
<path d="M1034.14 377.667H1050.71V394.333H1067.29V377.667H1083.86V361H1117V461H1083.86V427.667H1067.29V444.333H1050.71V427.667H1034.14V461H1001V361H1034.14V377.667Z" fill="#04211A"/>
<path d="M1342.14 377.667H1358.71V394.333H1375.29V377.667H1391.86V361H1425V461H1391.86V427.667H1375.29V444.333H1358.71V427.667H1342.14V461H1309V361H1342.14V377.667Z" fill="#04211A"/>
<path d="M-43.8574 295.667H-27.2861V312.333H-10.7139V295.667H5.85742V279H39V379H5.85742V345.667H-10.7139V362.333H-27.2861V345.667H-43.8574V379H-77V279H-43.8574V295.667Z" fill="#04211A"/>
<path d="M264.143 295.667H280.714V312.333H297.286V295.667H313.857V279H347V379H313.857V345.667H297.286V362.333H280.714V345.667H264.143V379H231V279H264.143V295.667Z" fill="#04211A"/>
<path d="M1188.14 295.667H1204.71V312.333H1221.29V295.667H1237.86V279H1271V379H1237.86V345.667H1221.29V362.333H1204.71V345.667H1188.14V379H1155V279H1188.14V295.667Z" fill="#04211A"/>
<path d="M1493.14 295.667H1509.71V312.333H1526.29V295.667H1542.86V279H1576V379H1542.86V345.667H1526.29V362.333H1509.71V345.667H1493.14V379H1460V279H1493.14V295.667Z" fill="#04211A"/>
<path d="M1342.14 219.667H1358.71V236.333H1375.29V219.667H1391.86V203H1425V303H1391.86V269.667H1375.29V286.333H1358.71V269.667H1342.14V303H1309V203H1342.14V219.667Z" fill="#04211A"/>
<path d="M110.143 216.667H126.714V233.333H143.286V216.667H159.857V200H193V300H159.857V266.667H143.286V283.333H126.714V266.667H110.143V300H77V200H110.143V216.667Z" fill="#04211A"/>
<path d="M-43.8574 137.667H-27.2861V154.333H-10.7139V137.667H5.85742V121H39V221H5.85742V187.667H-10.7139V204.333H-27.2861V187.667H-43.8574V221H-77V121H-43.8574V137.667Z" fill="#04211A"/>
<path d="M267.143 137.667H283.714V154.333H300.286V137.667H316.857V121H350V221H316.857V187.667H300.286V204.333H283.714V187.667H267.143V221H234V121H267.143V137.667Z" fill="#04211A"/>
<path d="M1188.14 137.667H1204.71V154.333H1221.29V137.667H1237.86V121H1271V221H1237.86V187.667H1221.29V204.333H1204.71V187.667H1188.14V221H1155V121H1188.14V137.667Z" fill="#04211A"/>
<path d="M1493.14 137.667H1509.71V154.333H1526.29V137.667H1542.86V121H1576V221H1542.86V187.667H1526.29V204.333H1509.71V187.667H1493.14V221H1460V121H1493.14V137.667Z" fill="#04211A"/>
<path d="M110.143 61.667H126.714V78.333H143.286V61.667H159.857V45H193V145H159.857V111.667H143.286V128.333H126.714V111.667H110.143V145H77V45H110.143V61.667Z" fill="#04211A"/>
<path d="M418.143 61.667H434.714V78.333H451.286V61.667H467.857V45H501V145H467.857V111.667H451.286V128.333H434.714V111.667H418.143V145H385V45H418.143V61.667Z" fill="#04211A"/>
<path d="M726.143 61.667H742.714V78.333H759.286V61.667H775.857V45H809V145H775.857V111.667H759.286V128.333H742.714V111.667H726.143V145H693V45H726.143V61.667Z" fill="#04211A"/>
<path d="M1034.14 61.667H1050.71V78.333H1067.29V61.667H1083.86V45H1117V145H1083.86V111.667H1067.29V128.333H1050.71V111.667H1034.14V145H1001V45H1034.14V61.667Z" fill="#04211A"/>
<path d="M1342.14 61.667H1358.71V78.333H1375.29V61.667H1391.86V45H1425V145H1391.86V111.667H1375.29V128.333H1358.71V111.667H1342.14V145H1309V45H1342.14V61.667Z" fill="#04211A"/>
<path d="M-43.8574 -20.333H-27.2861V-3.66699H-10.7139V-20.333H5.85742V-37H39V63H5.85742V29.667H-10.7139V46.333H-27.2861V29.667H-43.8574V63H-77V-37H-43.8574V-20.333Z" fill="#04211A"/>
<path d="M264.143 -20.333H280.714V-3.66699H297.286V-20.333H313.857V-37H347V63H313.857V29.667H297.286V46.333H280.714V29.667H264.143V63H231V-37H264.143V-20.333Z" fill="#04211A"/>
<path d="M572.143 -20.333H588.714V-3.66699H605.286V-20.333H621.857V-37H655V63H621.857V29.667H605.286V46.333H588.714V29.667H572.143V63H539V-37H572.143V-20.333Z" fill="#04211A"/>
<path d="M880.143 -20.333H896.714V-3.66699H913.286V-20.333H929.857V-37H963V63H929.857V29.667H913.286V46.333H896.714V29.667H880.143V63H847V-37H880.143V-20.333Z" fill="#04211A"/>
<path d="M1188.14 -20.333H1204.71V-3.66699H1221.29V-20.333H1237.86V-37H1271V63H1237.86V29.667H1221.29V46.333H1204.71V29.667H1188.14V63H1155V-37H1188.14V-20.333Z" fill="#04211A"/>
<path d="M1493.14 -20.333H1509.71V-3.66699H1526.29V-20.333H1542.86V-37H1576V63H1542.86V29.667H1526.29V46.333H1509.71V29.667H1493.14V63H1460V-37H1493.14V-20.333Z" fill="#04211A"/>
<path d="M514.162 232.27H513.687L508.462 243.005L493.927 269.51L479.392 243.005L474.167 232.27H473.692V283H463.432V216.69H476.162L493.927 250.415H494.497L512.262 216.69H524.422V283H514.162V232.27ZM538.62 224.765C536.466 224.765 534.883 224.258 533.87 223.245C532.92 222.232 532.445 220.933 532.445 219.35V217.735C532.445 216.152 532.92 214.853 533.87 213.84C534.883 212.827 536.466 212.32 538.62 212.32C540.773 212.32 542.325 212.827 543.275 213.84C544.225 214.853 544.7 216.152 544.7 217.735V219.35C544.7 220.933 544.225 222.232 543.275 223.245C542.325 224.258 540.773 224.765 538.62 224.765ZM533.395 233.6H543.75V283H533.395V233.6ZM570.981 284.14C567.435 284.14 564.268 283.538 561.481 282.335C558.695 281.132 556.351 279.422 554.451 277.205C552.551 274.925 551.095 272.202 550.081 269.035C549.068 265.805 548.561 262.227 548.561 258.3C548.561 254.373 549.068 250.827 550.081 247.66C551.095 244.43 552.551 241.707 554.451 239.49C556.351 237.21 558.695 235.468 561.481 234.265C564.268 233.062 567.435 232.46 570.981 232.46C575.921 232.46 579.975 233.568 583.141 235.785C586.308 238.002 588.62 240.947 590.076 244.62L581.526 248.61C580.83 246.33 579.595 244.525 577.821 243.195C576.111 241.802 573.831 241.105 570.981 241.105C567.181 241.105 564.3 242.308 562.336 244.715C560.436 247.058 559.486 250.13 559.486 253.93V262.765C559.486 266.565 560.436 269.668 562.336 272.075C564.3 274.418 567.181 275.59 570.981 275.59C574.021 275.59 576.428 274.862 578.201 273.405C580.038 271.885 581.495 269.89 582.571 267.42L590.456 271.6C588.81 275.653 586.34 278.757 583.046 280.91C579.753 283.063 575.731 284.14 570.981 284.14ZM593.664 212.7H604.019V241.77H604.494C605.571 239.11 607.186 236.893 609.339 235.12C611.556 233.347 614.564 232.46 618.364 232.46C623.431 232.46 627.357 234.138 630.144 237.495C632.994 240.788 634.419 245.507 634.419 251.65V283H624.064V252.885C624.064 245.222 620.961 241.39 614.754 241.39C613.424 241.39 612.094 241.58 610.764 241.96C609.497 242.277 608.357 242.783 607.344 243.48C606.331 244.177 605.507 245.063 604.874 246.14C604.304 247.217 604.019 248.452 604.019 249.845V283H593.664V212.7ZM678.316 283C675.593 283 673.503 282.24 672.046 280.72C670.59 279.137 669.703 277.142 669.386 274.735H668.911C667.961 277.838 666.22 280.182 663.686 281.765C661.153 283.348 658.081 284.14 654.471 284.14C649.341 284.14 645.383 282.81 642.596 280.15C639.873 277.49 638.511 273.912 638.511 269.415C638.511 264.475 640.285 260.77 643.831 258.3C647.441 255.83 652.698 254.595 659.601 254.595H668.531V250.415C668.531 247.375 667.708 245.032 666.061 243.385C664.415 241.738 661.85 240.915 658.366 240.915C655.453 240.915 653.078 241.548 651.241 242.815C649.405 244.082 647.853 245.697 646.586 247.66L640.411 242.055C642.058 239.268 644.37 236.988 647.346 235.215C650.323 233.378 654.218 232.46 659.031 232.46C665.428 232.46 670.336 233.948 673.756 236.925C677.176 239.902 678.886 244.177 678.886 249.75V274.545H684.111V283H678.316ZM657.416 276.255C660.646 276.255 663.306 275.558 665.396 274.165C667.486 272.708 668.531 270.777 668.531 268.37V261.245H659.791C652.635 261.245 649.056 263.462 649.056 267.895V269.605C649.056 271.822 649.785 273.5 651.241 274.64C652.761 275.717 654.82 276.255 657.416 276.255ZM706.99 284.14C703.443 284.14 700.277 283.538 697.49 282.335C694.703 281.132 692.328 279.422 690.365 277.205C688.402 274.925 686.882 272.202 685.805 269.035C684.792 265.805 684.285 262.227 684.285 258.3C684.285 254.373 684.792 250.827 685.805 247.66C686.882 244.43 688.402 241.707 690.365 239.49C692.328 237.21 694.703 235.468 697.49 234.265C700.277 233.062 703.443 232.46 706.99 232.46C710.6 232.46 713.767 233.093 716.49 234.36C719.277 235.627 721.588 237.4 723.425 239.68C725.262 241.897 726.623 244.493 727.51 247.47C728.46 250.447 728.935 253.645 728.935 257.065V260.96H695.02V262.575C695.02 266.375 696.128 269.51 698.345 271.98C700.625 274.387 703.855 275.59 708.035 275.59C711.075 275.59 713.64 274.925 715.73 273.595C717.82 272.265 719.593 270.46 721.05 268.18L727.13 274.165C725.293 277.205 722.633 279.643 719.15 281.48C715.667 283.253 711.613 284.14 706.99 284.14ZM706.99 240.535C705.217 240.535 703.57 240.852 702.05 241.485C700.593 242.118 699.327 243.005 698.25 244.145C697.237 245.285 696.445 246.647 695.875 248.23C695.305 249.813 695.02 251.555 695.02 253.455V254.12H718.01V253.17C718.01 249.37 717.028 246.33 715.065 244.05C713.102 241.707 710.41 240.535 706.99 240.535ZM744.293 283C740.747 283 738.087 282.113 736.313 280.34C734.603 278.503 733.748 275.97 733.748 272.74V212.7H744.103V274.545H750.943V283H744.293ZM821.479 232.27H821.004L815.779 243.005L801.244 269.51L786.709 243.005L781.484 232.27H781.009V283H770.749V216.69H783.479L801.244 250.415H801.814L819.579 216.69H831.739V283H821.479V232.27ZM876.907 283C874.184 283 872.094 282.24 870.637 280.72C869.181 279.137 868.294 277.142 867.977 274.735H867.502C866.552 277.838 864.811 280.182 862.277 281.765C859.744 283.348 856.672 284.14 853.062 284.14C847.932 284.14 843.974 282.81 841.187 280.15C838.464 277.49 837.102 273.912 837.102 269.415C837.102 264.475 838.876 260.77 842.422 258.3C846.032 255.83 851.289 254.595 858.192 254.595H867.122V250.415C867.122 247.375 866.299 245.032 864.652 243.385C863.006 241.738 860.441 240.915 856.957 240.915C854.044 240.915 851.669 241.548 849.832 242.815C847.996 244.082 846.444 245.697 845.177 247.66L839.002 242.055C840.649 239.268 842.961 236.988 845.937 235.215C848.914 233.378 852.809 232.46 857.622 232.46C864.019 232.46 868.927 233.948 872.347 236.925C875.767 239.902 877.477 244.177 877.477 249.75V274.545H882.702V283H876.907ZM856.007 276.255C859.237 276.255 861.897 275.558 863.987 274.165C866.077 272.708 867.122 270.777 867.122 268.37V261.245H858.382C851.226 261.245 847.647 263.462 847.647 267.895V269.605C847.647 271.822 848.376 273.5 849.832 274.64C851.352 275.717 853.411 276.255 856.007 276.255ZM886.201 283V233.6H896.556V241.77H897.031C898.108 239.11 899.723 236.893 901.876 235.12C904.093 233.347 907.101 232.46 910.901 232.46C915.968 232.46 919.894 234.138 922.681 237.495C925.531 240.788 926.956 245.507 926.956 251.65V283H916.601V252.98C916.601 245.253 913.498 241.39 907.291 241.39C905.961 241.39 904.631 241.58 903.301 241.96C902.034 242.277 900.894 242.783 899.881 243.48C898.868 244.177 898.044 245.063 897.411 246.14C896.841 247.217 896.556 248.483 896.556 249.94V283H886.201ZM965.723 274.83H965.248C964.172 277.743 962.398 280.023 959.928 281.67C957.522 283.317 954.672 284.14 951.378 284.14C945.108 284.14 940.263 281.892 936.843 277.395C933.423 272.835 931.713 266.47 931.713 258.3C931.713 250.13 933.423 243.797 936.843 239.3C940.263 234.74 945.108 232.46 951.378 232.46C954.672 232.46 957.522 233.283 959.928 234.93C962.398 236.513 964.172 238.793 965.248 241.77H965.723V212.7H976.078V283H965.723V274.83ZM954.513 275.21C957.68 275.21 960.34 274.45 962.493 272.93C964.647 271.347 965.723 269.288 965.723 266.755V249.845C965.723 247.312 964.647 245.285 962.493 243.765C960.34 242.182 957.68 241.39 954.513 241.39C950.903 241.39 948.022 242.562 945.868 244.905C943.715 247.185 942.638 250.225 942.638 254.025V262.575C942.638 266.375 943.715 269.447 945.868 271.79C948.022 274.07 950.903 275.21 954.513 275.21ZM989.454 224.765C987.301 224.765 985.717 224.258 984.704 223.245C983.754 222.232 983.279 220.933 983.279 219.35V217.735C983.279 216.152 983.754 214.853 984.704 213.84C985.717 212.827 987.301 212.32 989.454 212.32C991.607 212.32 993.159 212.827 994.109 213.84C995.059 214.853 995.534 216.152 995.534 217.735V219.35C995.534 220.933 995.059 222.232 994.109 223.245C993.159 224.258 991.607 224.765 989.454 224.765ZM984.229 233.6H994.584V283H984.229V233.6ZM1021.82 284.14C1018.27 284.14 1015.1 283.538 1012.32 282.335C1009.53 281.132 1007.19 279.422 1005.29 277.205C1003.39 274.925 1001.93 272.202 1000.92 269.035C999.902 265.805 999.396 262.227 999.396 258.3C999.396 254.373 999.902 250.827 1000.92 247.66C1001.93 244.43 1003.39 241.707 1005.29 239.49C1007.19 237.21 1009.53 235.468 1012.32 234.265C1015.1 233.062 1018.27 232.46 1021.82 232.46C1026.76 232.46 1030.81 233.568 1033.98 235.785C1037.14 238.002 1039.45 240.947 1040.91 244.62L1032.36 248.61C1031.66 246.33 1030.43 244.525 1028.66 243.195C1026.95 241.802 1024.67 241.105 1021.82 241.105C1018.02 241.105 1015.13 242.308 1013.17 244.715C1011.27 247.058 1010.32 250.13 1010.32 253.93V262.765C1010.32 266.565 1011.27 269.668 1013.17 272.075C1015.13 274.418 1018.02 275.59 1021.82 275.59C1024.86 275.59 1027.26 274.862 1029.04 273.405C1030.87 271.885 1032.33 269.89 1033.41 267.42L1041.29 271.6C1039.64 275.653 1037.17 278.757 1033.88 280.91C1030.59 283.063 1026.57 284.14 1021.82 284.14Z" fill="#04211A"/>
</g>
<defs>
<clipPath id="clip0_283_313">
<rect width="1500" height="500" fill="white"/>
</clipPath>
</defs>
</svg>
